Director-Regular.ufo
<glyph name="exclam" format="2">
	<advance width="700"/>
	<unicode hex="0021"/>
	<outline>
		<contour>
			<point x="377" y="226" type="curve" smooth="yes"/>
			<point x="419" y="651" type="line" smooth="yes"/>
			<point x="424" y="699"/>
			<point x="388" y="730"/>
			<point x="350" y="730" type="curve" smooth="yes"/>
			<point x="312" y="730"/>
			<point x="276" y="699"/>
			<point x="281" y="651" type="curve" smooth="yes"/>
			<point x="327" y="225" type="line" smooth="yes"/>
			<point x="329" y="210"/>
			<point x="338" y="198"/>
			<point x="352" y="198" type="curve" smooth="yes"/>
			<point x="366" y="198"/>
			<point x="375" y="210"/>
		</contour>
		<contour>
			<point x="352" y="0" type="curve" smooth="yes"/>
			<point x="386" y="0"/>
			<point x="414" y="25"/>
			<point x="414" y="59" type="curve" smooth="yes"/>
			<point x="414" y="93"/>
			<point x="386" y="118"/>
			<point x="352" y="118" type="curve" smooth="yes"/>
			<point x="318" y="118"/>
			<point x="290" y="93"/>
			<point x="290" y="59" type="curve" smooth="yes"/>
			<point x="290" y="25"/>
			<point x="318" y="0"/>
		</contour>
	</outline>
</glyph>
<glyph name="quotedbl" format="2">
	<advance width="700"/>
	<unicode hex="0022"/>
	<outline>
		<contour>
			<point x="199" y="657" type="curve" smooth="yes"/>
			<point x="230" y="387" type="line" smooth="yes"/>
			<point x="232" y="368"/>
			<point x="241" y="356"/>
			<point x="257" y="356" type="curve" smooth="yes"/>
			<point x="273" y="356"/>
			<point x="282" y="368"/>
			<point x="284" y="387" type="curve" smooth="yes"/>
			<point x="314" y="657" type="line" smooth="yes"/>
			<point x="320" y="707"/>
			<point x="290" y="730"/>
			<point x="257" y="730" type="curve" smooth="yes"/>
			<point x="223" y="730"/>
			<point x="194" y="703"/>
		</contour>
		<contour>
			<point x="399" y="657" type="curve" smooth="yes"/>
			<point x="430" y="387" type="line" smooth="yes"/>
			<point x="432" y="368"/>
			<point x="441" y="356"/>
			<point x="457" y="356" type="curve" smooth="yes"/>
			<point x="473" y="356"/>
			<point x="482" y="368"/>
			<point x="484" y="387" type="curve" smooth="yes"/>
			<point x="514" y="657" type="line" smooth="yes"/>
			<point x="520" y="707"/>
			<point x="490" y="730"/>
			<point x="457" y="730" type="curve" smooth="yes"/>
			<point x="423" y="730"/>
			<point x="394" y="703"/>
		</contour>
	</outline>
</glyph>
<glyph name="numbersign" format="2">
	<advance width="700"/>
	<unicode hex="0023"/>
	<outline>
		<contour>
			<point x="290" y="496" type="line"/>
			<point x="318" y="706" type="line" smooth="yes"/>
			<point x="321" y="725"/>
			<point x="310" y="736"/>
			<point x="295" y="737" type="curve" smooth="yes"/>
			<point x="279" y="738"/>
			<point x="271" y="729"/>
			<point x="268" y="710" type="curve" smooth="yes"/>
			<point x="239" y="496" type="line"/>
			<point x="139" y="496" type="line" smooth="yes"/>
			<point x="120" y="496"/>
			<point x="110" y="488"/>
			<point x="110" y="471" type="curve" smooth="yes"/>
			<point x="110" y="454"/>
			<point x="120" y="446"/>
			<point x="139" y="446" type="curve" smooth="yes"/>
			<point x="230" y="446" type="line"/>
			<point x="210" y="275" type="line"/>
			<point x="110" y="275" type="line" smooth="yes"/>
			<point x="91" y="275"/>
			<point x="80" y="265"/>
			<point x="80" y="250" type="curve" smooth="yes"/>
			<point x="80" y="235"/>
			<point x="91" y="225"/>
			<point x="110" y="225" type="curve" smooth="yes"/>
			<point x="202" y="225" type="line"/>
			<point x="174" y="24" type="line" smooth="yes"/>
			<point x="171" y="5"/>
			<point x="182" y="-6"/>
			<point x="197" y="-7" type="curve" smooth="yes"/>
			<point x="213" y="-8"/>
			<point x="222" y="1"/>
			<point x="224" y="20" type="curve"/>
			<point x="253" y="225" type="line"/>
			<point x="424" y="225" type="line"/>
			<point x="396" y="24" type="line" smooth="yes"/>
			<point x="393" y="5"/>
			<point x="404" y="-6"/>
			<point x="419" y="-7" type="curve"/>
			<point x="434" y="-8"/>
			<point x="443" y="1"/>
			<point x="446" y="20" type="curve"/>
			<point x="475" y="225" type="line"/>
			<point x="583" y="225" type="line" smooth="yes"/>
			<point x="602" y="225"/>
			<point x="612" y="233"/>
			<point x="612" y="250" type="curve" smooth="yes"/>
			<point x="612" y="267"/>
			<point x="602" y="275"/>
			<point x="583" y="275" type="curve" smooth="yes"/>
			<point x="483" y="275" type="line"/>
			<point x="503" y="446" type="line"/>
			<point x="612" y="446" type="line" smooth="yes"/>
			<point x="631" y="446"/>
			<point x="641" y="454"/>
			<point x="641" y="471" type="curve" smooth="yes"/>
			<point x="641" y="488"/>
			<point x="631" y="496"/>
			<point x="612" y="496" type="curve" smooth="yes"/>
			<point x="512" y="496" type="line"/>
			<point x="540" y="706" type="line" smooth="yes"/>
			<point x="543" y="725"/>
			<point x="532" y="736"/>
			<point x="517" y="737" type="curve" smooth="yes"/>
			<point x="501" y="738"/>
			<point x="493" y="729"/>
			<point x="490" y="710" type="curve" smooth="yes"/>
			<point x="461" y="496" type="line"/>
		</contour>
		<contour>
			<point x="261" y="275" type="line"/>
			<point x="281" y="446" type="line"/>
			<point x="452" y="446" type="line"/>
			<point x="432" y="275" type="line"/>
		</contour>
	</outline>
</glyph>
<glyph name="percent" format="2">
	<advance width="700"/>
	<unicode hex="0025"/>
	<outline>
		<contour>
			<point x="84" y="555" type="curve" smooth="yes"/>
			<point x="52" y="467"/>
			<point x="76" y="378"/>
			<point x="137" y="356" type="curve" smooth="yes"/>
			<point x="198" y="334"/>
			<point x="274" y="387"/>
			<point x="306" y="474" type="curve" smooth="yes"/>
			<point x="333" y="547"/>
			<point x="321" y="619"/>
			<point x="283" y="656" type="curve"/>
			<point x="325" y="671"/>
			<point x="378" y="696"/>
			<point x="443" y="740" type="curve" smooth="yes"/>
			<point x="484" y="768"/>
			<point x="510" y="798"/>
			<point x="534" y="814" type="curve"/>
			<point x="110" y="-90" type="line" smooth="yes"/>
			<point x="101" y="-110"/>
			<point x="94" y="-130"/>
			<point x="116" y="-139" type="curve" smooth="yes"/>
			<point x="134" y="-146"/>
			<point x="147" y="-133"/>
			<point x="157" y="-111" type="curve" smooth="yes"/>
			<point x="588" y="808" type="line" smooth="yes"/>
			<point x="600" y="834"/>
			<point x="595" y="854"/>
			<point x="576" y="866" type="curve" smooth="yes"/>
			<point x="546" y="884"/>
			<point x="548" y="881"/>
			<point x="439" y="802" type="curve" smooth="yes"/>
			<point x="312" y="711"/>
			<point x="229" y="688"/>
			<point x="189" y="672" type="curve" smooth="yes"/>
			<point x="146" y="656"/>
			<point x="105" y="613"/>
		</contour>
		<contour>
			<point x="131" y="538" type="curve" smooth="yes"/>
			<point x="154" y="600"/>
			<point x="196" y="645"/>
			<point x="236" y="629" type="curve" smooth="yes"/>
			<point x="275" y="613"/>
			<point x="282" y="558"/>
			<point x="258" y="494" type="curve" smooth="yes"/>
			<point x="235" y="434"/>
			<point x="194" y="387"/>
			<point x="153" y="404" type="curve" smooth="yes"/>
			<point x="113" y="421"/>
			<point x="108" y="476"/>
		</contour>
		<contour>
			<point x="374" y="208" type="curve" smooth="yes"/>
			<point x="341" y="119"/>
			<point x="366" y="30"/>
			<point x="427" y="8" type="curve" smooth="yes"/>
			<point x="488" y="-14"/>
			<point x="564" y="39"/>
			<point x="596" y="127" type="curve" smooth="yes"/>
			<point x="628" y="215"/>
			<point x="604" y="304"/>
			<point x="543" y="326" type="curve" smooth="yes"/>
			<point x="482" y="348"/>
			<point x="406" y="295"/>
		</contour>
		<contour>
			<point x="422" y="188" type="curve" smooth="yes"/>
			<point x="445" y="248"/>
			<point x="486" y="295"/>
			<point x="527" y="278" type="curve" smooth="yes"/>
			<point x="567" y="261"/>
			<point x="572" y="206"/>
			<point x="549" y="144" type="curve" smooth="yes"/>
			<point x="526" y="82"/>
			<point x="484" y="37"/>
			<point x="444" y="53" type="curve" smooth="yes"/>
			<point x="405" y="69"/>
			<point x="398" y="124"/>
		</contour>
	</outline>
</glyph>
<glyph name="ampersand" format="2">
	<advance width="700"/>
	<unicode hex="0026"/>
	<outline>
		<contour>
			<point x="562" y="501" type="curve" smooth="yes"/>
			<point x="477" y="501"/>
			<point x="452" y="417"/>
			<point x="412" y="303" type="curve" smooth="yes"/>
			<point x="406" y="287" type="line"/>
			<point x="331" y="419" type="line"/>
			<point x="413" y="478"/>
			<point x="456" y="531"/>
			<point x="456" y="606" type="curve" smooth="yes"/>
			<point x="456" y="665"/>
			<point x="423" y="730"/>
			<point x="321" y="730" type="curve" smooth="yes"/>
			<point x="234" y="730"/>
			<point x="162" y="667"/>
			<point x="162" y="583" type="curve" smooth="yes"/>
			<point x="162" y="530"/>
			<point x="176" y="488"/>
			<point x="219" y="414" type="curve"/>
			<point x="124" y="360"/>
			<point x="34" y="281"/>
			<point x="34" y="175" type="curve" smooth="yes"/>
			<point x="34" y="63"/>
			<point x="99" y="0"/>
			<point x="202" y="0" type="curve" smooth="yes"/>
			<point x="285" y="0"/>
			<point x="344" y="56"/>
			<point x="385" y="122" type="curve"/>
			<point x="405" y="87" type="line" smooth="yes"/>
			<point x="454" y="0"/>
			<point x="507" y="0"/>
			<point x="536" y="0" type="curve" smooth="yes"/>
			<point x="603" y="0"/>
			<point x="635" y="52"/>
			<point x="655" y="101" type="curve" smooth="yes"/>
			<point x="675" y="150"/>
			<point x="678" y="172"/>
			<point x="659" y="181" type="curve" smooth="yes"/>
			<point x="646" y="187"/>
			<point x="632" y="180"/>
			<point x="625" y="159" type="curve" smooth="yes"/>
			<point x="609" y="113"/>
			<point x="593" y="62"/>
			<point x="557" y="62" type="curve" smooth="yes"/>
			<point x="529" y="62"/>
			<point x="508" y="108"/>
			<point x="486" y="147" type="curve" smooth="yes"/>
			<point x="437" y="233" type="line"/>
			<point x="445" y="255" type="line" smooth="yes"/>
			<point x="472" y="334"/>
			<point x="509" y="459"/>
			<point x="552" y="456" type="curve"/>
			<point x="552" y="440"/>
			<point x="552" y="383"/>
			<point x="552" y="377" type="curve" smooth="yes"/>
			<point x="552" y="352"/>
			<point x="564" y="318"/>
			<point x="614" y="318" type="curve" smooth="yes"/>
			<point x="641" y="318"/>
			<point x="673" y="338"/>
			<point x="673" y="382" type="curve" smooth="yes"/>
			<point x="673" y="415"/>
			<point x="657" y="501"/>
		</contour>
		<contour>
			<point x="262" y="582" type="curve" smooth="yes"/>
			<point x="262" y="628"/>
			<point x="282" y="684"/>
			<point x="340" y="684" type="curve" smooth="yes"/>
			<point x="353" y="684"/>
			<point x="405" y="680"/>
			<point x="405" y="607" type="curve" smooth="yes"/>
			<point x="405" y="555"/>
			<point x="372" y="506"/>
			<point x="307" y="461" type="curve"/>
			<point x="289" y="493"/>
			<point x="262" y="537"/>
		</contour>
		<contour>
			<point x="134" y="196" type="curve" smooth="yes"/>
			<point x="139" y="257"/>
			<point x="179" y="328"/>
			<point x="242" y="372" type="curve"/>
			<point x="358" y="170" type="line"/>
			<point x="327" y="112"/>
			<point x="284" y="62"/>
			<point x="224" y="60" type="curve" smooth="yes"/>
			<point x="151" y="58"/>
			<point x="129" y="132"/>
		</contour>
	</outline>
</glyph>
<glyph name="quotesingle" format="2">
	<advance width="700"/>
	<unicode hex="0027"/>
	<outline>
		<contour>
			<point x="239" y="657" type="curve" smooth="yes"/>
			<point x="270" y="387" type="line" smooth="yes"/>
			<point x="272" y="368"/>
			<point x="281" y="356"/>
			<point x="297" y="356" type="curve" smooth="yes"/>
			<point x="313" y="356"/>
			<point x="322" y="368"/>
			<point x="324" y="387" type="curve" smooth="yes"/>
			<point x="354" y="657" type="line" smooth="yes"/>
			<point x="360" y="707"/>
			<point x="330" y="730"/>
			<point x="297" y="730" type="curve" smooth="yes"/>
			<point x="263" y="730"/>
			<point x="234" y="703"/>
		</contour>
	</outline>
</glyph>
<glyph name="parenleft" format="2">
	<advance width="700"/>
	<unicode hex="0028"/>
	<outline>
		<contour>
			<point x="261" y="365" type="curve" smooth="yes"/>
			<point x="262" y="525"/>
			<point x="320" y="644"/>
			<point x="388" y="740" type="curve" smooth="yes"/>
			<point x="437" y="809" type="line"/>
			<point x="456" y="831"/>
			<point x="455" y="847"/>
			<point x="445" y="857" type="curve" smooth="yes"/>
			<point x="426" y="876"/>
			<point x="401" y="855"/>
			<point x="371" y="826" type="curve"/>
			<point x="267" y="724"/>
			<point x="161" y="588"/>
			<point x="161" y="365" type="curve" smooth="yes"/>
			<point x="161" y="144"/>
			<point x="270" y="3"/>
			<point x="371" y="-96" type="curve"/>
			<point x="411" y="-134"/>
			<point x="429" y="-143"/>
			<point x="445" y="-127" type="curve" smooth="yes"/>
			<point x="455" y="-117"/>
			<point x="457" y="-102"/>
			<point x="437" y="-79" type="curve"/>
			<point x="388" y="-10" type="line" smooth="yes"/>
			<point x="321" y="85"/>
			<point x="260" y="205"/>
		</contour>
	</outline>
</glyph>
<glyph name="parenright" format="2">
	<advance width="700"/>
	<unicode hex="0029"/>
	<outline>
		<contour>
			<point x="439" y="365" type="curve" smooth="yes"/>
			<point x="440" y="205"/>
			<point x="379" y="85"/>
			<point x="312" y="-10" type="curve" smooth="yes"/>
			<point x="263" y="-79" type="line"/>
			<point x="243" y="-102"/>
			<point x="245" y="-117"/>
			<point x="255" y="-127" type="curve" smooth="yes"/>
			<point x="271" y="-143"/>
			<point x="289" y="-134"/>
			<point x="329" y="-96" type="curve"/>
			<point x="430" y="3"/>
			<point x="539" y="144"/>
			<point x="539" y="365" type="curve" smooth="yes"/>
			<point x="539" y="588"/>
			<point x="433" y="724"/>
			<point x="329" y="826" type="curve"/>
			<point x="299" y="855"/>
			<point x="274" y="876"/>
			<point x="255" y="857" type="curve" smooth="yes"/>
			<point x="245" y="847"/>
			<point x="244" y="831"/>
			<point x="263" y="809" type="curve"/>
			<point x="312" y="740" type="line" smooth="yes"/>
			<point x="380" y="644"/>
			<point x="438" y="525"/>
		</contour>
	</outline>
</glyph>
<glyph name="asterisk" format="2">
	<advance width="700"/>
	<unicode hex="002A"/>
	<outline>
		<contour>
			<point x="107" y="475" type="curve" smooth="yes"/>
			<point x="107" y="461"/>
			<point x="117" y="450"/>
			<point x="134" y="450" type="curve" smooth="yes"/>
			<point x="307" y="450" type="line"/>
			<point x="215" y="291" type="line" smooth="yes"/>
			<point x="207" y="277"/>
			<point x="211" y="262"/>
			<point x="224" y="255" type="curve" smooth="yes"/>
			<point x="238" y="248"/>
			<point x="251" y="252"/>
			<point x="259" y="266" type="curve" smooth="yes"/>
			<point x="346" y="417" type="line"/>
			<point x="433" y="266" type="line" smooth="yes"/>
			<point x="441" y="253"/>
			<point x="456" y="249"/>
			<point x="468" y="255" type="curve" smooth="yes"/>
			<point x="482" y="262"/>
			<point x="484" y="278"/>
			<point x="477" y="291" type="curve" smooth="yes"/>
			<point x="385" y="450" type="line"/>
			<point x="558" y="450" type="line" smooth="yes"/>
			<point x="575" y="450"/>
			<point x="586" y="461"/>
			<point x="586" y="475" type="curve" smooth="yes"/>
			<point x="586" y="491"/>
			<point x="575" y="500"/>
			<point x="558" y="500" type="curve" smooth="yes"/>
			<point x="394" y="500" type="line"/>
			<point x="473" y="637" type="line" smooth="yes"/>
			<point x="481" y="651"/>
			<point x="476" y="667"/>
			<point x="464" y="673" type="curve" smooth="yes"/>
			<point x="452" y="679"/>
			<point x="437" y="675"/>
			<point x="430" y="662" type="curve" smooth="yes"/>
			<point x="346" y="517" type="line"/>
			<point x="262" y="662" type="line" smooth="yes"/>
			<point x="254" y="675"/>
			<point x="240" y="680"/>
			<point x="228" y="673" type="curve" smooth="yes"/>
			<point x="215" y="665"/>
			<point x="211" y="651"/>
			<point x="219" y="637" type="curve" smooth="yes"/>
			<point x="298" y="500" type="line"/>
			<point x="134" y="500" type="line" smooth="yes"/>
			<point x="117" y="500"/>
			<point x="107" y="489"/>
		</contour>
	</outline>
</glyph>
<glyph name="plus" format="2">
	<advance width="700"/>
	<unicode hex="002B"/>
	<outline>
		<contour>
			<point x="129" y="282" type="curve" smooth="yes"/>
			<point x="325" y="282" type="line"/>
			<point x="325" y="476" type="line" smooth="yes"/>
			<point x="325" y="495"/>
			<point x="333" y="508"/>
			<point x="350" y="508" type="curve" smooth="yes"/>
			<point x="367" y="508"/>
			<point x="375" y="495"/>
			<point x="375" y="476" type="curve" smooth="yes"/>
			<point x="375" y="282" type="line"/>
			<point x="572" y="282" type="line" smooth="yes"/>
			<point x="591" y="282"/>
			<point x="604" y="274"/>
			<point x="604" y="257" type="curve" smooth="yes"/>
			<point x="604" y="240"/>
			<point x="591" y="232"/>
			<point x="572" y="232" type="curve" smooth="yes"/>
			<point x="375" y="232" type="line"/>
			<point x="375" y="32" type="line" smooth="yes"/>
			<point x="375" y="13"/>
			<point x="367" y="0"/>
			<point x="350" y="0" type="curve" smooth="yes"/>
			<point x="333" y="0"/>
			<point x="325" y="13"/>
			<point x="325" y="32" type="curve" smooth="yes"/>
			<point x="325" y="232" type="line"/>
			<point x="129" y="232" type="line" smooth="yes"/>
			<point x="110" y="232"/>
			<point x="96" y="240"/>
			<point x="96" y="257" type="curve" smooth="yes"/>
			<point x="96" y="274"/>
			<point x="110" y="282"/>
		</contour>
	</outline>
</glyph>
<glyph name="comma" format="2">
	<advance width="700"/>
	<unicode hex="002C"/>
	<outline>
		<contour>
			<point x="447" y="59" type="curve" smooth="yes"/>
			<point x="447" y="131"/>
			<point x="395" y="172"/>
			<point x="345" y="172" type="curve" smooth="yes"/>
			<point x="296" y="172"/>
			<point x="254" y="131"/>
			<point x="254" y="82" type="curve" smooth="yes"/>
			<point x="254" y="31"/>
			<point x="295" y="-10"/>
			<point x="345" y="-10" type="curve" smooth="yes"/>
			<point x="355" y="-10"/>
			<point x="360" y="-10"/>
			<point x="369" y="-9" type="curve"/>
			<point x="369" y="-65"/>
			<point x="295" y="-133"/>
			<point x="276" y="-149" type="curve" smooth="yes"/>
			<point x="254" y="-168"/>
			<point x="258" y="-185"/>
			<point x="268" y="-195" type="curve" smooth="yes"/>
			<point x="283" y="-210"/>
			<point x="302" y="-201"/>
			<point x="342" y="-165" type="curve"/>
			<point x="398" y="-114"/>
			<point x="447" y="-23"/>
		</contour>
	</outline>
</glyph>
<glyph name="hyphen" format="2">
	<advance width="700"/>
	<unicode hex="002D"/>
	<outline>
		<contour>
			<point x="109" y="211" type="curve" smooth="yes"/>
			<point x="591" y="211" type="line" smooth="yes"/>
			<point x="611" y="211"/>
			<point x="628" y="214"/>
			<point x="628" y="242" type="curve"/>
			<point x="628" y="280" type="line" smooth="yes"/>
			<point x="628" y="308"/>
			<point x="611" y="311"/>
			<point x="591" y="311" type="curve" smooth="yes"/>
			<point x="109" y="311" type="line" smooth="yes"/>
			<point x="89" y="311"/>
			<point x="72" y="308"/>
			<point x="72" y="280" type="curve" smooth="yes"/>
			<point x="72" y="242" type="line"/>
			<point x="72" y="214"/>
			<point x="89" y="211"/>
		</contour>
	</outline>
</glyph>
<glyph name="period" format="2">
	<advance width="700"/>
	<unicode hex="002E"/>
	<outline>
		<contour>
			<point x="351" y="-10" type="curve" smooth="yes"/>
			<point x="401" y="-10"/>
			<point x="441" y="31"/>
			<point x="441" y="82" type="curve" smooth="yes"/>
			<point x="441" y="131"/>
			<point x="401" y="172"/>
			<point x="351" y="172" type="curve" smooth="yes"/>
			<point x="301" y="172"/>
			<point x="260" y="131"/>
			<point x="260" y="82" type="curve" smooth="yes"/>
			<point x="260" y="31"/>
			<point x="301" y="-10"/>
		</contour>
	</outline>
</glyph>
<glyph name="slash" format="2">
	<advance width="700"/>
	<unicode hex="002F"/>
	<outline>
		<contour>
			<point x="570" y="833" type="curve" smooth="yes"/>
			<point x="137" y="-90" type="line" smooth="yes"/>
			<point x="128" y="-110"/>
			<point x="121" y="-130"/>
			<point x="143" y="-139" type="curve" smooth="yes"/>
			<point x="161" y="-146"/>
			<point x="174" y="-133"/>
			<point x="184" y="-111" type="curve" smooth="yes"/>
			<point x="617" y="812" type="line" smooth="yes"/>
			<point x="627" y="832"/>
			<point x="633" y="852"/>
			<point x="611" y="861" type="curve" smooth="yes"/>
			<point x="593" y="868"/>
			<point x="580" y="855"/>
		</contour>
	</outline>
</glyph>
<glyph name="zero" format="2">
	<advance width="700"/>
	<unicode hex="0030"/>
	<outline>
		<contour>
			<point x="622" y="383" type="line"/>
			<point x="622" y="583"/>
			<point x="492" y="730"/>
			<point x="350" y="730" type="curve" smooth="yes"/>
			<point x="208" y="730"/>
			<point x="77" y="583"/>
			<point x="77" y="383" type="curve"/>
			<point x="77" y="347" type="line"/>
			<point x="77" y="147"/>
			<point x="208" y="0"/>
			<point x="350" y="0" type="curve" smooth="yes"/>
			<point x="492" y="0"/>
			<point x="623" y="147"/>
			<point x="623" y="347" type="curve"/>
		</contour>
		<contour>
			<point x="350" y="50" type="curve" smooth="yes"/>
			<point x="254" y="50"/>
			<point x="187" y="204"/>
			<point x="187" y="366" type="curve" smooth="yes"/>
			<point x="187" y="529"/>
			<point x="254" y="680"/>
			<point x="350" y="680" type="curve" smooth="yes"/>
			<point x="445" y="680"/>
			<point x="513" y="529"/>
			<point x="513" y="366" type="curve" smooth="yes"/>
			<point x="513" y="204"/>
			<point x="445" y="50"/>
		</contour>
	</outline>
</glyph>
<glyph name="one" format="2">
	<advance width="700"/>
	<unicode hex="0031"/>
	<outline>
		<contour>
			<point x="451" y="703" type="line" smooth="yes"/>
			<point x="451" y="719"/>
			<point x="441" y="730"/>
			<point x="425" y="730" type="curve" smooth="yes"/>
			<point x="402" y="730"/>
			<point x="387" y="698"/>
			<point x="261" y="609" type="curve" smooth="yes"/>
			<point x="144" y="527" type="line" smooth="yes"/>
			<point x="131" y="518"/>
			<point x="118" y="502"/>
			<point x="133" y="485" type="curve" smooth="yes"/>
			<point x="143" y="474"/>
			<point x="157" y="478"/>
			<point x="168" y="484" type="curve" smooth="yes"/>
			<point x="209" y="507"/>
			<point x="312" y="575"/>
			<point x="351" y="608" type="curve"/>
			<point x="351" y="27" type="line"/>
			<point x="351" y="10"/>
			<point x="362" y="0"/>
			<point x="376" y="0" type="curve"/>
			<point x="426" y="0" type="line" smooth="yes"/>
			<point x="440" y="0"/>
			<point x="451" y="10"/>
			<point x="451" y="27" type="curve"/>
		</contour>
	</outline>
</glyph>
<glyph name="three" format="2">
	<advance width="700"/>
	<unicode hex="0033"/>
	<outline>
		<contour>
			<point x="424" y="564" type="curve" smooth="yes"/>
			<point x="424" y="474"/>
			<point x="321" y="422"/>
			<point x="305" y="413" type="curve" smooth="yes"/>
			<point x="291" y="405"/>
			<point x="273" y="396"/>
			<point x="276" y="378" type="curve" smooth="yes"/>
			<point x="279" y="360"/>
			<point x="297" y="357"/>
			<point x="315" y="360" type="curve" smooth="yes"/>
			<point x="440" y="381"/>
			<point x="486" y="303"/>
			<point x="474" y="221" type="curve" smooth="yes"/>
			<point x="455" y="86"/>
			<point x="350" y="-40"/>
			<point x="183" y="-45" type="curve" smooth="yes"/>
			<point x="149" y="-46"/>
			<point x="122" y="-42"/>
			<point x="123" y="-68" type="curve" smooth="yes"/>
			<point x="124" y="-87"/>
			<point x="153" y="-89"/>
			<point x="170" y="-90" type="curve" smooth="yes"/>
			<point x="440" y="-106"/>
			<point x="633" y="106"/>
			<point x="575" y="306" type="curve" smooth="yes"/>
			<point x="547" y="404"/>
			<point x="437" y="420"/>
			<point x="417" y="415" type="curve"/>
			<point x="468" y="431"/>
			<point x="541" y="511"/>
			<point x="528" y="608" type="curve" smooth="yes"/>
			<point x="518" y="684"/>
			<point x="440" y="730"/>
			<point x="343" y="730" type="curve" smooth="yes"/>
			<point x="247" y="730"/>
			<point x="193" y="684"/>
			<point x="165" y="658" type="curve" smooth="yes"/>
			<point x="134" y="629"/>
			<point x="121" y="598"/>
			<point x="140" y="584" type="curve" smooth="yes"/>
			<point x="148" y="578"/>
			<point x="166" y="575"/>
			<point x="182" y="595" type="curve" smooth="yes"/>
			<point x="282" y="721"/>
			<point x="424" y="676"/>
		</contour>
	</outline>
</glyph>
<glyph name="four" format="2">
	<advance width="700"/>
	<unicode hex="0034"/>
	<outline>
		<contour>
			<point x="69" y="204" type="curve" smooth="yes"/>
			<point x="71" y="196"/>
			<point x="78" y="187"/>
			<point x="101" y="187" type="curve" smooth="yes"/>
			<point x="383" y="186" type="line"/>
			<point x="383" y="-63" type="line" smooth="yes"/>
			<point x="383" y="-80"/>
			<point x="394" y="-90"/>
			<point x="408" y="-90" type="curve" smooth="yes"/>
			<point x="458" y="-90" type="line" smooth="yes"/>
			<point x="472" y="-90"/>
			<point x="483" y="-80"/>
			<point x="483" y="-63" type="curve" smooth="yes"/>
			<point x="483" y="186" type="line"/>
			<point x="586" y="186" type="line" smooth="yes"/>
			<point x="603" y="186"/>
			<point x="613" y="197"/>
			<point x="613" y="211" type="curve" smooth="yes"/>
			<point x="613" y="225"/>
			<point x="603" y="236"/>
			<point x="586" y="236" type="curve" smooth="yes"/>
			<point x="483" y="236" type="line"/>
			<point x="483" y="677" type="line" smooth="yes"/>
			<point x="483" y="702"/>
			<point x="485" y="724"/>
			<point x="461" y="730" type="curve" smooth="yes"/>
			<point x="444" y="734"/>
			<point x="430" y="722"/>
			<point x="417" y="705" type="curve" smooth="yes"/>
			<point x="91" y="258" type="line" smooth="yes"/>
			<point x="75" y="236"/>
			<point x="65" y="218"/>
		</contour>
		<contour>
			<point x="149" y="236" type="line"/>
			<point x="383" y="566" type="line"/>
			<point x="383" y="236" type="line"/>
		</contour>
	</outline>
</glyph>
<glyph name="five" format="2">
	<advance width="700"/>
	<unicode hex="0035"/>
	<outline>
		<contour>
			<point x="532" y="700" type="curve" smooth="yes"/>
			<point x="202" y="700" type="line" smooth="yes"/>
			<point x="177" y="700"/>
			<point x="174" y="684"/>
			<point x="172" y="671" type="curve"/>
			<point x="155" y="416" type="line"/>
			<point x="154" y="391"/>
			<point x="150" y="372"/>
			<point x="170" y="364" type="curve" smooth="yes"/>
			<point x="193" y="355"/>
			<point x="216" y="384"/>
			<point x="266" y="402" type="curve" smooth="yes"/>
			<point x="537" y="500"/>
			<point x="530" y="-3"/>
			<point x="206" y="-43" type="curve" smooth="yes"/>
			<point x="182" y="-46"/>
			<point x="156" y="-46"/>
			<point x="155" y="-68" type="curve" smooth="yes"/>
			<point x="153" y="-112"/>
			<point x="266" y="-81"/>
			<point x="310" y="-67" type="curve" smooth="yes"/>
			<point x="445" y="-24"/>
			<point x="570" y="127"/>
			<point x="570" y="274" type="curve" smooth="yes"/>
			<point x="570" y="465"/>
			<point x="388" y="519"/>
			<point x="206" y="425" type="curve"/>
			<point x="217" y="610" type="line"/>
			<point x="522" y="610" type="line" smooth="yes"/>
			<point x="532" y="610"/>
			<point x="551" y="615"/>
			<point x="553" y="637" type="curve" smooth="yes"/>
			<point x="557" y="673" type="line" smooth="yes"/>
			<point x="559" y="695"/>
			<point x="542" y="700"/>
		</contour>
	</outline>
</glyph>
<glyph name="six" format="2">
	<advance width="700"/>
	<unicode hex="0036"/>
	<outline>
		<contour>
			<point x="95" y="409" type="curve" smooth="yes"/>
			<point x="79" y="176"/>
			<point x="220" y="75"/>
			<point x="359" y="75" type="curve" smooth="yes"/>
			<point x="492" y="75"/>
			<point x="608" y="164"/>
			<point x="608" y="309" type="curve" smooth="yes"/>
			<point x="608" y="447"/>
			<point x="500" y="529"/>
			<point x="381" y="529" type="curve" smooth="yes"/>
			<point x="323" y="529"/>
			<point x="268" y="503"/>
			<point x="207" y="448" type="curve"/>
			<point x="220" y="600"/>
			<point x="307" y="774"/>
			<point x="468" y="810" type="curve" smooth="yes"/>
			<point x="495" y="816"/>
			<point x="525" y="816"/>
			<point x="522" y="842" type="curve" smooth="yes"/>
			<point x="519" y="866"/>
			<point x="485" y="862"/>
			<point x="468" y="859" type="curve" smooth="yes"/>
			<point x="281" y="826"/>
			<point x="111" y="643"/>
		</contour>
		<contour>
			<point x="206" y="368" type="curve"/>
			<point x="274" y="446"/>
			<point x="326" y="479"/>
			<point x="370" y="479" type="curve" smooth="yes"/>
			<point x="458" y="479"/>
			<point x="499" y="385"/>
			<point x="498" y="296" type="curve" smooth="yes"/>
			<point x="497" y="194"/>
			<point x="450" y="125"/>
			<point x="370" y="125" type="curve" smooth="yes"/>
			<point x="284" y="125"/>
			<point x="215" y="191"/>
		</contour>
	</outline>
</glyph>
<glyph name="seven" format="2">
	<advance width="700"/>
	<unicode hex="0037"/>
	<outline>
		<contour>
			<point x="96" y="700" type="line" smooth="yes"/>
			<point x="62" y="700"/>
			<point x="65" y="676"/>
			<point x="65" y="669" type="curve" smooth="yes"/>
			<point x="60" y="532" type="line" smooth="yes"/>
			<point x="59" y="516"/>
			<point x="68" y="505"/>
			<point x="84" y="505" type="curve" smooth="yes"/>
			<point x="99" y="505"/>
			<point x="105" y="514"/>
			<point x="108" y="532" type="curve" smooth="yes"/>
			<point x="122" y="610" type="line"/>
			<point x="467" y="610" type="line"/>
			<point x="339" y="475"/>
			<point x="222" y="163"/>
			<point x="222" y="-6" type="curve" smooth="yes"/>
			<point x="222" y="-81"/>
			<point x="251" y="-90"/>
			<point x="276" y="-90" type="curve" smooth="yes"/>
			<point x="311" y="-90"/>
			<point x="328" y="-69"/>
			<point x="328" y="-38" type="curve" smooth="yes"/>
			<point x="328" y="417"/>
			<point x="493" y="567"/>
			<point x="555" y="629" type="curve" smooth="yes"/>
			<point x="576" y="650"/>
			<point x="592" y="662"/>
			<point x="591" y="680" type="curve" smooth="yes"/>
			<point x="589" y="704"/>
			<point x="565" y="700"/>
			<point x="544" y="700" type="curve"/>
		</contour>
	</outline>
</glyph>
<glyph name="eight" format="2">
	<advance width="700"/>
	<unicode hex="0038"/>
	<outline>
		<contour>
			<point x="270" y="488" type="curve"/>
			<point x="154" y="447"/>
			<point x="100" y="365"/>
			<point x="100" y="271" type="curve" smooth="yes"/>
			<point x="100" y="151"/>
			<point x="207" y="75"/>
			<point x="344" y="75" type="curve" smooth="yes"/>
			<point x="505" y="75"/>
			<point x="600" y="153"/>
			<point x="600" y="285" type="curve" smooth="yes"/>
			<point x="600" y="376"/>
			<point x="525" y="454"/>
			<point x="418" y="503" type="curve"/>
			<point x="493" y="527"/>
			<point x="561" y="614"/>
			<point x="561" y="681" type="curve" smooth="yes"/>
			<point x="561" y="779"/>
			<point x="486" y="870"/>
			<point x="355" y="870" type="curve" smooth="yes"/>
			<point x="220" y="870"/>
			<point x="135" y="780"/>
			<point x="139" y="663" type="curve" smooth="yes"/>
			<point x="141" y="602"/>
			<point x="192" y="528"/>
		</contour>
		<contour>
			<point x="319" y="453" type="curve"/>
			<point x="464" y="385"/>
			<point x="500" y="319"/>
			<point x="500" y="258" type="curve" smooth="yes"/>
			<point x="500" y="174"/>
			<point x="443" y="122"/>
			<point x="360" y="121" type="curve" smooth="yes"/>
			<point x="273" y="120"/>
			<point x="200" y="182"/>
			<point x="200" y="269" type="curve" smooth="yes"/>
			<point x="200" y="358"/>
			<point x="240" y="423"/>
		</contour>
		<contour>
			<point x="357" y="535" type="curve"/>
			<point x="256" y="597"/>
			<point x="229" y="633"/>
			<point x="229" y="695" type="curve" smooth="yes"/>
			<point x="229" y="747"/>
			<point x="264" y="824"/>
			<point x="351" y="824" type="curve" smooth="yes"/>
			<point x="440" y="824"/>
			<point x="470" y="745"/>
			<point x="470" y="688" type="curve" smooth="yes"/>
			<point x="470" y="624"/>
			<point x="420" y="558"/>
		</contour>
	</outline>
</glyph>
<glyph name="nine" format="2">
	<advance width="700"/>
	<unicode hex="0039"/>
	<outline>
		<contour>
			<point x="92" y="496" type="curve" smooth="yes"/>
			<point x="92" y="358"/>
			<point x="200" y="276"/>
			<point x="319" y="276" type="curve" smooth="yes"/>
			<point x="377" y="276"/>
			<point x="432" y="302"/>
			<point x="493" y="357" type="curve"/>
			<point x="480" y="205"/>
			<point x="393" y="1"/>
			<point x="232" y="-35" type="curve" smooth="yes"/>
			<point x="205" y="-41"/>
			<point x="175" y="-41"/>
			<point x="178" y="-67" type="curve" smooth="yes"/>
			<point x="181" y="-91"/>
			<point x="215" y="-87"/>
			<point x="232" y="-84" type="curve" smooth="yes"/>
			<point x="419" y="-51"/>
			<point x="589" y="162"/>
			<point x="605" y="396" type="curve" smooth="yes"/>
			<point x="621" y="629"/>
			<point x="480" y="730"/>
			<point x="341" y="730" type="curve" smooth="yes"/>
			<point x="208" y="730"/>
			<point x="92" y="641"/>
		</contour>
		<contour>
			<point x="202" y="509" type="curve" smooth="yes"/>
			<point x="203" y="611"/>
			<point x="250" y="680"/>
			<point x="330" y="680" type="curve" smooth="yes"/>
			<point x="416" y="680"/>
			<point x="485" y="614"/>
			<point x="494" y="435" type="curve"/>
			<point x="428" y="356"/>
			<point x="373" y="326"/>
			<point x="330" y="326" type="curve" smooth="yes"/>
			<point x="242" y="326"/>
			<point x="201" y="420"/>
		</contour>
	</outline>
</glyph>
<glyph name="colon" format="2">
	<advance width="700"/>
	<unicode hex="003A"/>
	<outline>
		<contour>
			<point x="350" y="318" type="curve" smooth="yes"/>
			<point x="400" y="318"/>
			<point x="440" y="359"/>
			<point x="440" y="409" type="curve" smooth="yes"/>
			<point x="440" y="459"/>
			<point x="400" y="500"/>
			<point x="350" y="500" type="curve" smooth="yes"/>
			<point x="300" y="500"/>
			<point x="259" y="459"/>
			<point x="259" y="409" type="curve" smooth="yes"/>
			<point x="259" y="359"/>
			<point x="300" y="318"/>
		</contour>
		<contour>
			<point x="350" y="-10" type="curve" smooth="yes"/>
			<point x="400" y="-10"/>
			<point x="440" y="31"/>
			<point x="440" y="82" type="curve" smooth="yes"/>
			<point x="440" y="131"/>
			<point x="400" y="172"/>
			<point x="350" y="172" type="curve" smooth="yes"/>
			<point x="300" y="172"/>
			<point x="259" y="131"/>
			<point x="259" y="82" type="curve" smooth="yes"/>
			<point x="259" y="31"/>
			<point x="300" y="-10"/>
		</contour>
	</outline>
</glyph>
<glyph name="less" format="2">
	<advance width="700"/>
	<unicode hex="003C"/>
	<outline>
		<contour>
			<point x="183" y="231" type="curve" smooth="yes"/>
			<point x="494" y="104" type="line" smooth="yes"/>
			<point x="510" y="97"/>
			<point x="521" y="90"/>
			<point x="533" y="102" type="curve" smooth="yes"/>
			<point x="544" y="113"/>
			<point x="545" y="134"/>
			<point x="530" y="140" type="curve" smooth="yes"/>
			<point x="218" y="261" type="line"/>
			<point x="528" y="381" type="line" smooth="yes"/>
			<point x="543" y="387"/>
			<point x="542" y="407"/>
			<point x="530" y="419" type="curve"/>
			<point x="521" y="430"/>
			<point x="507" y="422"/>
			<point x="492" y="416" type="curve" smooth="yes"/>
			<point x="183" y="291" type="line" smooth="yes"/>
			<point x="170" y="286"/>
			<point x="158" y="277"/>
			<point x="158" y="262" type="curve" smooth="yes"/>
			<point x="158" y="247"/>
			<point x="170" y="236"/>
		</contour>
	</outline>
</glyph>
<glyph name="equal" format="2">
	<advance width="700"/>
	<unicode hex="003D"/>
	<outline>
		<contour>
			<point x="575" y="328" type="curve" smooth="yes"/>
			<point x="124" y="328" type="line" smooth="yes"/>
			<point x="109" y="328"/>
			<point x="97" y="338"/>
			<point x="97" y="353" type="curve" smooth="yes"/>
			<point x="97" y="368"/>
			<point x="109" y="378"/>
			<point x="124" y="378" type="curve" smooth="yes"/>
			<point x="575" y="378" type="line" smooth="yes"/>
			<point x="590" y="378"/>
			<point x="602" y="368"/>
			<point x="602" y="353" type="curve" smooth="yes"/>
			<point x="602" y="338"/>
			<point x="590" y="328"/>
		</contour>
		<contour>
			<point x="575" y="128" type="curve" smooth="yes"/>
			<point x="124" y="128" type="line" smooth="yes"/>
			<point x="109" y="128"/>
			<point x="97" y="138"/>
			<point x="97" y="153" type="curve" smooth="yes"/>
			<point x="97" y="168"/>
			<point x="109" y="178"/>
			<point x="124" y="178" type="curve" smooth="yes"/>
			<point x="575" y="178" type="line" smooth="yes"/>
			<point x="590" y="178"/>
			<point x="602" y="168"/>
			<point x="602" y="153" type="curve" smooth="yes"/>
			<point x="602" y="138"/>
			<point x="590" y="128"/>
		</contour>
	</outline>
</glyph>
<glyph name="greater" format="2">
	<advance width="700"/>
	<unicode hex="003E"/>
	<outline>
		<contour>
			<point x="518" y="231" type="line" smooth="yes"/>
			<point x="531" y="236"/>
			<point x="543" y="247"/>
			<point x="543" y="262" type="curve" smooth="yes"/>
			<point x="543" y="277"/>
			<point x="531" y="286"/>
			<point x="518" y="291" type="curve" smooth="yes"/>
			<point x="209" y="416" type="line" smooth="yes"/>
			<point x="194" y="422"/>
			<point x="180" y="430"/>
			<point x="171" y="419" type="curve"/>
			<point x="159" y="407"/>
			<point x="158" y="387"/>
			<point x="173" y="381" type="curve" smooth="yes"/>
			<point x="483" y="261" type="line"/>
			<point x="171" y="140" type="line" smooth="yes"/>
			<point x="156" y="134"/>
			<point x="157" y="113"/>
			<point x="168" y="102" type="curve" smooth="yes"/>
			<point x="180" y="90"/>
			<point x="191" y="97"/>
			<point x="207" y="104" type="curve" smooth="yes"/>
		</contour>
	</outline>
</glyph>
<glyph name="question" format="2">
	<advance width="700"/>
	<unicode hex="003F"/>
	<outline>
		<contour>
			<point x="334" y="113" type="curve" smooth="yes"/>
			<point x="302" y="113"/>
			<point x="275" y="89"/>
			<point x="275" y="57" type="curve" smooth="yes"/>
			<point x="275" y="24"/>
			<point x="302" y="0"/>
			<point x="334" y="0" type="curve" smooth="yes"/>
			<point x="367" y="0"/>
			<point x="394" y="24"/>
			<point x="394" y="57" type="curve" smooth="yes"/>
			<point x="394" y="89"/>
			<point x="367" y="113"/>
		</contour>
		<contour>
			<point x="337" y="730" type="curve" smooth="yes"/>
			<point x="440" y="730"/>
			<point x="536" y="677"/>
			<point x="536" y="579" type="curve" smooth="yes"/>
			<point x="536" y="476"/>
			<point x="468" y="450"/>
			<point x="398" y="385" type="curve" smooth="yes"/>
			<point x="362" y="352"/>
			<point x="360" y="326"/>
			<point x="360" y="245" type="curve" smooth="yes"/>
			<point x="360" y="226" type="line" smooth="yes"/>
			<point x="360" y="208"/>
			<point x="349" y="198"/>
			<point x="335" y="198" type="curve" smooth="yes"/>
			<point x="321" y="198"/>
			<point x="310" y="208"/>
			<point x="310" y="225" type="curve" smooth="yes"/>
			<point x="310" y="305" type="line" smooth="yes"/>
			<point x="310" y="359"/>
			<point x="331" y="379"/>
			<point x="373" y="424" type="curve" smooth="yes"/>
			<point x="425" y="480"/>
			<point x="436" y="520"/>
			<point x="436" y="579" type="curve" smooth="yes"/>
			<point x="436" y="642"/>
			<point x="396" y="680"/>
			<point x="327" y="680" type="curve" smooth="yes"/>
			<point x="253" y="680"/>
			<point x="228" y="642"/>
			<point x="228" y="642" type="curve"/>
			<point x="226" y="649"/>
			<point x="243" y="591"/>
			<point x="247" y="573" type="curve" smooth="yes"/>
			<point x="252" y="551"/>
			<point x="244" y="509"/>
			<point x="205" y="500" type="curve" smooth="yes"/>
			<point x="169" y="492"/>
			<point x="131" y="502"/>
			<point x="118" y="552" type="curve" smooth="yes"/>
			<point x="100" y="623"/>
			<point x="182" y="730"/>
		</contour>
	</outline>
</glyph>
<glyph name="at" format="2">
	<advance width="700"/>
	<unicode hex="0040"/>
	<outline>
		<contour>
			<point x="166" y="334" type="curve" smooth="yes"/>
			<point x="150" y="212"/>
			<point x="211" y="129"/>
			<point x="306" y="129" type="curve" smooth="yes"/>
			<point x="354" y="129"/>
			<point x="399" y="150"/>
			<point x="434" y="186" type="curve"/>
			<point x="432" y="157"/>
			<point x="452" y="107"/>
			<point x="518" y="108" type="curve" smooth="yes"/>
			<point x="601" y="109"/>
			<point x="668" y="231"/>
			<point x="668" y="347" type="curve" smooth="yes"/>
			<point x="668" y="533"/>
			<point x="526" y="674"/>
			<point x="349" y="674" type="curve" smooth="yes"/>
			<point x="173" y="674"/>
			<point x="31" y="514"/>
			<point x="31" y="337" type="curve" smooth="yes"/>
			<point x="31" y="161"/>
			<point x="173" y="0"/>
			<point x="349" y="0" type="curve" smooth="yes"/>
			<point x="402" y="0"/>
			<point x="476" y="17"/>
			<point x="463" y="48" type="curve" smooth="yes"/>
			<point x="458" y="60"/>
			<point x="451" y="62"/>
			<point x="439" y="61" type="curve" smooth="yes"/>
			<point x="421" y="60"/>
			<point x="394" y="50"/>
			<point x="349" y="50" type="curve" smooth="yes"/>
			<point x="195" y="50"/>
			<point x="81" y="191"/>
			<point x="81" y="336" type="curve" smooth="yes"/>
			<point x="81" y="482"/>
			<point x="194" y="624"/>
			<point x="349" y="624" type="curve" smooth="yes"/>
			<point x="504" y="624"/>
			<point x="618" y="502"/>
			<point x="618" y="346" type="curve" smooth="yes"/>
			<point x="618" y="268"/>
			<point x="583" y="159"/>
			<point x="521" y="157" type="curve" smooth="yes"/>
			<point x="491" y="156"/>
			<point x="478" y="172"/>
			<point x="484" y="216" type="curve" smooth="yes"/>
			<point x="520" y="488" type="line" smooth="yes"/>
			<point x="522" y="502"/>
			<point x="513" y="516"/>
			<point x="496" y="516" type="curve" smooth="yes"/>
			<point x="485" y="516"/>
			<point x="474" y="510"/>
			<point x="471" y="489" type="curve"/>
			<point x="470" y="484" type="line"/>
			<point x="445" y="520"/>
			<point x="406" y="541"/>
			<point x="358" y="541" type="curve" smooth="yes"/>
			<point x="263" y="541"/>
			<point x="182" y="458"/>
		</contour>
		<contour>
			<point x="252" y="334" type="curve" smooth="yes"/>
			<point x="265" y="429"/>
			<point x="297" y="501"/>
			<point x="358" y="501" type="curve" smooth="yes"/>
			<point x="431" y="501"/>
			<point x="426" y="429"/>
			<point x="413" y="334" type="curve" smooth="yes"/>
			<point x="400" y="238"/>
			<point x="368" y="168"/>
			<point x="306" y="168" type="curve" smooth="yes"/>
			<point x="244" y="168"/>
			<point x="239" y="238"/>
		</contour>
	</outline>
</glyph>
<glyph name="B" format="2">
	<advance width="700"/>
	<unicode hex="0042"/>
	<outline>
		<contour>
			<point x="89" y="0" type="curve" smooth="yes"/>
			<point x="434" y="0" type="line" smooth="yes"/>
			<point x="547" y="0"/>
			<point x="648" y="86"/>
			<point x="648" y="205" type="curve" smooth="yes"/>
			<point x="648" y="330"/>
			<point x="545" y="374"/>
			<point x="516" y="381" type="curve" smooth="yes"/>
			<point x="488" y="388" type="line"/>
			<point x="516" y="399" type="line" smooth="yes"/>
			<point x="544" y="410"/>
			<point x="614" y="449"/>
			<point x="614" y="555" type="curve" smooth="yes"/>
			<point x="614" y="667"/>
			<point x="514" y="730"/>
			<point x="394" y="730" type="curve" smooth="yes"/>
			<point x="89" y="730" type="line" smooth="yes"/>
			<point x="72" y="730"/>
			<point x="60" y="720"/>
			<point x="60" y="705" type="curve" smooth="yes"/>
			<point x="60" y="692"/>
			<point x="71" y="681"/>
			<point x="89" y="679" type="curve"/>
			<point x="160" y="671" type="line"/>
			<point x="160" y="50" type="line"/>
			<point x="89" y="50" type="line" smooth="yes"/>
			<point x="71" y="50"/>
			<point x="60" y="40"/>
			<point x="60" y="25" type="curve" smooth="yes"/>
			<point x="60" y="10"/>
			<point x="71" y="0"/>
		</contour>
		<contour>
			<point x="260" y="410" type="line"/>
			<point x="260" y="680" type="line"/>
			<point x="403" y="680" type="line" smooth="yes"/>
			<point x="443" y="680"/>
			<point x="514" y="649"/>
			<point x="514" y="555" type="curve" smooth="yes"/>
			<point x="514" y="458"/>
			<point x="441" y="410"/>
			<point x="403" y="410" type="curve" smooth="yes"/>
		</contour>
		<contour>
			<point x="260" y="50" type="line"/>
			<point x="260" y="360" type="line"/>
			<point x="403" y="360" type="line" smooth="yes"/>
			<point x="484" y="360"/>
			<point x="548" y="306"/>
			<point x="548" y="205" type="curve" smooth="yes"/>
			<point x="548" y="126"/>
			<point x="508" y="50"/>
			<point x="403" y="50" type="curve" smooth="yes"/>
		</contour>
	</outline>
</glyph>
<glyph name="C" format="2">
	<advance width="700"/>
	<unicode hex="0043"/>
	<outline>
		<contour>
			<point x="369" y="730" type="curve" smooth="yes"/>
			<point x="220" y="730"/>
			<point x="86" y="617"/>
			<point x="86" y="365" type="curve" smooth="yes"/>
			<point x="86" y="113"/>
			<point x="220" y="0"/>
			<point x="369" y="0" type="curve" smooth="yes"/>
			<point x="502" y="0"/>
			<point x="569" y="108"/>
			<point x="604" y="232" type="curve" smooth="yes"/>
			<point x="613" y="264"/>
			<point x="599" y="276"/>
			<point x="582" y="279" type="curve" smooth="yes"/>
			<point x="562" y="283"/>
			<point x="553" y="265"/>
			<point x="546" y="249" type="curve" smooth="yes"/>
			<point x="526" y="201" type="line" smooth="yes"/>
			<point x="489" y="111"/>
			<point x="438" y="50"/>
			<point x="369" y="50" type="curve" smooth="yes"/>
			<point x="249" y="50"/>
			<point x="196" y="192"/>
			<point x="196" y="365" type="curve" smooth="yes"/>
			<point x="196" y="537"/>
			<point x="249" y="680"/>
			<point x="359" y="680" type="curve" smooth="yes"/>
			<point x="467" y="680"/>
			<point x="499" y="595"/>
			<point x="536" y="478" type="curve" smooth="yes"/>
			<point x="541" y="462"/>
			<point x="546" y="449"/>
			<point x="566" y="449" type="curve" smooth="yes"/>
			<point x="582" y="449"/>
			<point x="595" y="460"/>
			<point x="595" y="478" type="curve"/>
			<point x="595" y="701" type="line" smooth="yes"/>
			<point x="595" y="718"/>
			<point x="585" y="730"/>
			<point x="570" y="730" type="curve" smooth="yes"/>
			<point x="557" y="730"/>
			<point x="546" y="720"/>
			<point x="544" y="701" type="curve" smooth="yes"/>
			<point x="540" y="649" type="line"/>
			<point x="501" y="690"/>
			<point x="447" y="730"/>
		</contour>
	</outline>
</glyph>
<glyph name="D" format="2">
	<advance width="700"/>
	<unicode hex="0044"/>
	<outline>
		<contour>
			<point x="257" y="50" type="line"/>
			<point x="386" y="50" type="line" smooth="yes"/>
			<point x="488" y="50"/>
			<point x="558" y="185"/>
			<point x="558" y="362" type="curve" smooth="yes"/>
			<point x="558" y="534"/>
			<point x="492" y="680"/>
			<point x="385" y="680" type="curve" smooth="yes"/>
			<point x="258" y="680" type="line"/>
		</contour>
		<contour>
			<point x="67" y="730" type="curve" smooth="yes"/>
			<point x="385" y="730" type="line" smooth="yes"/>
			<point x="495" y="730"/>
			<point x="658" y="628"/>
			<point x="658" y="362" type="curve" smooth="yes"/>
			<point x="658" y="70"/>
			<point x="492" y="0"/>
			<point x="386" y="0" type="curve" smooth="yes"/>
			<point x="67" y="0" type="line" smooth="yes"/>
			<point x="49" y="0"/>
			<point x="38" y="10"/>
			<point x="38" y="25" type="curve" smooth="yes"/>
			<point x="38" y="40"/>
			<point x="49" y="50"/>
			<point x="67" y="50" type="curve" smooth="yes"/>
			<point x="157" y="50" type="line"/>
			<point x="157" y="680" type="line"/>
			<point x="67" y="680" type="line" smooth="yes"/>
			<point x="49" y="680"/>
			<point x="38" y="690"/>
			<point x="38" y="705" type="curve" smooth="yes"/>
			<point x="38" y="720"/>
			<point x="49" y="730"/>
		</contour>
	</outline>
</glyph>
<glyph name="E" format="2">
	<advance width="700"/>
	<unicode hex="0045"/>
	<outline>
		<contour>
			<point x="273" y="50" type="line"/>
			<point x="273" y="354" type="line"/>
			<point x="356" y="354" type="line" smooth="yes"/>
			<point x="409" y="354"/>
			<point x="422" y="325"/>
			<point x="429" y="286" type="curve" smooth="yes"/>
			<point x="434" y="257" type="line" smooth="yes"/>
			<point x="437" y="240"/>
			<point x="442" y="228"/>
			<point x="459" y="228" type="curve" smooth="yes"/>
			<point x="476" y="228"/>
			<point x="484" y="240"/>
			<point x="484" y="257" type="curve" smooth="yes"/>
			<point x="484" y="491" type="line" smooth="yes"/>
			<point x="484" y="508"/>
			<point x="476" y="520"/>
			<point x="459" y="520" type="curve" smooth="yes"/>
			<point x="442" y="520"/>
			<point x="437" y="508"/>
			<point x="434" y="491" type="curve" smooth="yes"/>
			<point x="429" y="462" type="line" smooth="yes"/>
			<point x="422" y="423"/>
			<point x="409" y="404"/>
			<point x="356" y="404" type="curve" smooth="yes"/>
			<point x="273" y="404" type="line"/>
			<point x="273" y="680" type="line"/>
			<point x="463" y="680" type="line" smooth="yes"/>
			<point x="560" y="680"/>
			<point x="573" y="591"/>
			<point x="579" y="550" type="curve"/>
			<point x="583" y="494" type="line" smooth="yes"/>
			<point x="584" y="476"/>
			<point x="591" y="464"/>
			<point x="609" y="464" type="curve" smooth="yes"/>
			<point x="627" y="464"/>
			<point x="636" y="476"/>
			<point x="635" y="494" type="curve" smooth="yes"/>
			<point x="619" y="699" type="line" smooth="yes"/>
			<point x="618" y="716"/>
			<point x="610" y="730"/>
			<point x="592" y="730" type="curve" smooth="yes"/>
			<point x="85" y="730" type="line" smooth="yes"/>
			<point x="68" y="730"/>
			<point x="56" y="720"/>
			<point x="56" y="705" type="curve" smooth="yes"/>
			<point x="56" y="692"/>
			<point x="66" y="681"/>
			<point x="85" y="679" type="curve" smooth="yes"/>
			<point x="173" y="671" type="line"/>
			<point x="173" y="50" type="line"/>
			<point x="85" y="50" type="line" smooth="yes"/>
			<point x="67" y="50"/>
			<point x="56" y="40"/>
			<point x="56" y="25" type="curve" smooth="yes"/>
			<point x="56" y="10"/>
			<point x="67" y="0"/>
			<point x="85" y="0" type="curve"/>
			<point x="592" y="0" type="line"/>
			<point x="610" y="0"/>
			<point x="618" y="14"/>
			<point x="619" y="31" type="curve" smooth="yes"/>
			<point x="635" y="236" type="line" smooth="yes"/>
			<point x="636" y="254"/>
			<point x="627" y="266"/>
			<point x="609" y="266" type="curve" smooth="yes"/>
			<point x="591" y="266"/>
			<point x="584" y="254"/>
			<point x="583" y="236" type="curve" smooth="yes"/>
			<point x="579" y="180" type="line"/>
			<point x="573" y="139"/>
			<point x="560" y="52"/>
			<point x="463" y="50" type="curve"/>
		</contour>
	</outline>
</glyph>
<glyph name="F" format="2">
	<advance width="700"/>
	<unicode hex="0046"/>
	<outline>
		<contour>
			<point x="290" y="421" type="line"/>
			<point x="290" y="680" type="line"/>
			<point x="487" y="680" type="line" smooth="yes"/>
			<point x="535" y="680"/>
			<point x="559" y="629"/>
			<point x="572" y="579" type="curve"/>
			<point x="584" y="533"/>
			<point x="586" y="487"/>
			<point x="587" y="479" type="curve"/>
			<point x="588" y="463"/>
			<point x="599" y="451"/>
			<point x="614" y="452" type="curve" smooth="yes"/>
			<point x="627" y="453"/>
			<point x="638" y="465"/>
			<point x="637" y="483" type="curve"/>
			<point x="625" y="691" type="line"/>
			<point x="624" y="728"/>
			<point x="602" y="730"/>
			<point x="581" y="730" type="curve" smooth="yes"/>
			<point x="98" y="730" type="line" smooth="yes"/>
			<point x="81" y="730"/>
			<point x="69" y="720"/>
			<point x="69" y="705" type="curve" smooth="yes"/>
			<point x="69" y="692"/>
			<point x="80" y="681"/>
			<point x="98" y="679" type="curve" smooth="yes"/>
			<point x="190" y="669" type="line"/>
			<point x="190" y="50" type="line"/>
			<point x="96" y="50" type="line" smooth="yes"/>
			<point x="78" y="50"/>
			<point x="67" y="40"/>
			<point x="67" y="25" type="curve" smooth="yes"/>
			<point x="67" y="10"/>
			<point x="78" y="0"/>
			<point x="96" y="0" type="curve" smooth="yes"/>
			<point x="383" y="0" type="line" smooth="yes"/>
			<point x="401" y="0"/>
			<point x="412" y="10"/>
			<point x="412" y="25" type="curve" smooth="yes"/>
			<point x="412" y="40"/>
			<point x="401" y="50"/>
			<point x="383" y="50" type="curve" smooth="yes"/>
			<point x="290" y="50" type="line"/>
			<point x="290" y="371" type="line"/>
			<point x="379" y="371" type="line" smooth="yes"/>
			<point x="432" y="371"/>
			<point x="445" y="342"/>
			<point x="452" y="303" type="curve" smooth="yes"/>
			<point x="457" y="274" type="line" smooth="yes"/>
			<point x="460" y="257"/>
			<point x="465" y="245"/>
			<point x="482" y="245" type="curve" smooth="yes"/>
			<point x="499" y="245"/>
			<point x="507" y="257"/>
			<point x="507" y="274" type="curve" smooth="yes"/>
			<point x="507" y="518" type="line" smooth="yes"/>
			<point x="507" y="535"/>
			<point x="499" y="547"/>
			<point x="482" y="547" type="curve" smooth="yes"/>
			<point x="465" y="547"/>
			<point x="460" y="535"/>
			<point x="457" y="518" type="curve" smooth="yes"/>
			<point x="452" y="489" type="line" smooth="yes"/>
			<point x="445" y="450"/>
			<point x="432" y="421"/>
			<point x="379" y="421" type="curve" smooth="yes"/>
		</contour>
	</outline>
</glyph>
<glyph name="G" format="2">
	<advance width="700"/>
	<unicode hex="0047"/>
	<outline>
		<contour>
			<point x="68" y="365" type="curve" smooth="yes"/>
			<point x="68" y="113"/>
			<point x="192" y="0"/>
			<point x="341" y="0" type="curve" smooth="yes"/>
			<point x="427" y="0"/>
			<point x="496" y="45"/>
			<point x="532" y="106" type="curve"/>
			<point x="531" y="30" type="line" smooth="yes"/>
			<point x="531" y="13"/>
			<point x="540" y="-1"/>
			<point x="558" y="-1" type="curve" smooth="yes"/>
			<point x="576" y="-1"/>
			<point x="585" y="13"/>
			<point x="585" y="30" type="curve" smooth="yes"/>
			<point x="583" y="298" type="line"/>
			<point x="645" y="298" type="line" smooth="yes"/>
			<point x="663" y="298"/>
			<point x="674" y="308"/>
			<point x="674" y="323" type="curve" smooth="yes"/>
			<point x="674" y="336"/>
			<point x="663" y="348"/>
			<point x="645" y="348" type="curve" smooth="yes"/>
			<point x="441" y="348" type="line" smooth="yes"/>
			<point x="423" y="348"/>
			<point x="412" y="340"/>
			<point x="412" y="323" type="curve" smooth="yes"/>
			<point x="412" y="306"/>
			<point x="423" y="298"/>
			<point x="441" y="298" type="curve" smooth="yes"/>
			<point x="513" y="298" type="line"/>
			<point x="511" y="154"/>
			<point x="436" y="50"/>
			<point x="341" y="50" type="curve" smooth="yes"/>
			<point x="228" y="50"/>
			<point x="178" y="192"/>
			<point x="178" y="365" type="curve" smooth="yes"/>
			<point x="178" y="537"/>
			<point x="228" y="680"/>
			<point x="341" y="680" type="curve" smooth="yes"/>
			<point x="439" y="680"/>
			<point x="481" y="595"/>
			<point x="518" y="478" type="curve" smooth="yes"/>
			<point x="523" y="462"/>
			<point x="528" y="449"/>
			<point x="548" y="449" type="curve" smooth="yes"/>
			<point x="564" y="449"/>
			<point x="577" y="460"/>
			<point x="577" y="478" type="curve" smooth="yes"/>
			<point x="577" y="701" type="line" smooth="yes"/>
			<point x="577" y="718"/>
			<point x="567" y="730"/>
			<point x="552" y="730" type="curve" smooth="yes"/>
			<point x="539" y="730"/>
			<point x="527" y="720"/>
			<point x="526" y="701" type="curve" smooth="yes"/>
			<point x="522" y="649" type="line"/>
			<point x="483" y="690"/>
			<point x="419" y="730"/>
			<point x="351" y="730" type="curve" smooth="yes"/>
			<point x="192" y="730"/>
			<point x="68" y="617"/>
		</contour>
	</outline>
</glyph>
<glyph name="H" format="2">
	<advance width="700"/>
	<unicode hex="0048"/>
	<outline>
		<contour>
			<point x="219" y="408" type="line"/>
			<point x="219" y="680" type="line"/>
			<point x="271" y="680" type="line" smooth="yes"/>
			<point x="289" y="680"/>
			<point x="300" y="690"/>
			<point x="300" y="705" type="curve" smooth="yes"/>
			<point x="300" y="720"/>
			<point x="289" y="730"/>
			<point x="271" y="730" type="curve" smooth="yes"/>
			<point x="72" y="730" type="line" smooth="yes"/>
			<point x="54" y="730"/>
			<point x="43" y="720"/>
			<point x="43" y="705" type="curve" smooth="yes"/>
			<point x="43" y="690"/>
			<point x="54" y="680"/>
			<point x="72" y="680" type="curve" smooth="yes"/>
			<point x="119" y="680" type="line"/>
			<point x="119" y="50" type="line"/>
			<point x="72" y="50" type="line" smooth="yes"/>
			<point x="54" y="50"/>
			<point x="43" y="40"/>
			<point x="43" y="25" type="curve" smooth="yes"/>
			<point x="43" y="10"/>
			<point x="54" y="0"/>
			<point x="72" y="0" type="curve" smooth="yes"/>
			<point x="271" y="0" type="line" smooth="yes"/>
			<point x="289" y="0"/>
			<point x="300" y="10"/>
			<point x="300" y="25" type="curve" smooth="yes"/>
			<point x="300" y="40"/>
			<point x="289" y="50"/>
			<point x="271" y="50" type="curve" smooth="yes"/>
			<point x="219" y="50" type="line"/>
			<point x="219" y="358" type="line"/>
			<point x="480" y="358" type="line"/>
			<point x="480" y="50" type="line"/>
			<point x="428" y="50" type="line" smooth="yes"/>
			<point x="410" y="50"/>
			<point x="399" y="40"/>
			<point x="399" y="25" type="curve" smooth="yes"/>
			<point x="399" y="10"/>
			<point x="410" y="0"/>
			<point x="428" y="0" type="curve" smooth="yes"/>
			<point x="628" y="0" type="line" smooth="yes"/>
			<point x="646" y="0"/>
			<point x="657" y="8"/>
			<point x="657" y="25" type="curve" smooth="yes"/>
			<point x="657" y="42"/>
			<point x="646" y="50"/>
			<point x="628" y="50" type="curve" smooth="yes"/>
			<point x="580" y="50" type="line"/>
			<point x="580" y="680" type="line"/>
			<point x="627" y="680" type="line" smooth="yes"/>
			<point x="645" y="680"/>
			<point x="656" y="688"/>
			<point x="656" y="705" type="curve" smooth="yes"/>
			<point x="656" y="722"/>
			<point x="645" y="730"/>
			<point x="627" y="730" type="curve" smooth="yes"/>
			<point x="428" y="730" type="line" smooth="yes"/>
			<point x="410" y="730"/>
			<point x="399" y="720"/>
			<point x="399" y="705" type="curve" smooth="yes"/>
			<point x="399" y="690"/>
			<point x="410" y="680"/>
			<point x="428" y="680" type="curve" smooth="yes"/>
			<point x="480" y="680" type="line"/>
			<point x="480" y="408" type="line"/>
		</contour>
	</outline>
</glyph>
<glyph name="I" format="2">
	<advance width="700"/>
	<unicode hex="0049"/>
	<outline>
		<contour>
			<point x="402" y="50" type="line"/>
			<point x="402" y="680" type="line"/>
			<point x="540" y="680" type="line" smooth="yes"/>
			<point x="558" y="680"/>
			<point x="569" y="690"/>
			<point x="569" y="705" type="curve" smooth="yes"/>
			<point x="569" y="720"/>
			<point x="558" y="730"/>
			<point x="540" y="730" type="curve" smooth="yes"/>
			<point x="160" y="730" type="line" smooth="yes"/>
			<point x="142" y="730"/>
			<point x="131" y="720"/>
			<point x="131" y="705" type="curve" smooth="yes"/>
			<point x="131" y="690"/>
			<point x="142" y="680"/>
			<point x="160" y="680" type="curve" smooth="yes"/>
			<point x="302" y="680" type="line"/>
			<point x="302" y="50" type="line"/>
			<point x="161" y="50" type="line" smooth="yes"/>
			<point x="142" y="50"/>
			<point x="131" y="40"/>
			<point x="131" y="25" type="curve" smooth="yes"/>
			<point x="131" y="10"/>
			<point x="142" y="0"/>
			<point x="161" y="0" type="curve"/>
			<point x="541" y="0" type="line"/>
			<point x="560" y="0"/>
			<point x="571" y="10"/>
			<point x="571" y="25" type="curve" smooth="yes"/>
			<point x="571" y="40"/>
			<point x="560" y="50"/>
			<point x="541" y="50" type="curve" smooth="yes"/>
		</contour>
	</outline>
</glyph>
<glyph name="J" format="2">
	<advance width="700"/>
	<unicode hex="004A"/>
	<outline>
		<contour>
			<point x="467" y="263" type="curve" smooth="yes"/>
			<point x="467" y="680" type="line"/>
			<point x="605" y="680" type="line" smooth="yes"/>
			<point x="623" y="680"/>
			<point x="634" y="690"/>
			<point x="634" y="705" type="curve" smooth="yes"/>
			<point x="634" y="720"/>
			<point x="623" y="730"/>
			<point x="605" y="730" type="curve" smooth="yes"/>
			<point x="225" y="730" type="line" smooth="yes"/>
			<point x="207" y="730"/>
			<point x="196" y="720"/>
			<point x="196" y="705" type="curve" smooth="yes"/>
			<point x="196" y="690"/>
			<point x="207" y="680"/>
			<point x="225" y="680" type="curve" smooth="yes"/>
			<point x="367" y="680" type="line"/>
			<point x="367" y="263" type="line" smooth="yes"/>
			<point x="367" y="166"/>
			<point x="367" y="45"/>
			<point x="263" y="45" type="curve" smooth="yes"/>
			<point x="205" y="45"/>
			<point x="177" y="60"/>
			<point x="152" y="94" type="curve"/>
			<point x="152" y="94"/>
			<point x="179" y="158"/>
			<point x="187" y="174" type="curve" smooth="yes"/>
			<point x="199" y="200"/>
			<point x="205" y="237"/>
			<point x="159" y="257" type="curve" smooth="yes"/>
			<point x="131" y="269"/>
			<point x="92" y="256"/>
			<point x="75" y="220" type="curve" smooth="yes"/>
			<point x="43" y="153"/>
			<point x="94" y="0"/>
			<point x="263" y="0" type="curve" smooth="yes"/>
			<point x="478" y="0"/>
			<point x="466" y="186"/>
		</contour>
	</outline>
</glyph>
<glyph name="K" format="2">
	<advance width="700"/>
	<unicode hex="004B"/>
	<outline>
		<contour>
			<point x="280" y="0" type="line"/>
			<point x="297" y="0"/>
			<point x="308" y="10"/>
			<point x="308" y="25" type="curve" smooth="yes"/>
			<point x="308" y="40"/>
			<point x="297" y="50"/>
			<point x="280" y="50" type="curve" smooth="yes"/>
			<point x="227" y="50" type="line"/>
			<point x="227" y="269" type="line"/>
			<point x="277" y="333" type="line"/>
			<point x="458" y="50" type="line"/>
			<point x="408" y="50" type="line" smooth="yes"/>
			<point x="391" y="50"/>
			<point x="380" y="40"/>
			<point x="380" y="25" type="curve" smooth="yes"/>
			<point x="380" y="10"/>
			<point x="391" y="0"/>
			<point x="408" y="0" type="curve" smooth="yes"/>
			<point x="632" y="0" type="line" smooth="yes"/>
			<point x="650" y="0"/>
			<point x="661" y="10"/>
			<point x="661" y="25" type="curve" smooth="yes"/>
			<point x="661" y="40"/>
			<point x="650" y="50"/>
			<point x="632" y="50" type="curve" smooth="yes"/>
			<point x="576" y="50" type="line"/>
			<point x="343" y="415" type="line"/>
			<point x="552" y="680" type="line"/>
			<point x="612" y="680" type="line" smooth="yes"/>
			<point x="629" y="680"/>
			<point x="640" y="690"/>
			<point x="640" y="705" type="curve" smooth="yes"/>
			<point x="640" y="720"/>
			<point x="629" y="730"/>
			<point x="612" y="730" type="curve" smooth="yes"/>
			<point x="397" y="730" type="line" smooth="yes"/>
			<point x="380" y="730"/>
			<point x="369" y="720"/>
			<point x="369" y="705" type="curve" smooth="yes"/>
			<point x="369" y="690"/>
			<point x="380" y="680"/>
			<point x="397" y="680" type="curve" smooth="yes"/>
			<point x="472" y="680" type="line"/>
			<point x="227" y="368" type="line"/>
			<point x="227" y="680" type="line"/>
			<point x="279" y="680" type="line" smooth="yes"/>
			<point x="297" y="680"/>
			<point x="308" y="690"/>
			<point x="308" y="705" type="curve" smooth="yes"/>
			<point x="308" y="720"/>
			<point x="297" y="730"/>
			<point x="279" y="730" type="curve" smooth="yes"/>
			<point x="66" y="730" type="line" smooth="yes"/>
			<point x="48" y="730"/>
			<point x="37" y="720"/>
			<point x="37" y="705" type="curve" smooth="yes"/>
			<point x="37" y="690"/>
			<point x="48" y="680"/>
			<point x="66" y="680" type="curve" smooth="yes"/>
			<point x="127" y="680" type="line"/>
			<point x="127" y="50" type="line"/>
			<point x="65" y="50" type="line" smooth="yes"/>
			<point x="48" y="50"/>
			<point x="37" y="40"/>
			<point x="37" y="25" type="curve" smooth="yes"/>
			<point x="37" y="10"/>
			<point x="48" y="0"/>
			<point x="65" y="0" type="curve" smooth="yes"/>
		</contour>
	</outline>
</glyph>
<glyph name="L" format="2">
	<advance width="700"/>
	<unicode hex="004C"/>
	<outline>
		<contour>
			<point x="65" y="25" type="curve" smooth="yes"/>
			<point x="65" y="10"/>
			<point x="76" y="0"/>
			<point x="94" y="0" type="curve" smooth="yes"/>
			<point x="591" y="0" type="line" smooth="yes"/>
			<point x="619" y="0"/>
			<point x="627" y="14"/>
			<point x="628" y="31" type="curve" smooth="yes"/>
			<point x="644" y="226" type="line" smooth="yes"/>
			<point x="645" y="243"/>
			<point x="636" y="256"/>
			<point x="619" y="256" type="curve" smooth="yes"/>
			<point x="602" y="256"/>
			<point x="593" y="243"/>
			<point x="592" y="226" type="curve" smooth="yes"/>
			<point x="588" y="180" type="line" smooth="yes"/>
			<point x="582" y="139"/>
			<point x="569" y="50"/>
			<point x="472" y="50" type="curve" smooth="yes"/>
			<point x="270" y="50" type="line"/>
			<point x="270" y="680" type="line"/>
			<point x="346" y="680" type="line" smooth="yes"/>
			<point x="364" y="680"/>
			<point x="375" y="690"/>
			<point x="375" y="705" type="curve" smooth="yes"/>
			<point x="375" y="720"/>
			<point x="364" y="730"/>
			<point x="346" y="730" type="curve" smooth="yes"/>
			<point x="94" y="730" type="line" smooth="yes"/>
			<point x="76" y="730"/>
			<point x="65" y="720"/>
			<point x="65" y="705" type="curve" smooth="yes"/>
			<point x="65" y="690"/>
			<point x="76" y="680"/>
			<point x="94" y="680" type="curve" smooth="yes"/>
			<point x="170" y="680" type="line"/>
			<point x="170" y="50" type="line"/>
			<point x="94" y="50" type="line" smooth="yes"/>
			<point x="76" y="50"/>
			<point x="65" y="40"/>
		</contour>
	</outline>
</glyph>
<glyph name="M" format="2">
	<advance width="700"/>
	<unicode hex="004D"/>
	<outline>
		<contour>
			<point x="513" y="569" type="line"/>
			<point x="513" y="50" type="line"/>
			<point x="438" y="50" type="line" smooth="yes"/>
			<point x="423" y="50"/>
			<point x="412" y="40"/>
			<point x="412" y="25" type="curve" smooth="yes"/>
			<point x="412" y="10"/>
			<point x="423" y="0"/>
			<point x="438" y="0" type="curve" smooth="yes"/>
			<point x="658" y="0" type="line" smooth="yes"/>
			<point x="676" y="0"/>
			<point x="686" y="10"/>
			<point x="686" y="25" type="curve" smooth="yes"/>
			<point x="686" y="39"/>
			<point x="676" y="50"/>
			<point x="658" y="50" type="curve" smooth="yes"/>
			<point x="613" y="50" type="line"/>
			<point x="614" y="675" type="line"/>
			<point x="657" y="680" type="line" smooth="yes"/>
			<point x="673" y="682"/>
			<point x="686" y="688"/>
			<point x="686" y="705" type="curve" smooth="yes"/>
			<point x="686" y="722"/>
			<point x="673" y="730"/>
			<point x="657" y="730" type="curve" smooth="yes"/>
			<point x="563" y="730" type="line" smooth="yes"/>
			<point x="532" y="730"/>
			<point x="523" y="712"/>
			<point x="507" y="678" type="curve" smooth="yes"/>
			<point x="359" y="348" type="line"/>
			<point x="196" y="678" type="line" smooth="yes"/>
			<point x="180" y="712"/>
			<point x="171" y="730"/>
			<point x="140" y="730" type="curve" smooth="yes"/>
			<point x="43" y="730" type="line" smooth="yes"/>
			<point x="27" y="730"/>
			<point x="14" y="722"/>
			<point x="14" y="705" type="curve" smooth="yes"/>
			<point x="14" y="688"/>
			<point x="27" y="682"/>
			<point x="43" y="680" type="curve" smooth="yes"/>
			<point x="95" y="675" type="line"/>
			<point x="96" y="50" type="line"/>
			<point x="40" y="50" type="line" smooth="yes"/>
			<point x="25" y="50"/>
			<point x="14" y="40"/>
			<point x="14" y="25" type="curve" smooth="yes"/>
			<point x="14" y="10"/>
			<point x="25" y="0"/>
			<point x="40" y="0" type="curve" smooth="yes"/>
			<point x="242" y="0" type="line" smooth="yes"/>
			<point x="260" y="0"/>
			<point x="270" y="10"/>
			<point x="270" y="25" type="curve" smooth="yes"/>
			<point x="270" y="39"/>
			<point x="260" y="50"/>
			<point x="242" y="50" type="curve" smooth="yes"/>
			<point x="156" y="50" type="line"/>
			<point x="156" y="545" type="line"/>
			<point x="299" y="237" type="line" smooth="yes"/>
			<point x="308" y="218"/>
			<point x="313" y="201"/>
			<point x="333" y="201" type="curve" smooth="yes"/>
			<point x="352" y="201"/>
			<point x="357" y="218"/>
			<point x="366" y="237" type="curve" smooth="yes"/>
		</contour>
	</outline>
</glyph>
<glyph name="N" format="2">
	<advance width="700"/>
	<unicode hex="004E"/>
	<outline>
		<contour>
			<point x="194" y="601" type="line"/>
			<point x="464" y="47" type="line" smooth="yes"/>
			<point x="481" y="12"/>
			<point x="494" y="0"/>
			<point x="525" y="0" type="curve" smooth="yes"/>
			<point x="558" y="0"/>
			<point x="579" y="0"/>
			<point x="579" y="31" type="curve" smooth="yes"/>
			<point x="579" y="680" type="line"/>
			<point x="649" y="680" type="line" smooth="yes"/>
			<point x="667" y="680"/>
			<point x="677" y="690"/>
			<point x="677" y="705" type="curve" smooth="yes"/>
			<point x="677" y="719"/>
			<point x="667" y="730"/>
			<point x="649" y="730" type="curve" smooth="yes"/>
			<point x="449" y="730" type="line" smooth="yes"/>
			<point x="434" y="730"/>
			<point x="423" y="720"/>
			<point x="423" y="705" type="curve" smooth="yes"/>
			<point x="423" y="690"/>
			<point x="434" y="680"/>
			<point x="449" y="680" type="curve" smooth="yes"/>
			<point x="519" y="680" type="line"/>
			<point x="519" y="150" type="line"/>
			<point x="262" y="680" type="line" smooth="yes"/>
			<point x="245" y="714"/>
			<point x="234" y="730"/>
			<point x="204" y="730" type="curve" smooth="yes"/>
			<point x="82" y="730" type="line" smooth="yes"/>
			<point x="66" y="730"/>
			<point x="53" y="722"/>
			<point x="53" y="705" type="curve" smooth="yes"/>
			<point x="53" y="688"/>
			<point x="66" y="682"/>
			<point x="82" y="680" type="curve" smooth="yes"/>
			<point x="133" y="675" type="line"/>
			<point x="134" y="50" type="line"/>
			<point x="64" y="50" type="line" smooth="yes"/>
			<point x="49" y="50"/>
			<point x="38" y="40"/>
			<point x="38" y="25" type="curve" smooth="yes"/>
			<point x="38" y="10"/>
			<point x="49" y="0"/>
			<point x="64" y="0" type="curve" smooth="yes"/>
			<point x="264" y="0" type="line" smooth="yes"/>
			<point x="282" y="0"/>
			<point x="292" y="10"/>
			<point x="292" y="25" type="curve" smooth="yes"/>
			<point x="292" y="39"/>
			<point x="282" y="50"/>
			<point x="264" y="50" type="curve" smooth="yes"/>
			<point x="194" y="50" type="line"/>
		</contour>
	</outline>
</glyph>
<glyph name="O" format="2">
	<advance width="700"/>
	<unicode hex="004F"/>
	<outline>
		<contour>
			<point x="351" y="-5" type="curve" smooth="yes"/>
			<point x="499" y="-5"/>
			<point x="631" y="133"/>
			<point x="631" y="365" type="curve" smooth="yes"/>
			<point x="631" y="597"/>
			<point x="499" y="735"/>
			<point x="351" y="735" type="curve" smooth="yes"/>
			<point x="204" y="735"/>
			<point x="70" y="595"/>
			<point x="70" y="365" type="curve" smooth="yes"/>
			<point x="70" y="133"/>
			<point x="202" y="-5"/>
		</contour>
		<contour>
			<point x="351" y="45" type="curve" smooth="yes"/>
			<point x="238" y="45"/>
			<point x="180" y="192"/>
			<point x="180" y="365" type="curve" smooth="yes"/>
			<point x="180" y="537"/>
			<point x="238" y="685"/>
			<point x="351" y="685" type="curve" smooth="yes"/>
			<point x="463" y="685"/>
			<point x="521" y="537"/>
			<point x="521" y="365" type="curve" smooth="yes"/>
			<point x="521" y="192"/>
			<point x="463" y="45"/>
		</contour>
	</outline>
</glyph>
<glyph name="P" format="2">
	<advance width="700"/>
	<unicode hex="0050"/>
	<outline>
		<contour>
			<point x="631" y="533" type="curve" smooth="yes"/>
			<point x="631" y="654"/>
			<point x="541" y="730"/>
			<point x="427" y="730" type="curve" smooth="yes"/>
			<point x="89" y="730" type="line" smooth="yes"/>
			<point x="72" y="730"/>
			<point x="60" y="720"/>
			<point x="60" y="705" type="curve" smooth="yes"/>
			<point x="60" y="692"/>
			<point x="71" y="681"/>
			<point x="89" y="679" type="curve" smooth="yes"/>
			<point x="156" y="671" type="line"/>
			<point x="156" y="50" type="line"/>
			<point x="88" y="50" type="line" smooth="yes"/>
			<point x="70" y="50"/>
			<point x="60" y="39"/>
			<point x="60" y="25" type="curve" smooth="yes"/>
			<point x="60" y="11"/>
			<point x="70" y="0"/>
			<point x="88" y="0" type="curve" smooth="yes"/>
			<point x="324" y="0" type="line" smooth="yes"/>
			<point x="342" y="0"/>
			<point x="352" y="11"/>
			<point x="352" y="25" type="curve" smooth="yes"/>
			<point x="352" y="39"/>
			<point x="342" y="50"/>
			<point x="324" y="50" type="curve" smooth="yes"/>
			<point x="256" y="50" type="line"/>
			<point x="256" y="336" type="line"/>
			<point x="427" y="336" type="line" smooth="yes"/>
			<point x="541" y="336"/>
			<point x="631" y="412"/>
		</contour>
		<contour>
			<point x="377" y="680" type="line" smooth="yes"/>
			<point x="430" y="680"/>
			<point x="531" y="655"/>
			<point x="531" y="533" type="curve" smooth="yes"/>
			<point x="531" y="411"/>
			<point x="430" y="386"/>
			<point x="377" y="386" type="curve" smooth="yes"/>
			<point x="256" y="386" type="line"/>
			<point x="256" y="680" type="line"/>
		</contour>
	</outline>
</glyph>
<glyph name="Q" format="2">
	<advance width="700"/>
	<unicode hex="0051"/>
	<outline>
		<contour>
			<point x="70" y="365" type="curve" smooth="yes"/>
			<point x="70" y="172"/>
			<point x="161" y="44"/>
			<point x="278" y="7" type="curve"/>
			<point x="147" y="-104" type="line" smooth="yes"/>
			<point x="121" y="-126"/>
			<point x="122" y="-152"/>
			<point x="136" y="-168" type="curve" smooth="yes"/>
			<point x="151" y="-184"/>
			<point x="179" y="-189"/>
			<point x="206" y="-166" type="curve" smooth="yes"/>
			<point x="234" y="-142"/>
			<point x="253" y="-128"/>
			<point x="273" y="-128" type="curve" smooth="yes"/>
			<point x="333" y="-128"/>
			<point x="394" y="-200"/>
			<point x="462" y="-200" type="curve" smooth="yes"/>
			<point x="487" y="-200"/>
			<point x="543" y="-197"/>
			<point x="579" y="-136" type="curve" smooth="yes"/>
			<point x="598" y="-104" type="line" smooth="yes"/>
			<point x="610" y="-84"/>
			<point x="604" y="-64"/>
			<point x="590" y="-55" type="curve" smooth="yes"/>
			<point x="576" y="-45"/>
			<point x="554" y="-48"/>
			<point x="537" y="-74" type="curve" smooth="yes"/>
			<point x="502" y="-130"/>
			<point x="482" y="-135"/>
			<point x="463" y="-135" type="curve" smooth="yes"/>
			<point x="420" y="-135"/>
			<point x="363" y="-70"/>
			<point x="285" y="-63" type="curve"/>
			<point x="354" y="-5" type="line"/>
			<point x="501" y="-3"/>
			<point x="631" y="134"/>
			<point x="631" y="365" type="curve" smooth="yes"/>
			<point x="631" y="597"/>
			<point x="499" y="735"/>
			<point x="351" y="735" type="curve" smooth="yes"/>
			<point x="204" y="735"/>
			<point x="70" y="595"/>
		</contour>
		<contour>
			<point x="180" y="365" type="curve" smooth="yes"/>
			<point x="180" y="537"/>
			<point x="238" y="685"/>
			<point x="351" y="685" type="curve" smooth="yes"/>
			<point x="463" y="685"/>
			<point x="521" y="537"/>
			<point x="521" y="365" type="curve" smooth="yes"/>
			<point x="521" y="192"/>
			<point x="463" y="45"/>
			<point x="351" y="45" type="curve" smooth="yes"/>
			<point x="238" y="45"/>
			<point x="180" y="192"/>
		</contour>
	</outline>
</glyph>
<glyph name="R" format="2">
	<advance width="700"/>
	<unicode hex="0052"/>
	<outline>
		<contour>
			<point x="211" y="336" type="line"/>
			<point x="332" y="336" type="line" smooth="yes"/>
			<point x="394" y="336"/>
			<point x="422" y="313"/>
			<point x="422" y="247" type="curve" smooth="yes"/>
			<point x="422" y="140" type="line" smooth="yes"/>
			<point x="422" y="66"/>
			<point x="448" y="-8"/>
			<point x="551" y="-8" type="curve" smooth="yes"/>
			<point x="615" y="-8"/>
			<point x="645" y="42"/>
			<point x="665" y="91" type="curve" smooth="yes"/>
			<point x="685" y="140"/>
			<point x="689" y="165"/>
			<point x="668" y="173" type="curve" smooth="yes"/>
			<point x="648" y="181"/>
			<point x="636" y="169"/>
			<point x="629" y="149" type="curve" smooth="yes"/>
			<point x="613" y="104"/>
			<point x="598" y="47"/>
			<point x="559" y="47" type="curve" smooth="yes"/>
			<point x="516" y="47"/>
			<point x="522" y="119"/>
			<point x="522" y="170" type="curve" smooth="yes"/>
			<point x="522" y="247" type="line" smooth="yes"/>
			<point x="522" y="301"/>
			<point x="486" y="336"/>
			<point x="447" y="345" type="curve"/>
			<point x="533" y="365"/>
			<point x="587" y="432"/>
			<point x="587" y="533" type="curve" smooth="yes"/>
			<point x="587" y="654"/>
			<point x="500" y="730"/>
			<point x="386" y="730" type="curve" smooth="yes"/>
			<point x="42" y="730" type="line" smooth="yes"/>
			<point x="27" y="730"/>
			<point x="15" y="719"/>
			<point x="15" y="705" type="curve" smooth="yes"/>
			<point x="15" y="691"/>
			<point x="27" y="682"/>
			<point x="42" y="680" type="curve" smooth="yes"/>
			<point x="111" y="671" type="line"/>
			<point x="111" y="50" type="line"/>
			<point x="43" y="50" type="line" smooth="yes"/>
			<point x="25" y="50"/>
			<point x="15" y="39"/>
			<point x="15" y="25" type="curve" smooth="yes"/>
			<point x="15" y="11"/>
			<point x="25" y="0"/>
			<point x="43" y="0" type="curve" smooth="yes"/>
			<point x="279" y="0" type="line" smooth="yes"/>
			<point x="297" y="0"/>
			<point x="307" y="11"/>
			<point x="307" y="25" type="curve" smooth="yes"/>
			<point x="307" y="39"/>
			<point x="297" y="50"/>
			<point x="279" y="50" type="curve" smooth="yes"/>
			<point x="211" y="50" type="line"/>
		</contour>
		<contour>
			<point x="487" y="533" type="curve" smooth="yes"/>
			<point x="487" y="411"/>
			<point x="389" y="386"/>
			<point x="336" y="386" type="curve" smooth="yes"/>
			<point x="211" y="386" type="line"/>
			<point x="211" y="680" type="line"/>
			<point x="336" y="680" type="line" smooth="yes"/>
			<point x="389" y="680"/>
			<point x="487" y="655"/>
		</contour>
	</outline>
</glyph>
<glyph name="S" format="2">
	<advance width="700"/>
	<unicode hex="0053"/>
	<outline>
		<contour>
			<point x="210" y="574" type="curve" smooth="yes"/>
			<point x="210" y="643"/>
			<point x="247" y="680"/>
			<point x="327" y="680" type="curve" smooth="yes"/>
			<point x="419" y="680"/>
			<point x="513" y="595"/>
			<point x="549" y="511" type="curve" smooth="yes"/>
			<point x="555" y="497"/>
			<point x="558" y="482"/>
			<point x="575" y="482" type="curve" smooth="yes"/>
			<point x="591" y="482"/>
			<point x="599" y="492"/>
			<point x="599" y="510" type="curve" smooth="yes"/>
			<point x="599" y="590" type="line"/>
			<point x="599" y="707" type="line" smooth="yes"/>
			<point x="599" y="725"/>
			<point x="589" y="736"/>
			<point x="574" y="736" type="curve" smooth="yes"/>
			<point x="561" y="736"/>
			<point x="549" y="726"/>
			<point x="548" y="707" type="curve" smooth="yes"/>
			<point x="542" y="629" type="line"/>
			<point x="487" y="697"/>
			<point x="407" y="730"/>
			<point x="327" y="730" type="curve" smooth="yes"/>
			<point x="208" y="730"/>
			<point x="122" y="652"/>
			<point x="122" y="545" type="curve" smooth="yes"/>
			<point x="122" y="421"/>
			<point x="210" y="376"/>
			<point x="327" y="334" type="curve" smooth="yes"/>
			<point x="424" y="299"/>
			<point x="539" y="258"/>
			<point x="539" y="169" type="curve" smooth="yes"/>
			<point x="539" y="75"/>
			<point x="452" y="40"/>
			<point x="384" y="40" type="curve" smooth="yes"/>
			<point x="293" y="40"/>
			<point x="190" y="114"/>
			<point x="175" y="216" type="curve" smooth="yes"/>
			<point x="168" y="262" type="line" smooth="yes"/>
			<point x="166" y="278"/>
			<point x="160" y="291"/>
			<point x="143" y="291" type="curve" smooth="yes"/>
			<point x="126" y="291"/>
			<point x="118" y="278"/>
			<point x="118" y="262" type="curve" smooth="yes"/>
			<point x="118" y="28" type="line" smooth="yes"/>
			<point x="118" y="10"/>
			<point x="129" y="0"/>
			<point x="143" y="0" type="curve" smooth="yes"/>
			<point x="157" y="0"/>
			<point x="168" y="10"/>
			<point x="168" y="28" type="curve"/>
			<point x="168" y="99" type="line"/>
			<point x="199" y="45"/>
			<point x="280" y="-10"/>
			<point x="386" y="-10" type="curve" smooth="yes"/>
			<point x="487" y="-10"/>
			<point x="612" y="34"/>
			<point x="612" y="193" type="curve" smooth="yes"/>
			<point x="612" y="350"/>
			<point x="499" y="376"/>
			<point x="376" y="426" type="curve" smooth="yes"/>
			<point x="295" y="459"/>
			<point x="210" y="489"/>
		</contour>
	</outline>
</glyph>
<glyph name="T" format="2">
	<advance width="700"/>
	<unicode hex="0054"/>
	<outline>
		<contour>
			<point x="301" y="680" type="line"/>
			<point x="301" y="50" type="line"/>
			<point x="183" y="50" type="line" smooth="yes"/>
			<point x="165" y="50"/>
			<point x="155" y="39"/>
			<point x="155" y="25" type="curve" smooth="yes"/>
			<point x="155" y="11"/>
			<point x="165" y="0"/>
			<point x="183" y="0" type="curve" smooth="yes"/>
			<point x="519" y="0" type="line" smooth="yes"/>
			<point x="537" y="0"/>
			<point x="547" y="11"/>
			<point x="547" y="25" type="curve" smooth="yes"/>
			<point x="547" y="39"/>
			<point x="537" y="50"/>
			<point x="519" y="50" type="curve" smooth="yes"/>
			<point x="401" y="50" type="line"/>
			<point x="401" y="680" type="line"/>
			<point x="458" y="680" type="line" smooth="yes"/>
			<point x="555" y="680"/>
			<point x="555" y="621"/>
			<point x="564" y="520" type="curve" smooth="yes"/>
			<point x="568" y="474" type="line" smooth="yes"/>
			<point x="569" y="457"/>
			<point x="575" y="444"/>
			<point x="593" y="444" type="curve" smooth="yes"/>
			<point x="611" y="444"/>
			<point x="620" y="457"/>
			<point x="620" y="474" type="curve"/>
			<point x="614" y="699" type="line"/>
			<point x="614" y="716"/>
			<point x="605" y="730"/>
			<point x="587" y="730" type="curve" smooth="yes"/>
			<point x="115" y="730" type="line" smooth="yes"/>
			<point x="97" y="730"/>
			<point x="88" y="716"/>
			<point x="88" y="699" type="curve" smooth="yes"/>
			<point x="82" y="474" type="line" smooth="yes"/>
			<point x="82" y="457"/>
			<point x="91" y="444"/>
			<point x="109" y="444" type="curve" smooth="yes"/>
			<point x="127" y="444"/>
			<point x="133" y="457"/>
			<point x="134" y="474" type="curve" smooth="yes"/>
			<point x="138" y="520" type="line" smooth="yes"/>
			<point x="147" y="621"/>
			<point x="147" y="680"/>
			<point x="244" y="680" type="curve" smooth="yes"/>
		</contour>
	</outline>
</glyph>
<glyph name="U" format="2">
	<advance width="700"/>
	<unicode hex="0055"/>
	<outline>
		<contour>
			<point x="26" y="705" type="curve" smooth="yes"/>
			<point x="26" y="691"/>
			<point x="36" y="680"/>
			<point x="54" y="680" type="curve" smooth="yes"/>
			<point x="120" y="680" type="line"/>
			<point x="120" y="297" type="line" smooth="yes"/>
			<point x="120" y="81"/>
			<point x="201" y="0"/>
			<point x="373" y="0" type="curve" smooth="yes"/>
			<point x="505" y="0"/>
			<point x="581" y="81"/>
			<point x="581" y="297" type="curve" smooth="yes"/>
			<point x="581" y="680" type="line"/>
			<point x="642" y="680" type="line" smooth="yes"/>
			<point x="660" y="680"/>
			<point x="670" y="691"/>
			<point x="670" y="705" type="curve" smooth="yes"/>
			<point x="670" y="719"/>
			<point x="660" y="730"/>
			<point x="642" y="730" type="curve" smooth="yes"/>
			<point x="460" y="730" type="line" smooth="yes"/>
			<point x="442" y="730"/>
			<point x="432" y="719"/>
			<point x="432" y="705" type="curve" smooth="yes"/>
			<point x="432" y="691"/>
			<point x="442" y="680"/>
			<point x="460" y="680" type="curve" smooth="yes"/>
			<point x="521" y="680" type="line"/>
			<point x="521" y="270" type="line" smooth="yes"/>
			<point x="521" y="132"/>
			<point x="475" y="50"/>
			<point x="373" y="50" type="curve" smooth="yes"/>
			<point x="281" y="50"/>
			<point x="220" y="92"/>
			<point x="220" y="270" type="curve" smooth="yes"/>
			<point x="220" y="680" type="line"/>
			<point x="286" y="680" type="line" smooth="yes"/>
			<point x="304" y="680"/>
			<point x="314" y="691"/>
			<point x="314" y="705" type="curve" smooth="yes"/>
			<point x="314" y="719"/>
			<point x="304" y="730"/>
			<point x="286" y="730" type="curve" smooth="yes"/>
			<point x="54" y="730" type="line" smooth="yes"/>
			<point x="36" y="730"/>
			<point x="26" y="719"/>
		</contour>
	</outline>
</glyph>
<glyph name="V" format="2">
	<advance width="700"/>
	<unicode hex="0056"/>
	<outline>
		<contour>
			<point x="383" y="207" type="line"/>
			<point x="234" y="680" type="line"/>
			<point x="324" y="680" type="line" smooth="yes"/>
			<point x="341" y="680"/>
			<point x="352" y="689"/>
			<point x="352" y="705" type="curve" smooth="yes"/>
			<point x="352" y="720"/>
			<point x="341" y="730"/>
			<point x="324" y="730" type="curve" smooth="yes"/>
			<point x="60" y="730" type="line" smooth="yes"/>
			<point x="42" y="730"/>
			<point x="32" y="719"/>
			<point x="32" y="705" type="curve" smooth="yes"/>
			<point x="32" y="691"/>
			<point x="42" y="680"/>
			<point x="60" y="680" type="curve" smooth="yes"/>
			<point x="129" y="680" type="line"/>
			<point x="340" y="15" type="line" smooth="yes"/>
			<point x="343" y="5"/>
			<point x="350" y="0"/>
			<point x="358" y="0" type="curve" smooth="yes"/>
			<point x="366" y="0"/>
			<point x="374" y="5"/>
			<point x="377" y="15" type="curve" smooth="yes"/>
			<point x="574" y="680" type="line"/>
			<point x="643" y="680" type="line" smooth="yes"/>
			<point x="658" y="680"/>
			<point x="668" y="691"/>
			<point x="668" y="705" type="curve" smooth="yes"/>
			<point x="668" y="719"/>
			<point x="658" y="730"/>
			<point x="643" y="730" type="curve" smooth="yes"/>
			<point x="452" y="730" type="line" smooth="yes"/>
			<point x="435" y="730"/>
			<point x="424" y="720"/>
			<point x="424" y="705" type="curve" smooth="yes"/>
			<point x="424" y="689"/>
			<point x="435" y="680"/>
			<point x="452" y="680" type="curve" smooth="yes"/>
			<point x="521" y="680" type="line"/>
		</contour>
	</outline>
</glyph>
<glyph name="W" format="2">
	<advance width="700"/>
	<unicode hex="0057"/>
	<outline>
		<contour>
			<point x="373" y="524" type="curve" smooth="yes"/>
			<point x="365" y="524"/>
			<point x="358" y="518"/>
			<point x="356" y="512" type="curve"/>
			<point x="292" y="255" type="line"/>
			<point x="198" y="680" type="line"/>
			<point x="258" y="680" type="line" smooth="yes"/>
			<point x="273" y="680"/>
			<point x="285" y="691"/>
			<point x="285" y="705" type="curve" smooth="yes"/>
			<point x="285" y="719"/>
			<point x="273" y="730"/>
			<point x="258" y="730" type="curve" smooth="yes"/>
			<point x="68" y="730" type="line" smooth="yes"/>
			<point x="53" y="730"/>
			<point x="41" y="719"/>
			<point x="41" y="705" type="curve" smooth="yes"/>
			<point x="41" y="691"/>
			<point x="53" y="680"/>
			<point x="68" y="680" type="curve" smooth="yes"/>
			<point x="98" y="680" type="line"/>
			<point x="246" y="6" type="line"/>
			<point x="247" y="0"/>
			<point x="255" y="-6"/>
			<point x="263" y="-6" type="curve" smooth="yes"/>
			<point x="274" y="-6"/>
			<point x="280" y="0"/>
			<point x="281" y="6" type="curve"/>
			<point x="355" y="299" type="line"/>
			<point x="437" y="6" type="line"/>
			<point x="438" y="0"/>
			<point x="444" y="-6"/>
			<point x="455" y="-6" type="curve" smooth="yes"/>
			<point x="463" y="-6"/>
			<point x="471" y="0"/>
			<point x="472" y="6" type="curve" smooth="yes"/>
			<point x="602" y="680" type="line"/>
			<point x="632" y="680" type="line" smooth="yes"/>
			<point x="647" y="680"/>
			<point x="659" y="691"/>
			<point x="659" y="705" type="curve" smooth="yes"/>
			<point x="659" y="719"/>
			<point x="647" y="730"/>
			<point x="632" y="730" type="curve" smooth="yes"/>
			<point x="480" y="730" type="line" smooth="yes"/>
			<point x="465" y="730"/>
			<point x="453" y="719"/>
			<point x="453" y="705" type="curve" smooth="yes"/>
			<point x="453" y="691"/>
			<point x="465" y="680"/>
			<point x="480" y="680" type="curve" smooth="yes"/>
			<point x="550" y="680" type="line"/>
			<point x="469" y="255" type="line"/>
			<point x="391" y="512" type="line"/>
			<point x="390" y="518"/>
			<point x="384" y="524"/>
		</contour>
	</outline>
</glyph>
<glyph name="X" format="2">
	<advance width="700"/>
	<unicode hex="0058"/>
	<outline>
		<contour>
			<point x="45" y="25" type="curve" smooth="yes"/>
			<point x="45" y="11"/>
			<point x="55" y="0"/>
			<point x="73" y="0" type="curve" smooth="yes"/>
			<point x="262" y="0" type="line" smooth="yes"/>
			<point x="279" y="0"/>
			<point x="290" y="10"/>
			<point x="290" y="25" type="curve" smooth="yes"/>
			<point x="290" y="40"/>
			<point x="279" y="50"/>
			<point x="262" y="50" type="curve" smooth="yes"/>
			<point x="196" y="50" type="line"/>
			<point x="336" y="289" type="line"/>
			<point x="456" y="50" type="line"/>
			<point x="409" y="50" type="line" smooth="yes"/>
			<point x="391" y="50"/>
			<point x="381" y="39"/>
			<point x="381" y="25" type="curve" smooth="yes"/>
			<point x="381" y="11"/>
			<point x="391" y="0"/>
			<point x="409" y="0" type="curve" smooth="yes"/>
			<point x="634" y="0" type="line" smooth="yes"/>
			<point x="651" y="0"/>
			<point x="662" y="10"/>
			<point x="662" y="25" type="curve" smooth="yes"/>
			<point x="662" y="40"/>
			<point x="651" y="50"/>
			<point x="634" y="50" type="curve" smooth="yes"/>
			<point x="571" y="50" type="line"/>
			<point x="397" y="394" type="line"/>
			<point x="564" y="680" type="line"/>
			<point x="634" y="680" type="line" smooth="yes"/>
			<point x="651" y="680"/>
			<point x="662" y="690"/>
			<point x="662" y="705" type="curve" smooth="yes"/>
			<point x="662" y="720"/>
			<point x="651" y="730"/>
			<point x="634" y="730" type="curve" smooth="yes"/>
			<point x="427" y="730" type="line" smooth="yes"/>
			<point x="409" y="730"/>
			<point x="399" y="719"/>
			<point x="399" y="705" type="curve" smooth="yes"/>
			<point x="399" y="691"/>
			<point x="409" y="680"/>
			<point x="427" y="680" type="curve" smooth="yes"/>
			<point x="494" y="680" type="line"/>
			<point x="365" y="459" type="line"/>
			<point x="253" y="680" type="line"/>
			<point x="294" y="680" type="line" smooth="yes"/>
			<point x="311" y="680"/>
			<point x="322" y="690"/>
			<point x="322" y="705" type="curve" smooth="yes"/>
			<point x="322" y="720"/>
			<point x="311" y="730"/>
			<point x="294" y="730" type="curve" smooth="yes"/>
			<point x="73" y="730" type="line" smooth="yes"/>
			<point x="55" y="730"/>
			<point x="45" y="719"/>
			<point x="45" y="705" type="curve" smooth="yes"/>
			<point x="45" y="691"/>
			<point x="55" y="680"/>
			<point x="73" y="680" type="curve" smooth="yes"/>
			<point x="139" y="680" type="line"/>
			<point x="303" y="353" type="line"/>
			<point x="126" y="50" type="line"/>
			<point x="73" y="50" type="line" smooth="yes"/>
			<point x="55" y="50"/>
			<point x="45" y="39"/>
		</contour>
	</outline>
</glyph>
<glyph name="Y" format="2">
	<advance width="700"/>
	<unicode hex="0059"/>
	<outline>
		<contour>
			<point x="46" y="705" type="curve" smooth="yes"/>
			<point x="46" y="690"/>
			<point x="57" y="680"/>
			<point x="72" y="680" type="curve" smooth="yes"/>
			<point x="134" y="680" type="line"/>
			<point x="286" y="335" type="line"/>
			<point x="286" y="50" type="line"/>
			<point x="167" y="50" type="line" smooth="yes"/>
			<point x="150" y="50"/>
			<point x="140" y="40"/>
			<point x="140" y="25" type="curve" smooth="yes"/>
			<point x="140" y="10"/>
			<point x="150" y="0"/>
			<point x="167" y="0" type="curve" smooth="yes"/>
			<point x="515" y="0" type="line" smooth="yes"/>
			<point x="531" y="0"/>
			<point x="542" y="10"/>
			<point x="542" y="25" type="curve" smooth="yes"/>
			<point x="542" y="40"/>
			<point x="531" y="50"/>
			<point x="515" y="50" type="curve" smooth="yes"/>
			<point x="396" y="50" type="line"/>
			<point x="396" y="333" type="line"/>
			<point x="566" y="680" type="line"/>
			<point x="635" y="680" type="line" smooth="yes"/>
			<point x="653" y="680"/>
			<point x="663" y="690"/>
			<point x="663" y="705" type="curve" smooth="yes"/>
			<point x="663" y="719"/>
			<point x="653" y="730"/>
			<point x="635" y="730" type="curve" smooth="yes"/>
			<point x="426" y="730" type="line" smooth="yes"/>
			<point x="411" y="730"/>
			<point x="400" y="720"/>
			<point x="400" y="705" type="curve" smooth="yes"/>
			<point x="400" y="690"/>
			<point x="411" y="680"/>
			<point x="426" y="680" type="curve" smooth="yes"/>
			<point x="496" y="680" type="line"/>
			<point x="370" y="410" type="line"/>
			<point x="259" y="680" type="line"/>
			<point x="297" y="680" type="line" smooth="yes"/>
			<point x="312" y="680"/>
			<point x="323" y="690"/>
			<point x="323" y="705" type="curve" smooth="yes"/>
			<point x="323" y="720"/>
			<point x="312" y="730"/>
			<point x="297" y="730" type="curve" smooth="yes"/>
			<point x="72" y="730" type="line" smooth="yes"/>
			<point x="57" y="730"/>
			<point x="46" y="720"/>
		</contour>
	</outline>
</glyph>
<glyph name="Z" format="2">
	<advance width="700"/>
	<unicode hex="005A"/>
	<outline>
		<contour>
			<point x="279" y="680" type="curve"/>
			<point x="495" y="680" type="line"/>
			<point x="104" y="54" type="line" smooth="yes"/>
			<point x="96" y="41"/>
			<point x="88" y="29"/>
			<point x="95" y="15" type="curve" smooth="yes"/>
			<point x="103" y="0"/>
			<point x="121" y="0"/>
			<point x="149" y="0" type="curve" smooth="yes"/>
			<point x="574" y="0" type="line"/>
			<point x="592" y="0"/>
			<point x="601" y="14"/>
			<point x="601" y="31" type="curve"/>
			<point x="618" y="210" type="line"/>
			<point x="618" y="227"/>
			<point x="609" y="240"/>
			<point x="591" y="240" type="curve" smooth="yes"/>
			<point x="573" y="240"/>
			<point x="568" y="227"/>
			<point x="566" y="210" type="curve" smooth="yes"/>
			<point x="560" y="164" type="line"/>
			<point x="548" y="92"/>
			<point x="526" y="50"/>
			<point x="445" y="50" type="curve" smooth="yes"/>
			<point x="221" y="50" type="line"/>
			<point x="615" y="676" type="line" smooth="yes"/>
			<point x="623" y="689"/>
			<point x="631" y="702"/>
			<point x="624" y="715" type="curve" smooth="yes"/>
			<point x="616" y="731"/>
			<point x="598" y="730"/>
			<point x="570" y="730" type="curve" smooth="yes"/>
			<point x="150" y="730" type="line" smooth="yes"/>
			<point x="132" y="730"/>
			<point x="123" y="716"/>
			<point x="123" y="699" type="curve"/>
			<point x="106" y="520" type="line"/>
			<point x="106" y="503"/>
			<point x="115" y="490"/>
			<point x="133" y="490" type="curve" smooth="yes"/>
			<point x="151" y="490"/>
			<point x="156" y="503"/>
			<point x="158" y="520" type="curve"/>
			<point x="165" y="571" type="line"/>
			<point x="177" y="640"/>
			<point x="200" y="680"/>
		</contour>
	</outline>
</glyph>
<glyph name="bracketleft" format="2">
	<advance width="700"/>
	<unicode hex="005B"/>
	<outline>
		<contour>
			<point x="243" y="0" type="curve" smooth="yes"/>
			<point x="465" y="0" type="line" smooth="yes"/>
			<point x="480" y="0"/>
			<point x="492" y="11"/>
			<point x="492" y="25" type="curve" smooth="yes"/>
			<point x="492" y="39"/>
			<point x="480" y="49"/>
			<point x="465" y="50" type="curve" smooth="yes"/>
			<point x="316" y="60" type="line"/>
			<point x="316" y="670" type="line"/>
			<point x="465" y="680" type="line" smooth="yes"/>
			<point x="480" y="681"/>
			<point x="492" y="691"/>
			<point x="492" y="705" type="curve" smooth="yes"/>
			<point x="492" y="719"/>
			<point x="480" y="730"/>
			<point x="465" y="730" type="curve" smooth="yes"/>
			<point x="243" y="730" type="line" smooth="yes"/>
			<point x="217" y="730"/>
			<point x="216" y="716"/>
			<point x="216" y="699" type="curve" smooth="yes"/>
			<point x="216" y="31" type="line" smooth="yes"/>
			<point x="216" y="14"/>
			<point x="217" y="0"/>
		</contour>
	</outline>
</glyph>
<glyph name="backslash" format="2">
	<advance width="700"/>
	<unicode hex="005C"/>
	<outline>
		<contour>
			<point x="130" y="833" type="line" smooth="yes"/>
			<point x="120" y="855"/>
			<point x="107" y="868"/>
			<point x="89" y="861" type="curve" smooth="yes"/>
			<point x="67" y="852"/>
			<point x="73" y="832"/>
			<point x="83" y="812" type="curve" smooth="yes"/>
			<point x="516" y="-111" type="line" smooth="yes"/>
			<point x="526" y="-133"/>
			<point x="539" y="-146"/>
			<point x="557" y="-139" type="curve" smooth="yes"/>
			<point x="579" y="-130"/>
			<point x="572" y="-110"/>
			<point x="563" y="-90" type="curve" smooth="yes"/>
		</contour>
	</outline>
</glyph>
<glyph name="bracketright" format="2">
	<advance width="700"/>
	<unicode hex="005D"/>
	<outline>
		<contour>
			<point x="457" y="0" type="line" smooth="yes"/>
			<point x="483" y="0"/>
			<point x="485" y="14"/>
			<point x="485" y="31" type="curve" smooth="yes"/>
			<point x="484" y="699" type="line" smooth="yes"/>
			<point x="484" y="716"/>
			<point x="483" y="730"/>
			<point x="457" y="730" type="curve" smooth="yes"/>
			<point x="235" y="730" type="line" smooth="yes"/>
			<point x="220" y="730"/>
			<point x="208" y="719"/>
			<point x="208" y="705" type="curve" smooth="yes"/>
			<point x="208" y="691"/>
			<point x="220" y="681"/>
			<point x="235" y="680" type="curve" smooth="yes"/>
			<point x="384" y="670" type="line"/>
			<point x="384" y="60" type="line"/>
			<point x="235" y="50" type="line" smooth="yes"/>
			<point x="220" y="49"/>
			<point x="208" y="39"/>
			<point x="208" y="25" type="curve" smooth="yes"/>
			<point x="208" y="11"/>
			<point x="220" y="0"/>
			<point x="235" y="0" type="curve" smooth="yes"/>
		</contour>
	</outline>
</glyph>
<glyph name="underscore" format="2">
	<advance width="700"/>
	<unicode hex="005F"/>
	<outline>
		<contour>
			<point x="109" y="0" type="curve" smooth="yes"/>
			<point x="591" y="0" type="line" smooth="yes"/>
			<point x="611" y="0"/>
			<point x="628" y="3"/>
			<point x="628" y="31" type="curve"/>
			<point x="628" y="69" type="line" smooth="yes"/>
			<point x="628" y="97"/>
			<point x="611" y="100"/>
			<point x="591" y="100" type="curve" smooth="yes"/>
			<point x="109" y="100" type="line" smooth="yes"/>
			<point x="89" y="100"/>
			<point x="72" y="97"/>
			<point x="72" y="69" type="curve" smooth="yes"/>
			<point x="72" y="31" type="line"/>
			<point x="72" y="3"/>
			<point x="89" y="0"/>
		</contour>
	</outline>
</glyph>
<glyph name="a" format="2">
	<advance width="700"/>
	<unicode hex="0061"/>
	<outline>
		<contour>
			<point x="316" y="512" type="curve" smooth="yes"/>
			<point x="220" y="512"/>
			<point x="125" y="453"/>
			<point x="125" y="385" type="curve" smooth="yes"/>
			<point x="125" y="339"/>
			<point x="156" y="318"/>
			<point x="186" y="318" type="curve" smooth="yes"/>
			<point x="226" y="318"/>
			<point x="245" y="339"/>
			<point x="245" y="370" type="curve" smooth="yes"/>
			<point x="245" y="392"/>
			<point x="245" y="440"/>
			<point x="245" y="440" type="curve" smooth="yes"/>
			<point x="253" y="456"/>
			<point x="281" y="465"/>
			<point x="318" y="465" type="curve" smooth="yes"/>
			<point x="375" y="465"/>
			<point x="413" y="442"/>
			<point x="413" y="393" type="curve" smooth="yes"/>
			<point x="413" y="375" type="line" smooth="yes"/>
			<point x="413" y="340"/>
			<point x="401" y="304"/>
			<point x="322" y="291" type="curve"/>
			<point x="257" y="281" type="line" smooth="yes"/>
			<point x="157" y="266"/>
			<point x="106" y="229"/>
			<point x="106" y="138" type="curve" smooth="yes"/>
			<point x="106" y="41"/>
			<point x="170" y="-5"/>
			<point x="256" y="-5" type="curve" smooth="yes"/>
			<point x="298" y="-5"/>
			<point x="340" y="9"/>
			<point x="380" y="28" type="curve" smooth="yes"/>
			<point x="412" y="43" type="line"/>
			<point x="448" y="17" type="line" smooth="yes"/>
			<point x="457" y="10"/>
			<point x="479" y="-4"/>
			<point x="512" y="-4" type="curve" smooth="yes"/>
			<point x="572" y="-4"/>
			<point x="615" y="46"/>
			<point x="635" y="95" type="curve" smooth="yes"/>
			<point x="655" y="144"/>
			<point x="660" y="169"/>
			<point x="639" y="177" type="curve" smooth="yes"/>
			<point x="626" y="182"/>
			<point x="611" y="180"/>
			<point x="601" y="153" type="curve" smooth="yes"/>
			<point x="571" y="72"/>
			<point x="533" y="43"/>
			<point x="511" y="59" type="curve"/>
			<point x="511" y="363" type="line" smooth="yes"/>
			<point x="511" y="457"/>
			<point x="431" y="512"/>
		</contour>
		<contour>
			<point x="206" y="148" type="curve" smooth="yes"/>
			<point x="206" y="207"/>
			<point x="243" y="222"/>
			<point x="326" y="242" type="curve" smooth="yes"/>
			<point x="411" y="262" type="line"/>
			<point x="411" y="139" type="line" smooth="yes"/>
			<point x="411" y="129"/>
			<point x="409" y="116"/>
			<point x="399" y="106" type="curve" smooth="yes"/>
			<point x="367" y="74"/>
			<point x="324" y="50"/>
			<point x="286" y="50" type="curve" smooth="yes"/>
			<point x="230" y="50"/>
			<point x="206" y="94"/>
		</contour>
	</outline>
</glyph>
<glyph name="b" format="2">
	<advance width="700"/>
	<unicode hex="0062"/>
	<outline>
		<contour>
			<point x="130" y="672" type="line"/>
			<point x="130" y="24" type="line" smooth="yes"/>
			<point x="130" y="5"/>
			<point x="130" y="0"/>
			<point x="145" y="0" type="curve" smooth="yes"/>
			<point x="190" y="0" type="line"/>
			<point x="204" y="0"/>
			<point x="205" y="1"/>
			<point x="232" y="35" type="curve"/>
			<point x="255" y="23"/>
			<point x="306" y="-8"/>
			<point x="374" y="-8" type="curve" smooth="yes"/>
			<point x="529" y="-8"/>
			<point x="600" y="128"/>
			<point x="600" y="254" type="curve" smooth="yes"/>
			<point x="600" y="404"/>
			<point x="506" y="508"/>
			<point x="376" y="508" type="curve" smooth="yes"/>
			<point x="340" y="508"/>
			<point x="295" y="494"/>
			<point x="263" y="480" type="curve" smooth="yes"/>
			<point x="230" y="465" type="line"/>
			<point x="230" y="699" type="line" smooth="yes"/>
			<point x="230" y="733"/>
			<point x="206" y="730"/>
			<point x="199" y="730" type="curve" smooth="yes"/>
			<point x="60" y="730" type="line" smooth="yes"/>
			<point x="43" y="730"/>
			<point x="31" y="720"/>
			<point x="31" y="705" type="curve" smooth="yes"/>
			<point x="31" y="692"/>
			<point x="42" y="681"/>
			<point x="60" y="679" type="curve" smooth="yes"/>
		</contour>
		<contour>
			<point x="230" y="371" type="line"/>
			<point x="259" y="395" type="line" smooth="yes"/>
			<point x="296" y="425"/>
			<point x="328" y="458"/>
			<point x="376" y="458" type="curve" smooth="yes"/>
			<point x="447" y="458"/>
			<point x="493" y="372"/>
			<point x="492" y="254" type="curve" smooth="yes"/>
			<point x="491" y="154"/>
			<point x="470" y="47"/>
			<point x="359" y="47" type="curve" smooth="yes"/>
			<point x="322" y="47"/>
			<point x="291" y="66"/>
			<point x="251" y="96" type="curve" smooth="yes"/>
			<point x="231" y="111"/>
			<point x="230" y="121"/>
			<point x="230" y="152" type="curve" smooth="yes"/>
		</contour>
	</outline>
</glyph>
<glyph name="d" format="2">
	<advance width="700"/>
	<unicode hex="0064"/>
	<outline>
		<contour>
			<point x="287" y="508" type="curve" smooth="yes"/>
			<point x="157" y="508"/>
			<point x="63" y="404"/>
			<point x="63" y="254" type="curve" smooth="yes"/>
			<point x="63" y="128"/>
			<point x="134" y="-8"/>
			<point x="289" y="-8" type="curve" smooth="yes"/>
			<point x="357" y="-8"/>
			<point x="408" y="23"/>
			<point x="431" y="35" type="curve"/>
			<point x="458" y="1"/>
			<point x="459" y="0"/>
			<point x="473" y="0" type="curve"/>
			<point x="631" y="0" type="line" smooth="yes"/>
			<point x="646" y="0"/>
			<point x="658" y="11"/>
			<point x="658" y="25" type="curve" smooth="yes"/>
			<point x="658" y="39"/>
			<point x="646" y="50"/>
			<point x="631" y="50" type="curve" smooth="yes"/>
			<point x="533" y="50" type="line"/>
			<point x="533" y="699" type="line" smooth="yes"/>
			<point x="533" y="733"/>
			<point x="509" y="730"/>
			<point x="502" y="730" type="curve" smooth="yes"/>
			<point x="363" y="730" type="line" smooth="yes"/>
			<point x="346" y="730"/>
			<point x="334" y="720"/>
			<point x="334" y="705" type="curve" smooth="yes"/>
			<point x="334" y="692"/>
			<point x="345" y="681"/>
			<point x="363" y="679" type="curve" smooth="yes"/>
			<point x="433" y="672" type="line"/>
			<point x="433" y="465" type="line"/>
			<point x="400" y="480" type="line" smooth="yes"/>
			<point x="368" y="494"/>
			<point x="323" y="508"/>
		</contour>
		<contour>
			<point x="433" y="371" type="line"/>
			<point x="433" y="152" type="line" smooth="yes"/>
			<point x="433" y="121"/>
			<point x="432" y="111"/>
			<point x="412" y="96" type="curve" smooth="yes"/>
			<point x="372" y="66"/>
			<point x="341" y="47"/>
			<point x="304" y="47" type="curve" smooth="yes"/>
			<point x="193" y="47"/>
			<point x="172" y="154"/>
			<point x="171" y="254" type="curve" smooth="yes"/>
			<point x="170" y="372"/>
			<point x="216" y="458"/>
			<point x="287" y="458" type="curve" smooth="yes"/>
			<point x="335" y="458"/>
			<point x="367" y="425"/>
			<point x="404" y="395" type="curve" smooth="yes"/>
		</contour>
	</outline>
</glyph>
<glyph name="f" format="2">
	<advance width="700"/>
	<unicode hex="0066"/>
	<outline>
		<contour>
			<point x="515" y="663" type="curve"/>
			<point x="513" y="656"/>
			<point x="496" y="600"/>
			<point x="492" y="582" type="curve" smooth="yes"/>
			<point x="487" y="559"/>
			<point x="497" y="524"/>
			<point x="536" y="513" type="curve"/>
			<point x="572" y="503"/>
			<point x="610" y="515"/>
			<point x="623" y="565" type="curve" smooth="yes"/>
			<point x="641" y="636"/>
			<point x="580" y="733"/>
			<point x="445" y="733" type="curve" smooth="yes"/>
			<point x="297" y="733"/>
			<point x="254" y="613"/>
			<point x="254" y="529" type="curve" smooth="yes"/>
			<point x="254" y="489" type="line"/>
			<point x="137" y="489" type="line" smooth="yes"/>
			<point x="122" y="489"/>
			<point x="111" y="478"/>
			<point x="111" y="464" type="curve" smooth="yes"/>
			<point x="111" y="450"/>
			<point x="122" y="439"/>
			<point x="137" y="439" type="curve" smooth="yes"/>
			<point x="254" y="439" type="line"/>
			<point x="255" y="50" type="line"/>
			<point x="138" y="50" type="line" smooth="yes"/>
			<point x="123" y="50"/>
			<point x="111" y="39"/>
			<point x="111" y="25" type="curve" smooth="yes"/>
			<point x="111" y="11"/>
			<point x="123" y="0"/>
			<point x="138" y="0" type="curve" smooth="yes"/>
			<point x="468" y="0" type="line" smooth="yes"/>
			<point x="483" y="0"/>
			<point x="495" y="11"/>
			<point x="495" y="25" type="curve" smooth="yes"/>
			<point x="495" y="39"/>
			<point x="483" y="50"/>
			<point x="468" y="50" type="curve" smooth="yes"/>
			<point x="355" y="50" type="line"/>
			<point x="355" y="439" type="line"/>
			<point x="468" y="439" type="line" smooth="yes"/>
			<point x="483" y="439"/>
			<point x="495" y="450"/>
			<point x="495" y="464" type="curve" smooth="yes"/>
			<point x="495" y="478"/>
			<point x="483" y="489"/>
			<point x="468" y="489" type="curve" smooth="yes"/>
			<point x="355" y="489" type="line"/>
			<point x="355" y="566" type="line" smooth="yes"/>
			<point x="355" y="605"/>
			<point x="367" y="684"/>
			<point x="445" y="684" type="curve" smooth="yes"/>
			<point x="475" y="684"/>
			<point x="497" y="678"/>
		</contour>
	</outline>
</glyph>
<glyph name="g" format="2">
	<advance width="700"/>
	<unicode hex="0067"/>
	<outline>
		<contour>
			<point x="335" y="122" type="curve" smooth="yes"/>
			<point x="442" y="122"/>
			<point x="531" y="208"/>
			<point x="531" y="316" type="curve" smooth="yes"/>
			<point x="531" y="419"/>
			<point x="445" y="510"/>
			<point x="335" y="510" type="curve" smooth="yes"/>
			<point x="227" y="510"/>
			<point x="139" y="422"/>
			<point x="139" y="316" type="curve" smooth="yes"/>
			<point x="139" y="208"/>
			<point x="227" y="122"/>
		</contour>
		<contour>
			<point x="335" y="172" type="curve" smooth="yes"/>
			<point x="259" y="172"/>
			<point x="239" y="250"/>
			<point x="239" y="316" type="curve" smooth="yes"/>
			<point x="239" y="382"/>
			<point x="259" y="460"/>
			<point x="335" y="460" type="curve" smooth="yes"/>
			<point x="410" y="460"/>
			<point x="430" y="382"/>
			<point x="430" y="316" type="curve" smooth="yes"/>
			<point x="430" y="250"/>
			<point x="410" y="172"/>
		</contour>
		<contour>
			<point x="495" y="-89" type="curve" smooth="yes"/>
			<point x="489" y="-130"/>
			<point x="423" y="-170"/>
			<point x="293" y="-170" type="curve" smooth="yes"/>
			<point x="180" y="-170"/>
			<point x="147" y="-145"/>
			<point x="147" y="-95" type="curve" smooth="yes"/>
			<point x="147" y="-69"/>
			<point x="180" y="-25"/>
			<point x="258" y="-24" type="curve"/>
			<point x="187" y="5" type="line"/>
			<point x="120" y="-8"/>
			<point x="86" y="-59"/>
			<point x="86" y="-95" type="curve" smooth="yes"/>
			<point x="86" y="-170"/>
			<point x="149" y="-220"/>
			<point x="293" y="-220" type="curve" smooth="yes"/>
			<point x="477" y="-220"/>
			<point x="568" y="-157"/>
			<point x="568" y="-52" type="curve" smooth="yes"/>
			<point x="568" y="37"/>
			<point x="488" y="66"/>
			<point x="365" y="66" type="curve" smooth="yes"/>
			<point x="341" y="66"/>
			<point x="333" y="66"/>
			<point x="253" y="66" type="curve"/>
			<point x="244" y="66" type="line" smooth="yes"/>
			<point x="188" y="66"/>
			<point x="160" y="66"/>
			<point x="160" y="96" type="curve" smooth="yes"/>
			<point x="160" y="107"/>
			<point x="168" y="119"/>
			<point x="184" y="136" type="curve" smooth="yes"/>
			<point x="199" y="152"/>
			<point x="221" y="170"/>
			<point x="243" y="189" type="curve"/>
			<point x="200" y="223" type="line"/>
			<point x="180" y="205"/>
			<point x="154" y="180"/>
			<point x="127" y="149" type="curve" smooth="yes"/>
			<point x="111" y="131"/>
			<point x="98" y="106"/>
			<point x="98" y="85" type="curve" smooth="yes"/>
			<point x="98" y="19"/>
			<point x="144" y="-24"/>
			<point x="244" y="-24" type="curve" smooth="yes"/>
			<point x="269" y="-24"/>
			<point x="296" y="-24"/>
			<point x="357" y="-24" type="curve" smooth="yes"/>
			<point x="455" y="-24"/>
			<point x="503" y="-35"/>
		</contour>
		<contour>
			<point x="564" y="510" type="curve" smooth="yes"/>
			<point x="542" y="510"/>
			<point x="493" y="495"/>
			<point x="493" y="407" type="curve" smooth="yes"/>
			<point x="493" y="389" type="line"/>
			<point x="497" y="389"/>
			<point x="511" y="389"/>
			<point x="534" y="389" type="curve" smooth="yes"/>
			<point x="553" y="389"/>
			<point x="569" y="389"/>
			<point x="569" y="389" type="curve" smooth="yes"/>
			<point x="594" y="389"/>
			<point x="628" y="401"/>
			<point x="628" y="451" type="curve" smooth="yes"/>
			<point x="628" y="478"/>
			<point x="607" y="510"/>
		</contour>
	</outline>
</glyph>
<glyph name="h" format="2">
	<advance width="700"/>
	<unicode hex="0068"/>
	<outline>
		<contour>
			<point x="150" y="673" type="line"/>
			<point x="150" y="50" type="line"/>
			<point x="81" y="50" type="line" smooth="yes"/>
			<point x="66" y="50"/>
			<point x="54" y="39"/>
			<point x="54" y="25" type="curve" smooth="yes"/>
			<point x="54" y="11"/>
			<point x="66" y="0"/>
			<point x="81" y="0" type="curve" smooth="yes"/>
			<point x="319" y="0" type="line" smooth="yes"/>
			<point x="334" y="0"/>
			<point x="346" y="11"/>
			<point x="346" y="25" type="curve" smooth="yes"/>
			<point x="346" y="39"/>
			<point x="334" y="50"/>
			<point x="319" y="50" type="curve" smooth="yes"/>
			<point x="250" y="50" type="line"/>
			<point x="250" y="369" type="line"/>
			<point x="292" y="404" type="line" smooth="yes"/>
			<point x="326" y="432"/>
			<point x="360" y="450"/>
			<point x="394" y="450" type="curve" smooth="yes"/>
			<point x="440" y="450"/>
			<point x="477" y="422"/>
			<point x="477" y="355" type="curve" smooth="yes"/>
			<point x="477" y="50" type="line"/>
			<point x="408" y="50" type="line" smooth="yes"/>
			<point x="393" y="50"/>
			<point x="381" y="39"/>
			<point x="381" y="25" type="curve" smooth="yes"/>
			<point x="381" y="11"/>
			<point x="393" y="0"/>
			<point x="408" y="0" type="curve" smooth="yes"/>
			<point x="647" y="0" type="line" smooth="yes"/>
			<point x="662" y="0"/>
			<point x="674" y="10"/>
			<point x="674" y="25" type="curve" smooth="yes"/>
			<point x="674" y="40"/>
			<point x="662" y="50"/>
			<point x="647" y="50" type="curve" smooth="yes"/>
			<point x="577" y="50" type="line"/>
			<point x="577" y="338" type="line" smooth="yes"/>
			<point x="577" y="440"/>
			<point x="532" y="508"/>
			<point x="424" y="508" type="curve" smooth="yes"/>
			<point x="379" y="508"/>
			<point x="336" y="492"/>
			<point x="294" y="470" type="curve" smooth="yes"/>
			<point x="252" y="448" type="line"/>
			<point x="252" y="699" type="line"/>
			<point x="252" y="733"/>
			<point x="228" y="730"/>
			<point x="221" y="730" type="curve" smooth="yes"/>
			<point x="74" y="730" type="line" smooth="yes"/>
			<point x="58" y="730"/>
			<point x="47" y="722"/>
			<point x="47" y="706" type="curve" smooth="yes"/>
			<point x="47" y="691"/>
			<point x="56" y="684"/>
			<point x="74" y="682" type="curve" smooth="yes"/>
		</contour>
	</outline>
</glyph>
<glyph name="i" format="2">
	<advance width="700"/>
	<unicode hex="0069"/>
	<outline>
		<contour>
			<point x="96" y="25" type="curve" smooth="yes"/>
			<point x="96" y="11"/>
			<point x="108" y="0"/>
			<point x="123" y="0" type="curve" smooth="yes"/>
			<point x="577" y="0" type="line" smooth="yes"/>
			<point x="592" y="0"/>
			<point x="604" y="11"/>
			<point x="604" y="25" type="curve" smooth="yes"/>
			<point x="604" y="39"/>
			<point x="592" y="50"/>
			<point x="577" y="50" type="curve" smooth="yes"/>
			<point x="400" y="50" type="line"/>
			<point x="400" y="471" type="line" smooth="yes"/>
			<point x="400" y="500"/>
			<point x="376" y="500"/>
			<point x="366" y="500" type="curve" smooth="yes"/>
			<point x="123" y="500" type="line" smooth="yes"/>
			<point x="108" y="500"/>
			<point x="96" y="489"/>
			<point x="96" y="475" type="curve" smooth="yes"/>
			<point x="96" y="461"/>
			<point x="108" y="450"/>
			<point x="123" y="450" type="curve"/>
			<point x="300" y="436" type="line"/>
			<point x="300" y="50" type="line"/>
			<point x="123" y="50" type="line" smooth="yes"/>
			<point x="108" y="50"/>
			<point x="96" y="39"/>
		</contour>
		<contour>
			<point x="338" y="617" type="curve" smooth="yes"/>
			<point x="372" y="617"/>
			<point x="400" y="642"/>
			<point x="400" y="676" type="curve" smooth="yes"/>
			<point x="400" y="710"/>
			<point x="372" y="735"/>
			<point x="338" y="735" type="curve" smooth="yes"/>
			<point x="304" y="735"/>
			<point x="276" y="710"/>
			<point x="276" y="676" type="curve" smooth="yes"/>
			<point x="276" y="642"/>
			<point x="304" y="617"/>
		</contour>
	</outline>
</glyph>
<glyph name="j" format="2">
	<advance width="700"/>
	<unicode hex="006A"/>
	<outline>
		<contour>
			<point x="451" y="500" type="curve" smooth="yes"/>
			<point x="208" y="500" type="line" smooth="yes"/>
			<point x="193" y="500"/>
			<point x="181" y="489"/>
			<point x="181" y="475" type="curve" smooth="yes"/>
			<point x="181" y="461"/>
			<point x="193" y="450"/>
			<point x="208" y="450" type="curve"/>
			<point x="385" y="436" type="line"/>
			<point x="385" y="31" type="line" smooth="yes"/>
			<point x="385" y="-56"/>
			<point x="385" y="-170"/>
			<point x="281" y="-170" type="curve" smooth="yes"/>
			<point x="224" y="-170"/>
			<point x="219" y="-144"/>
			<point x="219" y="-144" type="curve" smooth="yes"/>
			<point x="219" y="-144"/>
			<point x="231" y="-101"/>
			<point x="237" y="-84" type="curve"/>
			<point x="245" y="-57"/>
			<point x="247" y="-21"/>
			<point x="197" y="-6" type="curve" smooth="yes"/>
			<point x="170" y="2"/>
			<point x="132" y="-8"/>
			<point x="119" y="-52" type="curve" smooth="yes"/>
			<point x="95" y="-134"/>
			<point x="178" y="-215"/>
			<point x="281" y="-215" type="curve" smooth="yes"/>
			<point x="496" y="-215"/>
			<point x="485" y="-56"/>
			<point x="485" y="31" type="curve" smooth="yes"/>
			<point x="485" y="471" type="line" smooth="yes"/>
			<point x="485" y="500"/>
			<point x="461" y="500"/>
		</contour>
		<contour>
			<point x="423" y="617" type="curve" smooth="yes"/>
			<point x="457" y="617"/>
			<point x="485" y="642"/>
			<point x="485" y="676" type="curve" smooth="yes"/>
			<point x="485" y="710"/>
			<point x="457" y="735"/>
			<point x="423" y="735" type="curve" smooth="yes"/>
			<point x="389" y="735"/>
			<point x="361" y="710"/>
			<point x="361" y="676" type="curve" smooth="yes"/>
			<point x="361" y="642"/>
			<point x="389" y="617"/>
		</contour>
	</outline>
</glyph>
<glyph name="k" format="2">
	<advance width="700"/>
	<unicode hex="006B"/>
	<outline>
		<contour>
			<point x="132" y="673" type="line"/>
			<point x="132" y="50" type="line"/>
			<point x="73" y="50" type="line" smooth="yes"/>
			<point x="56" y="50"/>
			<point x="42" y="42"/>
			<point x="42" y="25" type="curve" smooth="yes"/>
			<point x="42" y="8"/>
			<point x="56" y="0"/>
			<point x="73" y="0" type="curve" smooth="yes"/>
			<point x="302" y="0" type="line" smooth="yes"/>
			<point x="319" y="0"/>
			<point x="333" y="8"/>
			<point x="333" y="25" type="curve" smooth="yes"/>
			<point x="333" y="42"/>
			<point x="319" y="50"/>
			<point x="302" y="50" type="curve" smooth="yes"/>
			<point x="234" y="50" type="line"/>
			<point x="234" y="164" type="line"/>
			<point x="292" y="222" type="line"/>
			<point x="446" y="50" type="line"/>
			<point x="410" y="50" type="line" smooth="yes"/>
			<point x="393" y="50"/>
			<point x="379" y="42"/>
			<point x="379" y="25" type="curve" smooth="yes"/>
			<point x="379" y="8"/>
			<point x="393" y="0"/>
			<point x="410" y="0" type="curve" smooth="yes"/>
			<point x="639" y="0" type="line" smooth="yes"/>
			<point x="656" y="0"/>
			<point x="670" y="8"/>
			<point x="670" y="25" type="curve" smooth="yes"/>
			<point x="670" y="42"/>
			<point x="656" y="50"/>
			<point x="639" y="50" type="curve" smooth="yes"/>
			<point x="569" y="50" type="line"/>
			<point x="358" y="288" type="line"/>
			<point x="520" y="450" type="line"/>
			<point x="599" y="450" type="line" smooth="yes"/>
			<point x="616" y="450"/>
			<point x="630" y="458"/>
			<point x="630" y="475" type="curve" smooth="yes"/>
			<point x="630" y="492"/>
			<point x="616" y="500"/>
			<point x="599" y="500" type="curve" smooth="yes"/>
			<point x="370" y="500" type="line" smooth="yes"/>
			<point x="353" y="500"/>
			<point x="339" y="492"/>
			<point x="339" y="475" type="curve" smooth="yes"/>
			<point x="339" y="458"/>
			<point x="353" y="450"/>
			<point x="370" y="450" type="curve" smooth="yes"/>
			<point x="449" y="450" type="line"/>
			<point x="234" y="235" type="line"/>
			<point x="234" y="699" type="line" smooth="yes"/>
			<point x="234" y="733"/>
			<point x="210" y="730"/>
			<point x="203" y="730" type="curve" smooth="yes"/>
			<point x="56" y="730" type="line" smooth="yes"/>
			<point x="40" y="730"/>
			<point x="29" y="722"/>
			<point x="29" y="706" type="curve" smooth="yes"/>
			<point x="29" y="691"/>
			<point x="38" y="684"/>
			<point x="56" y="682" type="curve" smooth="yes"/>
		</contour>
	</outline>
</glyph>
<glyph name="l" format="2">
	<advance width="700"/>
	<unicode hex="006C"/>
	<outline>
		<contour>
			<point x="174" y="730" type="line" smooth="yes"/>
			<point x="157" y="730"/>
			<point x="145" y="720"/>
			<point x="145" y="705" type="curve" smooth="yes"/>
			<point x="145" y="692"/>
			<point x="155" y="681"/>
			<point x="174" y="679" type="curve"/>
			<point x="308" y="667" type="line"/>
			<point x="308" y="50" type="line"/>
			<point x="161" y="50" type="line" smooth="yes"/>
			<point x="146" y="50"/>
			<point x="134" y="39"/>
			<point x="134" y="25" type="curve" smooth="yes"/>
			<point x="134" y="11"/>
			<point x="146" y="0"/>
			<point x="161" y="0" type="curve" smooth="yes"/>
			<point x="558" y="0" type="line" smooth="yes"/>
			<point x="573" y="0"/>
			<point x="585" y="11"/>
			<point x="585" y="25" type="curve" smooth="yes"/>
			<point x="585" y="39"/>
			<point x="573" y="50"/>
			<point x="558" y="50" type="curve" smooth="yes"/>
			<point x="408" y="50" type="line"/>
			<point x="408" y="699" type="line"/>
			<point x="408" y="733"/>
			<point x="384" y="730"/>
			<point x="377" y="730" type="curve" smooth="yes"/>
		</contour>
	</outline>
</glyph>
<glyph name="m" format="2">
	<advance width="700"/>
	<unicode hex="006D"/>
	<outline>
		<contour>
			<point x="25" y="476" type="curve" smooth="yes"/>
			<point x="25" y="462"/>
			<point x="33" y="457"/>
			<point x="52" y="451" type="curve" smooth="yes"/>
			<point x="86" y="441" type="line"/>
			<point x="86" y="50" type="line"/>
			<point x="54" y="50" type="line" smooth="yes"/>
			<point x="39" y="50"/>
			<point x="28" y="39"/>
			<point x="28" y="25" type="curve" smooth="yes"/>
			<point x="28" y="11"/>
			<point x="39" y="0"/>
			<point x="54" y="0" type="curve" smooth="yes"/>
			<point x="199" y="0" type="line" smooth="yes"/>
			<point x="214" y="0"/>
			<point x="225" y="11"/>
			<point x="225" y="25" type="curve" smooth="yes"/>
			<point x="225" y="39"/>
			<point x="214" y="50"/>
			<point x="199" y="50" type="curve" smooth="yes"/>
			<point x="177" y="50" type="line"/>
			<point x="177" y="378" type="line"/>
			<point x="204" y="426"/>
			<point x="229" y="452"/>
			<point x="265" y="452" type="curve" smooth="yes"/>
			<point x="295" y="452"/>
			<point x="307" y="431"/>
			<point x="307" y="390" type="curve" smooth="yes"/>
			<point x="307" y="50" type="line"/>
			<point x="281" y="50" type="line" smooth="yes"/>
			<point x="266" y="50"/>
			<point x="255" y="39"/>
			<point x="255" y="25" type="curve" smooth="yes"/>
			<point x="255" y="11"/>
			<point x="266" y="0"/>
			<point x="281" y="0" type="curve" smooth="yes"/>
			<point x="421" y="0" type="line" smooth="yes"/>
			<point x="436" y="0"/>
			<point x="447" y="11"/>
			<point x="447" y="25" type="curve" smooth="yes"/>
			<point x="447" y="39"/>
			<point x="436" y="50"/>
			<point x="421" y="50" type="curve" smooth="yes"/>
			<point x="397" y="50" type="line"/>
			<point x="397" y="375" type="line"/>
			<point x="424" y="426"/>
			<point x="452" y="451"/>
			<point x="483" y="451" type="curve" smooth="yes"/>
			<point x="510" y="451"/>
			<point x="527" y="431"/>
			<point x="527" y="390" type="curve" smooth="yes"/>
			<point x="527" y="50" type="line"/>
			<point x="503" y="50" type="line" smooth="yes"/>
			<point x="488" y="50"/>
			<point x="477" y="39"/>
			<point x="477" y="25" type="curve" smooth="yes"/>
			<point x="477" y="11"/>
			<point x="488" y="0"/>
			<point x="503" y="0" type="curve" smooth="yes"/>
			<point x="648" y="0" type="line" smooth="yes"/>
			<point x="663" y="0"/>
			<point x="674" y="11"/>
			<point x="674" y="25" type="curve" smooth="yes"/>
			<point x="674" y="39"/>
			<point x="663" y="50"/>
			<point x="648" y="50" type="curve" smooth="yes"/>
			<point x="617" y="50" type="line"/>
			<point x="617" y="382" type="line" smooth="yes"/>
			<point x="617" y="455"/>
			<point x="586" y="508"/>
			<point x="507" y="508" type="curve" smooth="yes"/>
			<point x="458" y="508"/>
			<point x="416" y="485"/>
			<point x="387" y="447" type="curve"/>
			<point x="371" y="487"/>
			<point x="338" y="508"/>
			<point x="293" y="508" type="curve" smooth="yes"/>
			<point x="242" y="508"/>
			<point x="205" y="487"/>
			<point x="177" y="451" type="curve"/>
			<point x="164" y="476" type="line" smooth="yes"/>
			<point x="155" y="494"/>
			<point x="148" y="500"/>
			<point x="133" y="500" type="curve" smooth="yes"/>
			<point x="52" y="500" type="line" smooth="yes"/>
			<point x="36" y="500"/>
			<point x="25" y="492"/>
		</contour>
	</outline>
</glyph>
<glyph name="n" format="2">
	<advance width="700"/>
	<unicode hex="006E"/>
	<outline>
		<contour>
			<point x="141" y="50" type="line"/>
			<point x="72" y="50" type="line" smooth="yes"/>
			<point x="57" y="50"/>
			<point x="45" y="39"/>
			<point x="45" y="25" type="curve" smooth="yes"/>
			<point x="45" y="11"/>
			<point x="57" y="0"/>
			<point x="72" y="0" type="curve" smooth="yes"/>
			<point x="310" y="0" type="line" smooth="yes"/>
			<point x="325" y="0"/>
			<point x="337" y="11"/>
			<point x="337" y="25" type="curve" smooth="yes"/>
			<point x="337" y="39"/>
			<point x="325" y="50"/>
			<point x="310" y="50" type="curve" smooth="yes"/>
			<point x="241" y="50" type="line"/>
			<point x="241" y="369" type="line"/>
			<point x="283" y="404" type="line" smooth="yes"/>
			<point x="317" y="432"/>
			<point x="351" y="450"/>
			<point x="385" y="450" type="curve" smooth="yes"/>
			<point x="431" y="450"/>
			<point x="468" y="422"/>
			<point x="468" y="355" type="curve" smooth="yes"/>
			<point x="468" y="50" type="line"/>
			<point x="399" y="50" type="line" smooth="yes"/>
			<point x="384" y="50"/>
			<point x="372" y="39"/>
			<point x="372" y="25" type="curve" smooth="yes"/>
			<point x="372" y="11"/>
			<point x="384" y="0"/>
			<point x="399" y="0" type="curve" smooth="yes"/>
			<point x="637" y="0" type="line" smooth="yes"/>
			<point x="652" y="0"/>
			<point x="664" y="11"/>
			<point x="664" y="25" type="curve" smooth="yes"/>
			<point x="664" y="39"/>
			<point x="652" y="50"/>
			<point x="637" y="50" type="curve" smooth="yes"/>
			<point x="568" y="50" type="line"/>
			<point x="568" y="338" type="line" smooth="yes"/>
			<point x="568" y="440"/>
			<point x="523" y="508"/>
			<point x="415" y="508" type="curve" smooth="yes"/>
			<point x="370" y="508"/>
			<point x="327" y="492"/>
			<point x="285" y="470" type="curve" smooth="yes"/>
			<point x="243" y="448" type="line"/>
			<point x="226" y="476" type="line" smooth="yes"/>
			<point x="215" y="494"/>
			<point x="210" y="500"/>
			<point x="195" y="500" type="curve" smooth="yes"/>
			<point x="65" y="500" type="line" smooth="yes"/>
			<point x="49" y="500"/>
			<point x="38" y="492"/>
			<point x="38" y="476" type="curve" smooth="yes"/>
			<point x="38" y="461"/>
			<point x="47" y="454"/>
			<point x="65" y="452" type="curve" smooth="yes"/>
			<point x="141" y="443" type="line"/>
		</contour>
	</outline>
</glyph>
<glyph name="o" format="2">
	<advance width="700"/>
	<unicode hex="006F"/>
	<outline>
		<contour>
			<point x="350" y="-10" type="curve" smooth="yes"/>
			<point x="482" y="-10"/>
			<point x="592" y="94"/>
			<point x="592" y="250" type="curve" smooth="yes"/>
			<point x="592" y="406"/>
			<point x="482" y="510"/>
			<point x="350" y="510" type="curve" smooth="yes"/>
			<point x="218" y="510"/>
			<point x="109" y="406"/>
			<point x="109" y="250" type="curve" smooth="yes"/>
			<point x="109" y="94"/>
			<point x="218" y="-10"/>
		</contour>
		<contour>
			<point x="350" y="40" type="curve" smooth="yes"/>
			<point x="265" y="40"/>
			<point x="214" y="129"/>
			<point x="214" y="250" type="curve" smooth="yes"/>
			<point x="214" y="371"/>
			<point x="265" y="460"/>
			<point x="350" y="460" type="curve" smooth="yes"/>
			<point x="435" y="460"/>
			<point x="487" y="371"/>
			<point x="487" y="250" type="curve" smooth="yes"/>
			<point x="487" y="129"/>
			<point x="435" y="40"/>
		</contour>
	</outline>
</glyph>
<glyph name="p" format="2">
	<advance width="700"/>
	<unicode hex="0070"/>
	<outline>
		<contour>
			<point x="171" y="443" type="line"/>
			<point x="171" y="-170" type="line"/>
			<point x="66" y="-170" type="line" smooth="yes"/>
			<point x="51" y="-170"/>
			<point x="39" y="-181"/>
			<point x="39" y="-195" type="curve" smooth="yes"/>
			<point x="39" y="-209"/>
			<point x="51" y="-220"/>
			<point x="66" y="-220" type="curve" smooth="yes"/>
			<point x="387" y="-220" type="line" smooth="yes"/>
			<point x="402" y="-220"/>
			<point x="414" y="-209"/>
			<point x="414" y="-195" type="curve" smooth="yes"/>
			<point x="414" y="-181"/>
			<point x="402" y="-170"/>
			<point x="387" y="-170" type="curve" smooth="yes"/>
			<point x="272" y="-170" type="line"/>
			<point x="272" y="35" type="line"/>
			<point x="295" y="23"/>
			<point x="346" y="-8"/>
			<point x="414" y="-8" type="curve" smooth="yes"/>
			<point x="569" y="-8"/>
			<point x="640" y="128"/>
			<point x="640" y="254" type="curve" smooth="yes"/>
			<point x="640" y="404"/>
			<point x="546" y="508"/>
			<point x="416" y="508" type="curve" smooth="yes"/>
			<point x="380" y="508"/>
			<point x="335" y="495"/>
			<point x="303" y="480" type="curve" smooth="yes"/>
			<point x="266" y="463" type="line"/>
			<point x="257" y="476" type="line"/>
			<point x="246" y="494"/>
			<point x="241" y="500"/>
			<point x="226" y="500" type="curve" smooth="yes"/>
			<point x="95" y="500" type="line" smooth="yes"/>
			<point x="79" y="500"/>
			<point x="68" y="492"/>
			<point x="68" y="476" type="curve" smooth="yes"/>
			<point x="68" y="461"/>
			<point x="77" y="454"/>
			<point x="95" y="452" type="curve" smooth="yes"/>
		</contour>
		<contour>
			<point x="270" y="371" type="line"/>
			<point x="299" y="395" type="line" smooth="yes"/>
			<point x="336" y="425"/>
			<point x="368" y="458"/>
			<point x="416" y="458" type="curve" smooth="yes"/>
			<point x="487" y="458"/>
			<point x="533" y="372"/>
			<point x="532" y="254" type="curve" smooth="yes"/>
			<point x="531" y="154"/>
			<point x="510" y="47"/>
			<point x="399" y="47" type="curve" smooth="yes"/>
			<point x="362" y="47"/>
			<point x="331" y="66"/>
			<point x="291" y="96" type="curve" smooth="yes"/>
			<point x="271" y="111"/>
			<point x="270" y="121"/>
			<point x="270" y="152" type="curve" smooth="yes"/>
		</contour>
	</outline>
</glyph>
<glyph name="q" format="2">
	<advance width="700"/>
	<unicode hex="0071"/>
	<outline>
		<contour>
			<point x="324" y="508" type="curve" smooth="yes"/>
			<point x="194" y="508"/>
			<point x="100" y="404"/>
			<point x="100" y="254" type="curve" smooth="yes"/>
			<point x="100" y="128"/>
			<point x="171" y="-8"/>
			<point x="326" y="-8" type="curve" smooth="yes"/>
			<point x="394" y="-8"/>
			<point x="446" y="23"/>
			<point x="469" y="35" type="curve"/>
			<point x="469" y="-170" type="line"/>
			<point x="353" y="-170" type="line" smooth="yes"/>
			<point x="338" y="-170"/>
			<point x="326" y="-181"/>
			<point x="326" y="-195" type="curve" smooth="yes"/>
			<point x="326" y="-209"/>
			<point x="338" y="-220"/>
			<point x="353" y="-220" type="curve" smooth="yes"/>
			<point x="674" y="-220" type="line" smooth="yes"/>
			<point x="689" y="-220"/>
			<point x="701" y="-209"/>
			<point x="701" y="-195" type="curve" smooth="yes"/>
			<point x="701" y="-181"/>
			<point x="689" y="-170"/>
			<point x="674" y="-170" type="curve" smooth="yes"/>
			<point x="569" y="-170" type="line"/>
			<point x="569" y="469" type="line" smooth="yes"/>
			<point x="569" y="503"/>
			<point x="545" y="500"/>
			<point x="538" y="500" type="curve" smooth="yes"/>
			<point x="514" y="500" type="line" smooth="yes"/>
			<point x="499" y="500"/>
			<point x="494" y="494"/>
			<point x="483" y="476" type="curve"/>
			<point x="474" y="463" type="line"/>
			<point x="437" y="480" type="line" smooth="yes"/>
			<point x="405" y="495"/>
			<point x="360" y="508"/>
		</contour>
		<contour>
			<point x="470" y="371" type="line"/>
			<point x="470" y="152" type="line" smooth="yes"/>
			<point x="470" y="121"/>
			<point x="469" y="111"/>
			<point x="449" y="96" type="curve" smooth="yes"/>
			<point x="409" y="66"/>
			<point x="378" y="47"/>
			<point x="341" y="47" type="curve" smooth="yes"/>
			<point x="230" y="47"/>
			<point x="209" y="154"/>
			<point x="208" y="254" type="curve" smooth="yes"/>
			<point x="207" y="372"/>
			<point x="253" y="458"/>
			<point x="324" y="458" type="curve" smooth="yes"/>
			<point x="372" y="458"/>
			<point x="404" y="425"/>
			<point x="441" y="395" type="curve" smooth="yes"/>
		</contour>
	</outline>
</glyph>
<glyph name="r" format="2">
	<advance width="700"/>
	<unicode hex="0072"/>
	<outline>
		<contour>
			<point x="223" y="439" type="line"/>
			<point x="223" y="50" type="line"/>
			<point x="109" y="50" type="line" smooth="yes"/>
			<point x="94" y="50"/>
			<point x="82" y="39"/>
			<point x="82" y="25" type="curve" smooth="yes"/>
			<point x="82" y="11"/>
			<point x="94" y="0"/>
			<point x="109" y="0" type="curve" smooth="yes"/>
			<point x="438" y="0" type="line" smooth="yes"/>
			<point x="453" y="0"/>
			<point x="465" y="11"/>
			<point x="465" y="25" type="curve" smooth="yes"/>
			<point x="465" y="39"/>
			<point x="453" y="50"/>
			<point x="438" y="50" type="curve" smooth="yes"/>
			<point x="323" y="50" type="line"/>
			<point x="323" y="348" type="line"/>
			<point x="323" y="348"/>
			<point x="401" y="410"/>
			<point x="422" y="426" type="curve" smooth="yes"/>
			<point x="451" y="448"/>
			<point x="475" y="456"/>
			<point x="493" y="456" type="curve"/>
			<point x="493" y="420"/>
			<point x="493" y="419"/>
			<point x="493" y="391" type="curve" smooth="yes"/>
			<point x="493" y="364"/>
			<point x="503" y="327"/>
			<point x="555" y="327" type="curve" smooth="yes"/>
			<point x="584" y="327"/>
			<point x="617" y="348"/>
			<point x="617" y="396" type="curve" smooth="yes"/>
			<point x="617" y="481"/>
			<point x="557" y="507"/>
			<point x="498" y="507" type="curve" smooth="yes"/>
			<point x="458" y="507"/>
			<point x="415" y="487"/>
			<point x="374" y="467" type="curve" smooth="yes"/>
			<point x="326" y="443" type="line"/>
			<point x="307" y="476" type="line"/>
			<point x="296" y="493"/>
			<point x="290" y="500"/>
			<point x="275" y="500" type="curve" smooth="yes"/>
			<point x="109" y="500" type="line" smooth="yes"/>
			<point x="93" y="500"/>
			<point x="82" y="489"/>
			<point x="82" y="476" type="curve" smooth="yes"/>
			<point x="82" y="463"/>
			<point x="91" y="454"/>
			<point x="109" y="452" type="curve"/>
		</contour>
	</outline>
</glyph>
<glyph name="s" format="2">
	<advance width="700"/>
	<unicode hex="0073"/>
	<outline>
		<contour>
			<point x="363" y="39" type="curve" smooth="yes"/>
			<point x="313" y="39"/>
			<point x="261" y="68"/>
			<point x="228" y="101" type="curve" smooth="yes"/>
			<point x="194" y="135"/>
			<point x="181" y="172"/>
			<point x="173" y="182" type="curve"/>
			<point x="169" y="188"/>
			<point x="163" y="192"/>
			<point x="153" y="192" type="curve" smooth="yes"/>
			<point x="139" y="192"/>
			<point x="128" y="180"/>
			<point x="128" y="165" type="curve" smooth="yes"/>
			<point x="128" y="26" type="line" smooth="yes"/>
			<point x="128" y="11"/>
			<point x="139" y="-1"/>
			<point x="153" y="-1" type="curve" smooth="yes"/>
			<point x="167" y="-1"/>
			<point x="178" y="11"/>
			<point x="178" y="26" type="curve" smooth="yes"/>
			<point x="178" y="71" type="line"/>
			<point x="189" y="55"/>
			<point x="265" y="-11"/>
			<point x="359" y="-11" type="curve" smooth="yes"/>
			<point x="480" y="-11"/>
			<point x="557" y="52"/>
			<point x="557" y="151" type="curve" smooth="yes"/>
			<point x="557" y="238"/>
			<point x="504" y="263"/>
			<point x="411" y="290" type="curve" smooth="yes"/>
			<point x="343" y="309" type="line" smooth="yes"/>
			<point x="282" y="326"/>
			<point x="225" y="339"/>
			<point x="225" y="394" type="curve" smooth="yes"/>
			<point x="225" y="429"/>
			<point x="243" y="461"/>
			<point x="315" y="461" type="curve" smooth="yes"/>
			<point x="395" y="461"/>
			<point x="430" y="417"/>
			<point x="443" y="399" type="curve" smooth="yes"/>
			<point x="472" y="359"/>
			<point x="476" y="351"/>
			<point x="484" y="341" type="curve"/>
			<point x="488" y="335"/>
			<point x="494" y="331"/>
			<point x="504" y="331" type="curve" smooth="yes"/>
			<point x="518" y="331"/>
			<point x="529" y="343"/>
			<point x="529" y="358" type="curve" smooth="yes"/>
			<point x="529" y="474" type="line" smooth="yes"/>
			<point x="529" y="489"/>
			<point x="518" y="501"/>
			<point x="504" y="501" type="curve" smooth="yes"/>
			<point x="490" y="501"/>
			<point x="479" y="489"/>
			<point x="479" y="474" type="curve" smooth="yes"/>
			<point x="479" y="448" type="line"/>
			<point x="422" y="500"/>
			<point x="367" y="511"/>
			<point x="312" y="511" type="curve" smooth="yes"/>
			<point x="207" y="511"/>
			<point x="140" y="462"/>
			<point x="140" y="376" type="curve" smooth="yes"/>
			<point x="140" y="278"/>
			<point x="207" y="254"/>
			<point x="275" y="231" type="curve" smooth="yes"/>
			<point x="290" y="226"/>
			<point x="331" y="214"/>
			<point x="348" y="209" type="curve" smooth="yes"/>
			<point x="425" y="186"/>
			<point x="469" y="168"/>
			<point x="469" y="124" type="curve" smooth="yes"/>
			<point x="469" y="67"/>
			<point x="435" y="39"/>
		</contour>
	</outline>
</glyph>
<glyph name="t" format="2">
	<advance width="700"/>
	<unicode hex="0074"/>
	<outline>
		<contour>
			<point x="357" y="147" type="curve"/>
			<point x="357" y="450" type="line"/>
			<point x="499" y="450" type="line" smooth="yes"/>
			<point x="515" y="450"/>
			<point x="526" y="461"/>
			<point x="526" y="475" type="curve" smooth="yes"/>
			<point x="526" y="489"/>
			<point x="515" y="500"/>
			<point x="499" y="500" type="curve" smooth="yes"/>
			<point x="357" y="500" type="line"/>
			<point x="357" y="704" type="line" smooth="yes"/>
			<point x="357" y="726"/>
			<point x="344" y="738"/>
			<point x="327" y="738" type="curve" smooth="yes"/>
			<point x="310" y="738"/>
			<point x="297" y="726"/>
			<point x="297" y="704" type="curve" smooth="yes"/>
			<point x="297" y="674" type="line" smooth="yes"/>
			<point x="297" y="607"/>
			<point x="280" y="500"/>
			<point x="176" y="500" type="curve"/>
			<point x="108" y="500" type="line" smooth="yes"/>
			<point x="92" y="500"/>
			<point x="81" y="489"/>
			<point x="81" y="475" type="curve" smooth="yes"/>
			<point x="81" y="461"/>
			<point x="92" y="450"/>
			<point x="108" y="450" type="curve" smooth="yes"/>
			<point x="239" y="450" type="line" smooth="yes"/>
			<point x="256" y="450"/>
			<point x="257" y="439"/>
			<point x="257" y="425" type="curve" smooth="yes"/>
			<point x="257" y="157" type="line" smooth="yes"/>
			<point x="257" y="113"/>
			<point x="255" y="-18"/>
			<point x="430" y="-18" type="curve" smooth="yes"/>
			<point x="591" y="-18"/>
			<point x="605" y="186"/>
			<point x="609" y="216" type="curve" smooth="yes"/>
			<point x="611" y="230"/>
			<point x="610" y="251"/>
			<point x="586" y="252" type="curve"/>
			<point x="564" y="252"/>
			<point x="562" y="233"/>
			<point x="560" y="218" type="curve" smooth="yes"/>
			<point x="553" y="167"/>
			<point x="521" y="32"/>
			<point x="430" y="32" type="curve" smooth="yes"/>
			<point x="354" y="32"/>
			<point x="357" y="119"/>
		</contour>
	</outline>
</glyph>
<glyph name="v" format="2">
	<advance width="700"/>
	<unicode hex="0076"/>
	<outline>
		<contour>
			<point x="130" y="450" type="line"/>
			<point x="339" y="6" type="line"/>
			<point x="342" y="0"/>
			<point x="348" y="-6"/>
			<point x="356" y="-6" type="curve"/>
			<point x="367" y="-6"/>
			<point x="371" y="0"/>
			<point x="374" y="6" type="curve"/>
			<point x="569" y="450" type="line"/>
			<point x="636" y="450" type="line" smooth="yes"/>
			<point x="651" y="450"/>
			<point x="662" y="461"/>
			<point x="662" y="475" type="curve" smooth="yes"/>
			<point x="662" y="489"/>
			<point x="651" y="500"/>
			<point x="636" y="500" type="curve" smooth="yes"/>
			<point x="428" y="500" type="line" smooth="yes"/>
			<point x="413" y="500"/>
			<point x="401" y="489"/>
			<point x="401" y="475" type="curve" smooth="yes"/>
			<point x="401" y="461"/>
			<point x="413" y="450"/>
			<point x="428" y="450" type="curve" smooth="yes"/>
			<point x="508" y="450" type="line"/>
			<point x="378" y="158" type="line"/>
			<point x="251" y="450" type="line"/>
			<point x="322" y="450" type="line" smooth="yes"/>
			<point x="337" y="450"/>
			<point x="349" y="461"/>
			<point x="349" y="475" type="curve" smooth="yes"/>
			<point x="349" y="489"/>
			<point x="337" y="500"/>
			<point x="322" y="500" type="curve" smooth="yes"/>
			<point x="61" y="500" type="line" smooth="yes"/>
			<point x="46" y="500"/>
			<point x="34" y="489"/>
			<point x="34" y="475" type="curve" smooth="yes"/>
			<point x="34" y="461"/>
			<point x="46" y="450"/>
			<point x="61" y="450" type="curve" smooth="yes"/>
		</contour>
	</outline>
</glyph>
<glyph name="x" format="2">
	<advance width="700"/>
	<unicode hex="0078"/>
	<outline>
		<contour>
			<point x="55" y="25" type="curve" smooth="yes"/>
			<point x="55" y="8"/>
			<point x="68" y="0"/>
			<point x="83" y="0" type="curve" smooth="yes"/>
			<point x="280" y="0" type="line" smooth="yes"/>
			<point x="295" y="0"/>
			<point x="308" y="8"/>
			<point x="308" y="25" type="curve" smooth="yes"/>
			<point x="308" y="42"/>
			<point x="295" y="50"/>
			<point x="280" y="50" type="curve" smooth="yes"/>
			<point x="215" y="50" type="line"/>
			<point x="339" y="203" type="line"/>
			<point x="448" y="50" type="line"/>
			<point x="403" y="50" type="line" smooth="yes"/>
			<point x="388" y="50"/>
			<point x="375" y="42"/>
			<point x="375" y="25" type="curve" smooth="yes"/>
			<point x="375" y="8"/>
			<point x="388" y="0"/>
			<point x="403" y="0" type="curve" smooth="yes"/>
			<point x="624" y="0" type="line" smooth="yes"/>
			<point x="639" y="0"/>
			<point x="652" y="8"/>
			<point x="652" y="25" type="curve" smooth="yes"/>
			<point x="652" y="42"/>
			<point x="639" y="50"/>
			<point x="624" y="50" type="curve" smooth="yes"/>
			<point x="573" y="50" type="line"/>
			<point x="405" y="285" type="line"/>
			<point x="539" y="450" type="line"/>
			<point x="594" y="450" type="line" smooth="yes"/>
			<point x="609" y="450"/>
			<point x="622" y="458"/>
			<point x="622" y="475" type="curve" smooth="yes"/>
			<point x="622" y="492"/>
			<point x="609" y="500"/>
			<point x="594" y="500" type="curve" smooth="yes"/>
			<point x="425" y="500" type="line" smooth="yes"/>
			<point x="410" y="500"/>
			<point x="397" y="492"/>
			<point x="397" y="475" type="curve" smooth="yes"/>
			<point x="397" y="458"/>
			<point x="410" y="450"/>
			<point x="425" y="450" type="curve" smooth="yes"/>
			<point x="469" y="450" type="line"/>
			<point x="372" y="331" type="line"/>
			<point x="287" y="450" type="line"/>
			<point x="318" y="450" type="line" smooth="yes"/>
			<point x="333" y="450"/>
			<point x="346" y="458"/>
			<point x="346" y="475" type="curve" smooth="yes"/>
			<point x="346" y="492"/>
			<point x="333" y="500"/>
			<point x="318" y="500" type="curve" smooth="yes"/>
			<point x="113" y="500" type="line" smooth="yes"/>
			<point x="98" y="500"/>
			<point x="85" y="492"/>
			<point x="85" y="475" type="curve" smooth="yes"/>
			<point x="85" y="458"/>
			<point x="98" y="450"/>
			<point x="113" y="450" type="curve" smooth="yes"/>
			<point x="162" y="450" type="line"/>
			<point x="306" y="249" type="line"/>
			<point x="145" y="50" type="line"/>
			<point x="83" y="50" type="line" smooth="yes"/>
			<point x="68" y="50"/>
			<point x="55" y="42"/>
		</contour>
	</outline>
</glyph>
<glyph name="y" format="2">
	<advance width="700"/>
	<unicode hex="0079"/>
	<outline>
		<contour>
			<point x="148" y="450" type="line"/>
			<point x="335" y="31" type="line"/>
			<point x="276" y="-105"/>
			<point x="242" y="-169"/>
			<point x="199" y="-172" type="curve" smooth="yes"/>
			<point x="182" y="-173"/>
			<point x="173" y="-168"/>
			<point x="173" y="-169" type="curve"/>
			<point x="173" y="-160"/>
			<point x="173" y="-107"/>
			<point x="173" y="-80" type="curve" smooth="yes"/>
			<point x="173" y="-53"/>
			<point x="164" y="-18"/>
			<point x="112" y="-18" type="curve" smooth="yes"/>
			<point x="84" y="-18"/>
			<point x="51" y="-39"/>
			<point x="51" y="-85" type="curve" smooth="yes"/>
			<point x="51" y="-119"/>
			<point x="75" y="-219"/>
			<point x="185" y="-219" type="curve" smooth="yes"/>
			<point x="273" y="-219"/>
			<point x="308" y="-186"/>
			<point x="397" y="20" type="curve" smooth="yes"/>
			<point x="580" y="450" type="line"/>
			<point x="639" y="450" type="line" smooth="yes"/>
			<point x="655" y="450"/>
			<point x="668" y="458"/>
			<point x="668" y="475" type="curve" smooth="yes"/>
			<point x="668" y="492"/>
			<point x="655" y="500"/>
			<point x="639" y="500" type="curve" smooth="yes"/>
			<point x="456" y="500" type="line" smooth="yes"/>
			<point x="440" y="500"/>
			<point x="427" y="492"/>
			<point x="427" y="475" type="curve" smooth="yes"/>
			<point x="427" y="458"/>
			<point x="440" y="450"/>
			<point x="456" y="450" type="curve" smooth="yes"/>
			<point x="512" y="450" type="line"/>
			<point x="384" y="152" type="line"/>
			<point x="256" y="450" type="line"/>
			<point x="311" y="450" type="line" smooth="yes"/>
			<point x="327" y="450"/>
			<point x="341" y="458"/>
			<point x="341" y="475" type="curve" smooth="yes"/>
			<point x="341" y="492"/>
			<point x="327" y="500"/>
			<point x="311" y="500" type="curve" smooth="yes"/>
			<point x="98" y="500" type="line" smooth="yes"/>
			<point x="82" y="500"/>
			<point x="69" y="492"/>
			<point x="69" y="475" type="curve" smooth="yes"/>
			<point x="69" y="458"/>
			<point x="82" y="450"/>
			<point x="98" y="450" type="curve" smooth="yes"/>
		</contour>
	</outline>
</glyph>
<glyph name="z" format="2">
	<advance width="700"/>
	<unicode hex="007A"/>
	<outline>
		<contour>
			<point x="201" y="500" type="line" smooth="yes"/>
			<point x="177" y="500"/>
			<point x="157" y="500"/>
			<point x="155" y="467" type="curve" smooth="yes"/>
			<point x="150" y="363" type="line" smooth="yes"/>
			<point x="149" y="346"/>
			<point x="161" y="334"/>
			<point x="176" y="334" type="curve" smooth="yes"/>
			<point x="189" y="334"/>
			<point x="198" y="344"/>
			<point x="201" y="363" type="curve" smooth="yes"/>
			<point x="204" y="382"/>
			<point x="203" y="450"/>
			<point x="266" y="450" type="curve" smooth="yes"/>
			<point x="441" y="450" type="line"/>
			<point x="158" y="59" type="line" smooth="yes"/>
			<point x="147" y="44"/>
			<point x="130" y="25"/>
			<point x="137" y="10" type="curve" smooth="yes"/>
			<point x="141" y="1"/>
			<point x="148" y="0"/>
			<point x="160" y="0" type="curve" smooth="yes"/>
			<point x="518" y="0" type="line" smooth="yes"/>
			<point x="542" y="0"/>
			<point x="560" y="0"/>
			<point x="562" y="33" type="curve" smooth="yes"/>
			<point x="567" y="138" type="line" smooth="yes"/>
			<point x="568" y="155"/>
			<point x="556" y="167"/>
			<point x="541" y="167" type="curve" smooth="yes"/>
			<point x="528" y="167"/>
			<point x="518" y="157"/>
			<point x="516" y="138" type="curve"/>
			<point x="513" y="119"/>
			<point x="504" y="50"/>
			<point x="441" y="50" type="curve" smooth="yes"/>
			<point x="260" y="50" type="line"/>
			<point x="543" y="441" type="line" smooth="yes"/>
			<point x="553" y="455"/>
			<point x="571" y="476"/>
			<point x="564" y="490" type="curve" smooth="yes"/>
			<point x="559" y="500"/>
			<point x="552" y="500"/>
			<point x="539" y="500" type="curve" smooth="yes"/>
		</contour>
	</outline>
</glyph>
<glyph name="braceleft" format="2">
	<advance width="700"/>
	<unicode hex="007B"/>
	<outline>
		<contour>
			<point x="219" y="370" type="curve"/>
			<point x="289" y="395"/>
			<point x="307" y="454"/>
			<point x="296" y="516" type="curve" smooth="yes"/>
			<point x="280" y="605" type="line" smooth="yes"/>
			<point x="260" y="714"/>
			<point x="309" y="789"/>
			<point x="379" y="789" type="curve" smooth="yes"/>
			<point x="426" y="789"/>
			<point x="439" y="770"/>
			<point x="442" y="763" type="curve"/>
			<point x="440" y="756"/>
			<point x="430" y="706"/>
			<point x="426" y="688" type="curve" smooth="yes"/>
			<point x="422" y="670"/>
			<point x="431" y="630"/>
			<point x="470" y="619" type="curve"/>
			<point x="506" y="609"/>
			<point x="544" y="621"/>
			<point x="557" y="671" type="curve" smooth="yes"/>
			<point x="575" y="742"/>
			<point x="504" y="839"/>
			<point x="389" y="839" type="curve" smooth="yes"/>
			<point x="293" y="839"/>
			<point x="203" y="755"/>
			<point x="229" y="606" type="curve" smooth="yes"/>
			<point x="247" y="504" type="line" smooth="yes"/>
			<point x="260" y="430"/>
			<point x="185" y="406"/>
			<point x="153" y="395" type="curve" smooth="yes"/>
			<point x="139" y="390"/>
			<point x="126" y="384"/>
			<point x="126" y="370" type="curve" smooth="yes"/>
			<point x="126" y="356"/>
			<point x="139" y="350"/>
			<point x="153" y="345" type="curve" smooth="yes"/>
			<point x="185" y="334"/>
			<point x="260" y="310"/>
			<point x="247" y="236" type="curve" smooth="yes"/>
			<point x="229" y="134" type="line" smooth="yes"/>
			<point x="203" y="-15"/>
			<point x="293" y="-99"/>
			<point x="389" y="-99" type="curve" smooth="yes"/>
			<point x="504" y="-99"/>
			<point x="575" y="-2"/>
			<point x="557" y="69" type="curve" smooth="yes"/>
			<point x="544" y="119"/>
			<point x="506" y="131"/>
			<point x="470" y="121" type="curve"/>
			<point x="431" y="110"/>
			<point x="422" y="70"/>
			<point x="426" y="52" type="curve" smooth="yes"/>
			<point x="430" y="34"/>
			<point x="440" y="-16"/>
			<point x="442" y="-23" type="curve"/>
			<point x="439" y="-30"/>
			<point x="426" y="-49"/>
			<point x="379" y="-49" type="curve" smooth="yes"/>
			<point x="309" y="-49"/>
			<point x="260" y="26"/>
			<point x="280" y="135" type="curve" smooth="yes"/>
			<point x="296" y="224" type="line" smooth="yes"/>
			<point x="307" y="286"/>
			<point x="289" y="345"/>
		</contour>
	</outline>
</glyph>
<glyph name="bar" format="2">
	<advance width="700"/>
	<unicode hex="007C"/>
	<outline>
		<contour>
			<point x="374" y="-3" type="curve" smooth="yes"/>
			<point x="374" y="733" type="line" smooth="yes"/>
			<point x="374" y="748"/>
			<point x="364" y="760"/>
			<point x="349" y="760" type="curve" smooth="yes"/>
			<point x="334" y="760"/>
			<point x="324" y="748"/>
			<point x="324" y="733" type="curve" smooth="yes"/>
			<point x="324" y="-3" type="line" smooth="yes"/>
			<point x="324" y="-18"/>
			<point x="334" y="-30"/>
			<point x="349" y="-30" type="curve" smooth="yes"/>
			<point x="364" y="-30"/>
			<point x="374" y="-18"/>
		</contour>
	</outline>
</glyph>
<glyph name="braceright" format="2">
	<advance width="700"/>
	<unicode hex="007D"/>
	<outline>
		<contour>
			<point x="481" y="370" type="curve"/>
			<point x="411" y="345"/>
			<point x="393" y="286"/>
			<point x="404" y="224" type="curve" smooth="yes"/>
			<point x="420" y="135" type="line" smooth="yes"/>
			<point x="440" y="26"/>
			<point x="391" y="-49"/>
			<point x="321" y="-49" type="curve" smooth="yes"/>
			<point x="274" y="-49"/>
			<point x="261" y="-30"/>
			<point x="258" y="-23" type="curve"/>
			<point x="260" y="-16"/>
			<point x="270" y="34"/>
			<point x="274" y="52" type="curve" smooth="yes"/>
			<point x="278" y="70"/>
			<point x="269" y="110"/>
			<point x="230" y="121" type="curve"/>
			<point x="194" y="131"/>
			<point x="156" y="119"/>
			<point x="143" y="69" type="curve" smooth="yes"/>
			<point x="125" y="-2"/>
			<point x="196" y="-99"/>
			<point x="311" y="-99" type="curve" smooth="yes"/>
			<point x="407" y="-99"/>
			<point x="497" y="-15"/>
			<point x="471" y="134" type="curve" smooth="yes"/>
			<point x="453" y="236" type="line" smooth="yes"/>
			<point x="440" y="310"/>
			<point x="515" y="334"/>
			<point x="547" y="345" type="curve" smooth="yes"/>
			<point x="561" y="350"/>
			<point x="574" y="356"/>
			<point x="574" y="370" type="curve" smooth="yes"/>
			<point x="574" y="384"/>
			<point x="561" y="390"/>
			<point x="547" y="395" type="curve" smooth="yes"/>
			<point x="515" y="406"/>
			<point x="440" y="430"/>
			<point x="453" y="504" type="curve" smooth="yes"/>
			<point x="471" y="606" type="line" smooth="yes"/>
			<point x="497" y="755"/>
			<point x="407" y="839"/>
			<point x="311" y="839" type="curve" smooth="yes"/>
			<point x="196" y="839"/>
			<point x="125" y="742"/>
			<point x="143" y="671" type="curve" smooth="yes"/>
			<point x="156" y="621"/>
			<point x="194" y="609"/>
			<point x="230" y="619" type="curve"/>
			<point x="269" y="630"/>
			<point x="278" y="670"/>
			<point x="274" y="688" type="curve" smooth="yes"/>
			<point x="270" y="706"/>
			<point x="260" y="756"/>
			<point x="258" y="763" type="curve"/>
			<point x="261" y="770"/>
			<point x="274" y="789"/>
			<point x="321" y="789" type="curve" smooth="yes"/>
			<point x="391" y="789"/>
			<point x="440" y="714"/>
			<point x="420" y="605" type="curve" smooth="yes"/>
			<point x="404" y="516" type="line" smooth="yes"/>
			<point x="393" y="454"/>
			<point x="411" y="395"/>
		</contour>
	</outline>
</glyph>
<glyph name="asciitilde" format="2">
	<advance width="700"/>
	<unicode hex="007E"/>
	<outline>
		<contour>
			<point x="273" y="258" type="curve" smooth="yes"/>
			<point x="331" y="258"/>
			<point x="355" y="191"/>
			<point x="425" y="191" type="curve" smooth="yes"/>
			<point x="465" y="191"/>
			<point x="511" y="207"/>
			<point x="542" y="270" type="curve" smooth="yes"/>
			<point x="559" y="304"/>
			<point x="513" y="328"/>
			<point x="492" y="289" type="curve" smooth="yes"/>
			<point x="474" y="255"/>
			<point x="452" y="242"/>
			<point x="425" y="242" type="curve" smooth="yes"/>
			<point x="383" y="242"/>
			<point x="350" y="310"/>
			<point x="273" y="308" type="curve" smooth="yes"/>
			<point x="232" y="307"/>
			<point x="187" y="294"/>
			<point x="157" y="231" type="curve" smooth="yes"/>
			<point x="141" y="197"/>
			<point x="186" y="173"/>
			<point x="206" y="210" type="curve" smooth="yes"/>
			<point x="225" y="245"/>
			<point x="246" y="258"/>
		</contour>
	</outline>
</glyph>
<glyph name="exclamdown" format="2">
	<advance width="700"/>
	<unicode hex="00A1"/>
	<outline>
		<contour>
			<point x="323" y="332" type="curve" smooth="yes"/>
			<point x="281" y="-93" type="line" smooth="yes"/>
			<point x="276" y="-141"/>
			<point x="312" y="-172"/>
			<point x="350" y="-172" type="curve" smooth="yes"/>
			<point x="388" y="-172"/>
			<point x="424" y="-141"/>
			<point x="419" y="-93" type="curve" smooth="yes"/>
			<point x="373" y="333" type="line" smooth="yes"/>
			<point x="371" y="348"/>
			<point x="362" y="360"/>
			<point x="348" y="360" type="curve" smooth="yes"/>
			<point x="334" y="360"/>
			<point x="325" y="348"/>
		</contour>
		<contour>
			<point x="348" y="558" type="curve" smooth="yes"/>
			<point x="314" y="558"/>
			<point x="286" y="533"/>
			<point x="286" y="499" type="curve" smooth="yes"/>
			<point x="286" y="465"/>
			<point x="314" y="440"/>
			<point x="348" y="440" type="curve" smooth="yes"/>
			<point x="382" y="440"/>
			<point x="410" y="465"/>
			<point x="410" y="499" type="curve" smooth="yes"/>
			<point x="410" y="533"/>
			<point x="382" y="558"/>
		</contour>
	</outline>
</glyph>
<glyph name="cent" format="2">
	<advance width="700"/>
	<unicode hex="00A2"/>
	<outline>
		<contour>
			<point x="127" y="247" type="curve" smooth="yes"/>
			<point x="127" y="67"/>
			<point x="274" y="-5"/>
			<point x="371" y="-5" type="curve" smooth="yes"/>
			<point x="425" y="-5"/>
			<point x="480" y="16"/>
			<point x="536" y="75" type="curve" smooth="yes"/>
			<point x="574" y="115"/>
			<point x="579" y="139"/>
			<point x="564" y="152" type="curve" smooth="yes"/>
			<point x="552" y="162"/>
			<point x="535" y="159"/>
			<point x="520" y="141" type="curve" smooth="yes"/>
			<point x="479" y="92"/>
			<point x="444" y="45"/>
			<point x="362" y="45" type="curve" smooth="yes"/>
			<point x="259" y="45"/>
			<point x="237" y="171"/>
			<point x="237" y="247" type="curve" smooth="yes"/>
			<point x="237" y="332"/>
			<point x="255" y="460"/>
			<point x="370" y="460" type="curve" smooth="yes"/>
			<point x="397" y="460"/>
			<point x="427" y="455"/>
			<point x="441" y="442" type="curve"/>
			<point x="441" y="435"/>
			<point x="441" y="392"/>
			<point x="441" y="365" type="curve" smooth="yes"/>
			<point x="441" y="338"/>
			<point x="450" y="303"/>
			<point x="502" y="303" type="curve" smooth="yes"/>
			<point x="530" y="303"/>
			<point x="563" y="324"/>
			<point x="563" y="370" type="curve" smooth="yes"/>
			<point x="563" y="455"/>
			<point x="467" y="510"/>
			<point x="370" y="510" type="curve" smooth="yes"/>
			<point x="276" y="510"/>
			<point x="127" y="447"/>
		</contour>
		<contour>
			<point x="200" y="-77" type="curve" smooth="yes"/>
			<point x="568" y="561" type="line" smooth="yes"/>
			<point x="576" y="574"/>
			<point x="573" y="590"/>
			<point x="560" y="597" type="curve" smooth="yes"/>
			<point x="547" y="604"/>
			<point x="532" y="599"/>
			<point x="524" y="586" type="curve" smooth="yes"/>
			<point x="157" y="-51" type="line" smooth="yes"/>
			<point x="150" y="-64"/>
			<point x="153" y="-79"/>
			<point x="165" y="-87" type="curve" smooth="yes"/>
			<point x="178" y="-96"/>
			<point x="193" y="-90"/>
		</contour>
	</outline>
</glyph>
<glyph name="sterling" format="2">
	<advance width="700"/>
	<unicode hex="00A3"/>
	<outline>
		<contour>
			<point x="264" y="90" type="curve"/>
			<point x="247" y="59"/>
			<point x="218" y="44"/>
			<point x="191" y="44" type="curve" smooth="yes"/>
			<point x="166" y="44"/>
			<point x="152" y="62"/>
			<point x="152" y="84" type="curve" smooth="yes"/>
			<point x="152" y="104"/>
			<point x="167" y="119"/>
			<point x="191" y="119" type="curve" smooth="yes"/>
			<point x="208" y="119"/>
			<point x="232" y="113"/>
		</contour>
		<contour>
			<point x="418" y="683" type="curve" smooth="yes"/>
			<point x="455" y="683"/>
			<point x="484" y="673"/>
			<point x="491" y="658" type="curve" smooth="yes"/>
			<point x="491" y="658"/>
			<point x="491" y="610"/>
			<point x="491" y="588" type="curve" smooth="yes"/>
			<point x="491" y="557"/>
			<point x="510" y="536"/>
			<point x="550" y="536" type="curve" smooth="yes"/>
			<point x="580" y="536"/>
			<point x="611" y="557"/>
			<point x="611" y="603" type="curve" smooth="yes"/>
			<point x="611" y="671"/>
			<point x="522" y="730"/>
			<point x="420" y="730" type="curve" smooth="yes"/>
			<point x="292" y="730"/>
			<point x="184" y="647"/>
			<point x="184" y="536" type="curve" smooth="yes"/>
			<point x="184" y="416"/>
			<point x="306" y="379"/>
			<point x="306" y="245" type="curve" smooth="yes"/>
			<point x="306" y="190"/>
			<point x="293" y="152"/>
			<point x="286" y="136" type="curve"/>
			<point x="255" y="149"/>
			<point x="231" y="166"/>
			<point x="197" y="168" type="curve" smooth="yes"/>
			<point x="142" y="171"/>
			<point x="103" y="130"/>
			<point x="103" y="78" type="curve" smooth="yes"/>
			<point x="103" y="33"/>
			<point x="138" y="-1"/>
			<point x="189" y="-1" type="curve" smooth="yes"/>
			<point x="236" y="-1"/>
			<point x="278" y="24"/>
			<point x="308" y="66" type="curve"/>
			<point x="357" y="25"/>
			<point x="446" y="0"/>
			<point x="484" y="0" type="curve" smooth="yes"/>
			<point x="564" y="0"/>
			<point x="615" y="23"/>
			<point x="657" y="95" type="curve" smooth="yes"/>
			<point x="684" y="141"/>
			<point x="682" y="169"/>
			<point x="661" y="177" type="curve" smooth="yes"/>
			<point x="648" y="182"/>
			<point x="637" y="180"/>
			<point x="624" y="152" type="curve" smooth="yes"/>
			<point x="586" y="73"/>
			<point x="554" y="51"/>
			<point x="487" y="51" type="curve" smooth="yes"/>
			<point x="435" y="51"/>
			<point x="366" y="89"/>
			<point x="331" y="112" type="curve"/>
			<point x="354" y="148"/>
			<point x="407" y="187"/>
			<point x="407" y="280" type="curve" smooth="yes"/>
			<point x="407" y="426"/>
			<point x="257" y="480"/>
			<point x="257" y="565" type="curve" smooth="yes"/>
			<point x="257" y="644"/>
			<point x="347" y="683"/>
		</contour>
		<contour>
			<point x="543" y="330" type="line" smooth="yes"/>
			<point x="558" y="330"/>
			<point x="570" y="340"/>
			<point x="570" y="355" type="curve" smooth="yes"/>
			<point x="570" y="370"/>
			<point x="558" y="380"/>
			<point x="543" y="380" type="curve" smooth="yes"/>
			<point x="127" y="380" type="line" smooth="yes"/>
			<point x="112" y="380"/>
			<point x="100" y="370"/>
			<point x="100" y="355" type="curve" smooth="yes"/>
			<point x="100" y="340"/>
			<point x="112" y="330"/>
			<point x="127" y="330" type="curve" smooth="yes"/>
		</contour>
	</outline>
</glyph>
<glyph name="yen" format="2">
	<advance width="700"/>
	<unicode hex="00A5"/>
	<outline>
		<contour>
			<point x="43" y="705" type="curve" smooth="yes"/>
			<point x="43" y="690"/>
			<point x="54" y="680"/>
			<point x="69" y="680" type="curve" smooth="yes"/>
			<point x="131" y="680" type="line"/>
			<point x="283" y="335" type="line"/>
			<point x="283" y="50" type="line"/>
			<point x="164" y="50" type="line" smooth="yes"/>
			<point x="147" y="50"/>
			<point x="137" y="40"/>
			<point x="137" y="25" type="curve" smooth="yes"/>
			<point x="137" y="10"/>
			<point x="147" y="0"/>
			<point x="164" y="0" type="curve" smooth="yes"/>
			<point x="512" y="0" type="line" smooth="yes"/>
			<point x="528" y="0"/>
			<point x="539" y="10"/>
			<point x="539" y="25" type="curve" smooth="yes"/>
			<point x="539" y="40"/>
			<point x="528" y="50"/>
			<point x="512" y="50" type="curve" smooth="yes"/>
			<point x="393" y="50" type="line"/>
			<point x="393" y="333" type="line"/>
			<point x="563" y="680" type="line"/>
			<point x="632" y="680" type="line" smooth="yes"/>
			<point x="650" y="680"/>
			<point x="660" y="690"/>
			<point x="660" y="705" type="curve" smooth="yes"/>
			<point x="660" y="719"/>
			<point x="650" y="730"/>
			<point x="632" y="730" type="curve" smooth="yes"/>
			<point x="423" y="730" type="line" smooth="yes"/>
			<point x="408" y="730"/>
			<point x="397" y="720"/>
			<point x="397" y="705" type="curve" smooth="yes"/>
			<point x="397" y="690"/>
			<point x="408" y="680"/>
			<point x="423" y="680" type="curve" smooth="yes"/>
			<point x="493" y="680" type="line"/>
			<point x="367" y="410" type="line"/>
			<point x="256" y="680" type="line"/>
			<point x="294" y="680" type="line" smooth="yes"/>
			<point x="309" y="680"/>
			<point x="320" y="690"/>
			<point x="320" y="705" type="curve" smooth="yes"/>
			<point x="320" y="720"/>
			<point x="309" y="730"/>
			<point x="294" y="730" type="curve" smooth="yes"/>
			<point x="69" y="730" type="line" smooth="yes"/>
			<point x="54" y="730"/>
			<point x="43" y="720"/>
		</contour>
		<contour>
			<point x="552" y="287" type="curve" smooth="yes"/>
			<point x="124" y="287" type="line" smooth="yes"/>
			<point x="109" y="287"/>
			<point x="97" y="277"/>
			<point x="97" y="262" type="curve" smooth="yes"/>
			<point x="97" y="247"/>
			<point x="109" y="237"/>
			<point x="124" y="237" type="curve" smooth="yes"/>
			<point x="552" y="237" type="line" smooth="yes"/>
			<point x="567" y="237"/>
			<point x="579" y="247"/>
			<point x="579" y="262" type="curve" smooth="yes"/>
			<point x="579" y="277"/>
			<point x="567" y="287"/>
		</contour>
		<contour>
			<point x="552" y="410" type="curve" smooth="yes"/>
			<point x="124" y="410" type="line" smooth="yes"/>
			<point x="109" y="410"/>
			<point x="97" y="400"/>
			<point x="97" y="385" type="curve" smooth="yes"/>
			<point x="97" y="370"/>
			<point x="109" y="360"/>
			<point x="124" y="360" type="curve" smooth="yes"/>
			<point x="552" y="360" type="line" smooth="yes"/>
			<point x="567" y="360"/>
			<point x="579" y="370"/>
			<point x="579" y="385" type="curve" smooth="yes"/>
			<point x="579" y="400"/>
			<point x="567" y="410"/>
		</contour>
	</outline>
</glyph>
<glyph name="brokenbar" format="2">
	<advance width="700"/>
	<unicode hex="00A6"/>
	<outline>
		<contour>
			<point x="394" y="433" type="curve" smooth="yes"/>
			<point x="394" y="673" type="line" smooth="yes"/>
			<point x="394" y="688"/>
			<point x="384" y="700"/>
			<point x="369" y="700" type="curve" smooth="yes"/>
			<point x="354" y="700"/>
			<point x="344" y="688"/>
			<point x="344" y="673" type="curve" smooth="yes"/>
			<point x="344" y="433" type="line" smooth="yes"/>
			<point x="344" y="418"/>
			<point x="354" y="406"/>
			<point x="369" y="406" type="curve" smooth="yes"/>
			<point x="384" y="406"/>
			<point x="394" y="418"/>
		</contour>
		<contour>
			<point x="394" y="37" type="curve" smooth="yes"/>
			<point x="394" y="287" type="line" smooth="yes"/>
			<point x="394" y="302"/>
			<point x="384" y="314"/>
			<point x="369" y="314" type="curve" smooth="yes"/>
			<point x="354" y="314"/>
			<point x="344" y="302"/>
			<point x="344" y="287" type="curve" smooth="yes"/>
			<point x="344" y="37" type="line" smooth="yes"/>
			<point x="344" y="22"/>
			<point x="354" y="10"/>
			<point x="369" y="10" type="curve" smooth="yes"/>
			<point x="384" y="10"/>
			<point x="394" y="22"/>
		</contour>
	</outline>
</glyph>
<glyph name="section" format="2">
	<advance width="700"/>
	<unicode hex="00A7"/>
	<outline>
		<contour>
			<point x="322" y="637" type="curve" smooth="yes"/>
			<point x="284" y="696"/>
			<point x="294" y="803"/>
			<point x="376" y="813" type="curve" smooth="yes"/>
			<point x="381" y="798"/>
			<point x="398" y="749"/>
			<point x="401" y="738" type="curve" smooth="yes"/>
			<point x="408" y="711"/>
			<point x="433" y="686"/>
			<point x="480" y="702" type="curve" smooth="yes"/>
			<point x="506" y="711"/>
			<point x="524" y="742"/>
			<point x="509" y="784" type="curve" smooth="yes"/>
			<point x="498" y="814"/>
			<point x="453" y="874"/>
			<point x="366" y="860" type="curve" smooth="yes"/>
			<point x="287" y="847"/>
			<point x="239" y="786"/>
			<point x="240" y="711" type="curve" smooth="yes"/>
			<point x="241" y="673"/>
			<point x="253" y="641"/>
			<point x="273" y="610" type="curve"/>
			<point x="171" y="540"/>
			<point x="138" y="479"/>
			<point x="138" y="396" type="curve" smooth="yes"/>
			<point x="138" y="242"/>
			<point x="326" y="161"/>
			<point x="377" y="81" type="curve" smooth="yes"/>
			<point x="400" y="46"/>
			<point x="405" y="-6"/>
			<point x="389" y="-45" type="curve" smooth="yes"/>
			<point x="377" y="-71"/>
			<point x="356" y="-91"/>
			<point x="323" y="-95" type="curve"/>
			<point x="318" y="-80"/>
			<point x="301" y="-31"/>
			<point x="298" y="-20" type="curve" smooth="yes"/>
			<point x="291" y="7"/>
			<point x="266" y="32"/>
			<point x="219" y="16" type="curve" smooth="yes"/>
			<point x="193" y="7"/>
			<point x="175" y="-24"/>
			<point x="190" y="-66" type="curve" smooth="yes"/>
			<point x="201" y="-96"/>
			<point x="246" y="-156"/>
			<point x="333" y="-142" type="curve" smooth="yes"/>
			<point x="413" y="-129"/>
			<point x="460" y="-68"/>
			<point x="459" y="7" type="curve" smooth="yes"/>
			<point x="458" y="45"/>
			<point x="446" y="77"/>
			<point x="426" y="108" type="curve"/>
			<point x="514" y="169"/>
			<point x="561" y="225"/>
			<point x="561" y="322" type="curve" smooth="yes"/>
			<point x="561" y="473"/>
			<point x="375" y="554"/>
		</contour>
		<contour>
			<point x="307" y="251" type="line" smooth="yes"/>
			<point x="217" y="353"/>
			<point x="215" y="462"/>
			<point x="298" y="577" type="curve"/>
			<point x="392" y="467" type="line" smooth="yes"/>
			<point x="482" y="365"/>
			<point x="485" y="256"/>
			<point x="401" y="141" type="curve"/>
		</contour>
	</outline>
</glyph>
<glyph name="copyright" format="2">
	<advance width="700"/>
	<unicode hex="00A9"/>
	<outline>
		<contour>
			<point x="350" y="673" type="curve" smooth="yes"/>
			<point x="163" y="673"/>
			<point x="13" y="523"/>
			<point x="13" y="336" type="curve" smooth="yes"/>
			<point x="13" y="149"/>
			<point x="163" y="-1"/>
			<point x="350" y="-1" type="curve" smooth="yes"/>
			<point x="537" y="-1"/>
			<point x="687" y="149"/>
			<point x="687" y="336" type="curve" smooth="yes"/>
			<point x="687" y="523"/>
			<point x="537" y="673"/>
		</contour>
		<contour>
			<point x="350" y="623" type="curve" smooth="yes"/>
			<point x="509" y="623"/>
			<point x="637" y="496"/>
			<point x="637" y="336" type="curve" smooth="yes"/>
			<point x="637" y="177"/>
			<point x="509" y="49"/>
			<point x="350" y="49" type="curve" smooth="yes"/>
			<point x="190" y="49"/>
			<point x="63" y="177"/>
			<point x="63" y="336" type="curve" smooth="yes"/>
			<point x="63" y="496"/>
			<point x="190" y="623"/>
		</contour>
		<contour>
			<point x="361" y="559" type="curve" smooth="yes"/>
			<point x="451" y="559"/>
			<point x="530" y="505"/>
			<point x="530" y="434" type="curve" smooth="yes"/>
			<point x="530" y="396"/>
			<point x="503" y="379"/>
			<point x="480" y="379" type="curve" smooth="yes"/>
			<point x="437" y="379"/>
			<point x="430" y="408"/>
			<point x="430" y="430" type="curve" smooth="yes"/>
			<point x="430" y="452"/>
			<point x="430" y="491"/>
			<point x="430" y="494" type="curve"/>
			<point x="418" y="505"/>
			<point x="393" y="509"/>
			<point x="361" y="509" type="curve" smooth="yes"/>
			<point x="265" y="509"/>
			<point x="238" y="403"/>
			<point x="238" y="332" type="curve" smooth="yes"/>
			<point x="238" y="270"/>
			<point x="260" y="165"/>
			<point x="354" y="165" type="curve" smooth="yes"/>
			<point x="432" y="165"/>
			<point x="458" y="206"/>
			<point x="493" y="246" type="curve" smooth="yes"/>
			<point x="506" y="261"/>
			<point x="522" y="262"/>
			<point x="531" y="254" type="curve" smooth="yes"/>
			<point x="543" y="243"/>
			<point x="541" y="223"/>
			<point x="510" y="189" type="curve" smooth="yes"/>
			<point x="464" y="139"/>
			<point x="406" y="115"/>
			<point x="345" y="115" type="curve" smooth="yes"/>
			<point x="257" y="115"/>
			<point x="138" y="183"/>
			<point x="138" y="332" type="curve" smooth="yes"/>
			<point x="138" y="498"/>
			<point x="283" y="559"/>
		</contour>
	</outline>
</glyph>
<glyph name="guillemetleft" format="2">
	<advance width="700"/>
	<unicode hex="00AB"/>
	<outline>
		<contour>
			<point x="347" y="218" type="curve" smooth="yes"/>
			<point x="543" y="44" type="line" smooth="yes"/>
			<point x="556" y="32"/>
			<point x="570" y="30"/>
			<point x="582" y="42" type="curve" smooth="yes"/>
			<point x="593" y="53"/>
			<point x="592" y="69"/>
			<point x="579" y="80" type="curve" smooth="yes"/>
			<point x="375" y="261" type="line"/>
			<point x="577" y="441" type="line" smooth="yes"/>
			<point x="590" y="452"/>
			<point x="591" y="467"/>
			<point x="579" y="479" type="curve"/>
			<point x="570" y="490"/>
			<point x="554" y="488"/>
			<point x="541" y="476" type="curve" smooth="yes"/>
			<point x="347" y="304" type="line" smooth="yes"/>
			<point x="327" y="286"/>
			<point x="310" y="276"/>
			<point x="310" y="261" type="curve" smooth="yes"/>
			<point x="310" y="246"/>
			<point x="325" y="237"/>
		</contour>
		<contour>
			<point x="182" y="218" type="curve" smooth="yes"/>
			<point x="378" y="44" type="line" smooth="yes"/>
			<point x="391" y="32"/>
			<point x="405" y="30"/>
			<point x="417" y="42" type="curve" smooth="yes"/>
			<point x="428" y="53"/>
			<point x="427" y="69"/>
			<point x="414" y="80" type="curve" smooth="yes"/>
			<point x="210" y="261" type="line"/>
			<point x="412" y="441" type="line" smooth="yes"/>
			<point x="425" y="452"/>
			<point x="426" y="467"/>
			<point x="414" y="479" type="curve"/>
			<point x="405" y="490"/>
			<point x="389" y="488"/>
			<point x="376" y="476" type="curve" smooth="yes"/>
			<point x="182" y="304" type="line" smooth="yes"/>
			<point x="162" y="286"/>
			<point x="145" y="276"/>
			<point x="145" y="261" type="curve" smooth="yes"/>
			<point x="145" y="246"/>
			<point x="160" y="237"/>
		</contour>
	</outline>
</glyph>
<glyph name="registered" format="2">
	<advance width="700"/>
	<unicode hex="00AE"/>
	<outline>
		<contour>
			<point x="383" y="580" type="curve" smooth="yes"/>
			<point x="383" y="560"/>
			<point x="371" y="553"/>
			<point x="359" y="553" type="curve" smooth="yes"/>
			<point x="331" y="553" type="line"/>
			<point x="331" y="608" type="line"/>
			<point x="359" y="608" type="line" smooth="yes"/>
			<point x="371" y="608"/>
			<point x="383" y="600"/>
		</contour>
		<contour>
			<point x="353" y="354" type="curve" smooth="yes"/>
			<point x="456" y="354"/>
			<point x="539" y="439"/>
			<point x="539" y="543" type="curve" smooth="yes"/>
			<point x="539" y="646"/>
			<point x="456" y="730"/>
			<point x="353" y="730" type="curve" smooth="yes"/>
			<point x="247" y="730"/>
			<point x="162" y="646"/>
			<point x="162" y="543" type="curve" smooth="yes"/>
			<point x="162" y="439"/>
			<point x="247" y="354"/>
		</contour>
		<contour>
			<point x="353" y="399" type="curve" smooth="yes"/>
			<point x="274" y="399"/>
			<point x="213" y="462"/>
			<point x="213" y="543" type="curve" smooth="yes"/>
			<point x="213" y="619"/>
			<point x="274" y="683"/>
			<point x="353" y="683" type="curve" smooth="yes"/>
			<point x="428" y="683"/>
			<point x="493" y="619"/>
			<point x="493" y="543" type="curve" smooth="yes"/>
			<point x="493" y="461"/>
			<point x="428" y="399"/>
		</contour>
		<contour>
			<point x="331" y="531" type="line"/>
			<point x="353" y="531" type="line" smooth="yes"/>
			<point x="357" y="531"/>
			<point x="368" y="530"/>
			<point x="368" y="517" type="curve" smooth="yes"/>
			<point x="368" y="493" type="line" smooth="yes"/>
			<point x="368" y="476"/>
			<point x="372" y="455"/>
			<point x="405" y="455" type="curve" smooth="yes"/>
			<point x="423" y="455"/>
			<point x="435" y="471"/>
			<point x="439" y="483" type="curve" smooth="yes"/>
			<point x="443" y="494"/>
			<point x="441" y="501"/>
			<point x="434" y="503" type="curve" smooth="yes"/>
			<point x="428" y="505"/>
			<point x="424" y="500"/>
			<point x="422" y="494" type="curve" smooth="yes"/>
			<point x="418" y="484"/>
			<point x="412" y="476"/>
			<point x="407" y="477" type="curve" smooth="yes"/>
			<point x="399" y="479"/>
			<point x="400" y="489"/>
			<point x="400" y="500" type="curve" smooth="yes"/>
			<point x="400" y="517" type="line" smooth="yes"/>
			<point x="400" y="529"/>
			<point x="396" y="534"/>
			<point x="387" y="538" type="curve"/>
			<point x="407" y="543"/>
			<point x="421" y="558"/>
			<point x="421" y="580" type="curve" smooth="yes"/>
			<point x="421" y="607"/>
			<point x="396" y="629"/>
			<point x="370" y="629" type="curve" smooth="yes"/>
			<point x="286" y="629" type="line" smooth="yes"/>
			<point x="281" y="629"/>
			<point x="277" y="627"/>
			<point x="277" y="621" type="curve" smooth="yes"/>
			<point x="277" y="616"/>
			<point x="280" y="614"/>
			<point x="284" y="613" type="curve" smooth="yes"/>
			<point x="299" y="611" type="line"/>
			<point x="299" y="473" type="line"/>
			<point x="285" y="473" type="line" smooth="yes"/>
			<point x="281" y="473"/>
			<point x="277" y="470"/>
			<point x="277" y="465" type="curve" smooth="yes"/>
			<point x="277" y="461"/>
			<point x="281" y="457"/>
			<point x="285" y="457" type="curve" smooth="yes"/>
			<point x="350" y="457" type="line" smooth="yes"/>
			<point x="354" y="457"/>
			<point x="358" y="461"/>
			<point x="358" y="465" type="curve" smooth="yes"/>
			<point x="358" y="470"/>
			<point x="354" y="473"/>
			<point x="350" y="473" type="curve" smooth="yes"/>
			<point x="331" y="473" type="line"/>
		</contour>
	</outline>
</glyph>
<glyph name="degree" format="2">
	<advance width="700"/>
	<unicode hex="00B0"/>
	<outline>
		<contour>
			<point x="352" y="496" type="curve" smooth="yes"/>
			<point x="416" y="496"/>
			<point x="468" y="549"/>
			<point x="468" y="614" type="curve" smooth="yes"/>
			<point x="468" y="678"/>
			<point x="416" y="730"/>
			<point x="352" y="730" type="curve" smooth="yes"/>
			<point x="286" y="730"/>
			<point x="233" y="678"/>
			<point x="233" y="614" type="curve" smooth="yes"/>
			<point x="233" y="549"/>
			<point x="286" y="496"/>
		</contour>
		<contour>
			<point x="353" y="536" type="curve" smooth="yes"/>
			<point x="310" y="536"/>
			<point x="278" y="571"/>
			<point x="278" y="614" type="curve" smooth="yes"/>
			<point x="278" y="656"/>
			<point x="310" y="688"/>
			<point x="353" y="688" type="curve" smooth="yes"/>
			<point x="393" y="688"/>
			<point x="428" y="656"/>
			<point x="428" y="614" type="curve" smooth="yes"/>
			<point x="428" y="570"/>
			<point x="393" y="536"/>
		</contour>
	</outline>
</glyph>
<glyph name="periodcentered" format="2">
	<advance width="700"/>
	<unicode hex="00B7"/>
	<outline>
		<contour>
			<point x="350" y="362" type="curve" smooth="yes"/>
			<point x="316" y="362"/>
			<point x="288" y="337"/>
			<point x="288" y="303" type="curve" smooth="yes"/>
			<point x="288" y="269"/>
			<point x="316" y="244"/>
			<point x="350" y="244" type="curve" smooth="yes"/>
			<point x="384" y="244"/>
			<point x="412" y="269"/>
			<point x="412" y="303" type="curve" smooth="yes"/>
			<point x="412" y="337"/>
			<point x="384" y="362"/>
		</contour>
	</outline>
</glyph>
<glyph name="guillemetright" format="2">
	<advance width="700"/>
	<unicode hex="00BB"/>
	<outline>
		<contour>
			<point x="353" y="218" type="line" smooth="yes"/>
			<point x="375" y="237"/>
			<point x="390" y="246"/>
			<point x="390" y="261" type="curve" smooth="yes"/>
			<point x="390" y="276"/>
			<point x="373" y="286"/>
			<point x="353" y="304" type="curve" smooth="yes"/>
			<point x="159" y="476" type="line" smooth="yes"/>
			<point x="146" y="488"/>
			<point x="130" y="490"/>
			<point x="121" y="479" type="curve"/>
			<point x="109" y="467"/>
			<point x="110" y="452"/>
			<point x="123" y="441" type="curve" smooth="yes"/>
			<point x="325" y="261" type="line"/>
			<point x="121" y="80" type="line" smooth="yes"/>
			<point x="108" y="69"/>
			<point x="107" y="53"/>
			<point x="118" y="42" type="curve" smooth="yes"/>
			<point x="130" y="30"/>
			<point x="144" y="32"/>
			<point x="157" y="44" type="curve" smooth="yes"/>
		</contour>
		<contour>
			<point x="518" y="218" type="line" smooth="yes"/>
			<point x="540" y="237"/>
			<point x="555" y="246"/>
			<point x="555" y="261" type="curve" smooth="yes"/>
			<point x="555" y="276"/>
			<point x="538" y="286"/>
			<point x="518" y="304" type="curve" smooth="yes"/>
			<point x="324" y="476" type="line" smooth="yes"/>
			<point x="311" y="488"/>
			<point x="295" y="490"/>
			<point x="286" y="479" type="curve"/>
			<point x="274" y="467"/>
			<point x="275" y="452"/>
			<point x="288" y="441" type="curve" smooth="yes"/>
			<point x="490" y="261" type="line"/>
			<point x="286" y="80" type="line" smooth="yes"/>
			<point x="273" y="69"/>
			<point x="272" y="53"/>
			<point x="283" y="42" type="curve" smooth="yes"/>
			<point x="295" y="30"/>
			<point x="309" y="32"/>
			<point x="322" y="44" type="curve" smooth="yes"/>
		</contour>
	</outline>
</glyph>
<glyph name="onequarter" format="2">
	<advance width="700"/>
	<unicode hex="00BC"/>
	<outline>
		<contour>
			<point x="389" y="780" type="line" smooth="yes"/>
			<point x="389" y="789"/>
			<point x="383" y="795"/>
			<point x="368" y="795" type="curve" smooth="yes"/>
			<point x="355" y="795"/>
			<point x="342" y="773"/>
			<point x="270" y="723" type="curve" smooth="yes"/>
			<point x="204" y="677" type="line" smooth="yes"/>
			<point x="197" y="672"/>
			<point x="191" y="664"/>
			<point x="198" y="653" type="curve" smooth="yes"/>
			<point x="200" y="650"/>
			<point x="203" y="649"/>
			<point x="206" y="649" type="curve" smooth="yes"/>
			<point x="220" y="649"/>
			<point x="307" y="711"/>
			<point x="321" y="723" type="curve"/>
			<point x="321" y="398" type="line" smooth="yes"/>
			<point x="321" y="389"/>
			<point x="327" y="382"/>
			<point x="335" y="383" type="curve"/>
			<point x="375" y="383" type="line" smooth="yes"/>
			<point x="383" y="383"/>
			<point x="389" y="389"/>
			<point x="389" y="398" type="curve" smooth="yes"/>
		</contour>
		<contour>
			<point x="178" y="-45" type="curve" smooth="yes"/>
			<point x="179" y="-49"/>
			<point x="183" y="-54"/>
			<point x="196" y="-54" type="curve" smooth="yes"/>
			<point x="350" y="-55" type="line"/>
			<point x="350" y="-179" type="line" smooth="yes"/>
			<point x="350" y="-188"/>
			<point x="356" y="-194"/>
			<point x="364" y="-194" type="curve" smooth="yes"/>
			<point x="404" y="-194" type="line" smooth="yes"/>
			<point x="411" y="-194"/>
			<point x="418" y="-188"/>
			<point x="418" y="-179" type="curve" smooth="yes"/>
			<point x="418" y="-55" type="line"/>
			<point x="476" y="-55" type="line" smooth="yes"/>
			<point x="485" y="-55"/>
			<point x="491" y="-49"/>
			<point x="491" y="-41" type="curve" smooth="yes"/>
			<point x="491" y="-33"/>
			<point x="485" y="-27"/>
			<point x="476" y="-27" type="curve" smooth="yes"/>
			<point x="418" y="-27" type="line"/>
			<point x="418" y="222" type="line" smooth="yes"/>
			<point x="418" y="238"/>
			<point x="417" y="253"/>
			<point x="396" y="253" type="curve" smooth="yes"/>
			<point x="388" y="253"/>
			<point x="381" y="247"/>
			<point x="375" y="238" type="curve"/>
			<point x="191" y="-14" type="line" smooth="yes"/>
			<point x="182" y="-27"/>
			<point x="176" y="-37"/>
		</contour>
		<contour>
			<point x="223" y="-27" type="line"/>
			<point x="350" y="152" type="line"/>
			<point x="350" y="-27" type="line"/>
		</contour>
		<contour>
			<point x="562" y="335" type="curve" smooth="yes"/>
			<point x="138" y="335" type="line" smooth="yes"/>
			<point x="120" y="335"/>
			<point x="109" y="325"/>
			<point x="109" y="310" type="curve" smooth="yes"/>
			<point x="109" y="295"/>
			<point x="120" y="285"/>
			<point x="138" y="285" type="curve" smooth="yes"/>
			<point x="562" y="285" type="line" smooth="yes"/>
			<point x="580" y="285"/>
			<point x="591" y="295"/>
			<point x="591" y="310" type="curve" smooth="yes"/>
			<point x="591" y="325"/>
			<point x="580" y="335"/>
		</contour>
	</outline>
</glyph>
<glyph name="onehalf" format="2">
	<advance width="700"/>
	<unicode hex="00BD"/>
	<outline>
		<contour>
			<point x="389" y="780" type="line" smooth="yes"/>
			<point x="389" y="789"/>
			<point x="383" y="795"/>
			<point x="368" y="795" type="curve" smooth="yes"/>
			<point x="355" y="795"/>
			<point x="342" y="773"/>
			<point x="270" y="723" type="curve" smooth="yes"/>
			<point x="204" y="677" type="line" smooth="yes"/>
			<point x="197" y="672"/>
			<point x="189" y="663"/>
			<point x="198" y="653" type="curve"/>
			<point x="200" y="650"/>
			<point x="203" y="649"/>
			<point x="206" y="649" type="curve" smooth="yes"/>
			<point x="220" y="649"/>
			<point x="307" y="711"/>
			<point x="321" y="723" type="curve"/>
			<point x="321" y="398" type="line" smooth="yes"/>
			<point x="321" y="389"/>
			<point x="327" y="382"/>
			<point x="335" y="383" type="curve"/>
			<point x="375" y="383" type="line" smooth="yes"/>
			<point x="383" y="383"/>
			<point x="389" y="389"/>
			<point x="389" y="398" type="curve" smooth="yes"/>
		</contour>
		<contour>
			<point x="490" y="-145" type="curve" smooth="yes"/>
			<point x="494" y="-95" type="line"/>
			<point x="496" y="-80"/>
			<point x="490" y="-73"/>
			<point x="481" y="-73" type="curve" smooth="yes"/>
			<point x="472" y="-73"/>
			<point x="468" y="-80"/>
			<point x="463" y="-95" type="curve"/>
			<point x="459" y="-110" type="line"/>
			<point x="276" y="-110" type="line"/>
			<point x="276" y="-68"/>
			<point x="346" y="-16"/>
			<point x="410" y="28" type="curve" smooth="yes"/>
			<point x="479" y="76"/>
			<point x="489" y="111"/>
			<point x="489" y="150" type="curve" smooth="yes"/>
			<point x="489" y="197"/>
			<point x="457" y="251"/>
			<point x="364" y="251" type="curve" smooth="yes"/>
			<point x="313" y="251"/>
			<point x="277" y="226"/>
			<point x="261" y="211" type="curve"/>
			<point x="239" y="188"/>
			<point x="214" y="154"/>
			<point x="231" y="143" type="curve"/>
			<point x="235" y="139"/>
			<point x="248" y="138"/>
			<point x="254" y="149" type="curve"/>
			<point x="276" y="183"/>
			<point x="303" y="219"/>
			<point x="353" y="219" type="curve" smooth="yes"/>
			<point x="406" y="219"/>
			<point x="415" y="166"/>
			<point x="415" y="145" type="curve" smooth="yes"/>
			<point x="415" y="98"/>
			<point x="386" y="50"/>
			<point x="328" y="12" type="curve" smooth="yes"/>
			<point x="232" y="-51"/>
			<point x="211" y="-116"/>
			<point x="211" y="-142" type="curve" smooth="yes"/>
			<point x="211" y="-143" type="line" smooth="yes"/>
			<point x="211" y="-157"/>
			<point x="220" y="-160"/>
			<point x="234" y="-160" type="curve" smooth="yes"/>
			<point x="474" y="-160" type="line" smooth="yes"/>
			<point x="484" y="-160"/>
			<point x="489" y="-155"/>
		</contour>
		<contour>
			<point x="562" y="335" type="curve" smooth="yes"/>
			<point x="138" y="335" type="line" smooth="yes"/>
			<point x="120" y="335"/>
			<point x="109" y="325"/>
			<point x="109" y="310" type="curve" smooth="yes"/>
			<point x="109" y="295"/>
			<point x="120" y="285"/>
			<point x="138" y="285" type="curve" smooth="yes"/>
			<point x="562" y="285" type="line" smooth="yes"/>
			<point x="580" y="285"/>
			<point x="591" y="295"/>
			<point x="591" y="310" type="curve" smooth="yes"/>
			<point x="591" y="325"/>
			<point x="580" y="335"/>
		</contour>
	</outline>
</glyph>
<glyph name="threequarters" format="2">
	<advance width="700"/>
	<unicode hex="00BE"/>
	<outline>
		<contour>
			<point x="400" y="717" type="curve" smooth="yes"/>
			<point x="400" y="666"/>
			<point x="342" y="635"/>
			<point x="333" y="630" type="curve"/>
			<point x="325" y="625"/>
			<point x="315" y="621"/>
			<point x="319" y="608" type="curve"/>
			<point x="324" y="599"/>
			<point x="331" y="600"/>
			<point x="342" y="601" type="curve" smooth="yes"/>
			<point x="417" y="608"/>
			<point x="434" y="565"/>
			<point x="429" y="524" type="curve" smooth="yes"/>
			<point x="420" y="447"/>
			<point x="359" y="397"/>
			<point x="265" y="392" type="curve" smooth="yes"/>
			<point x="246" y="391"/>
			<point x="230" y="394"/>
			<point x="231" y="379" type="curve"/>
			<point x="231" y="370"/>
			<point x="238" y="362"/>
			<point x="272" y="362" type="curve" smooth="yes"/>
			<point x="427" y="362"/>
			<point x="528" y="462"/>
			<point x="497" y="572" type="curve" smooth="yes"/>
			<point x="485" y="614"/>
			<point x="443" y="633"/>
			<point x="402" y="633" type="curve"/>
			<point x="442" y="642"/>
			<point x="483" y="687"/>
			<point x="476" y="742" type="curve" smooth="yes"/>
			<point x="471" y="784"/>
			<point x="426" y="810"/>
			<point x="360" y="810" type="curve" smooth="yes"/>
			<point x="301" y="810"/>
			<point x="270" y="779"/>
			<point x="255" y="765" type="curve" smooth="yes"/>
			<point x="237" y="748"/>
			<point x="230" y="731"/>
			<point x="240" y="723" type="curve"/>
			<point x="248" y="719"/>
			<point x="254" y="717"/>
			<point x="264" y="729" type="curve"/>
			<point x="314" y="794"/>
			<point x="400" y="791"/>
		</contour>
		<contour>
			<point x="178" y="-45" type="curve" smooth="yes"/>
			<point x="179" y="-49"/>
			<point x="183" y="-54"/>
			<point x="196" y="-54" type="curve" smooth="yes"/>
			<point x="350" y="-55" type="line"/>
			<point x="350" y="-179" type="line" smooth="yes"/>
			<point x="350" y="-188"/>
			<point x="356" y="-194"/>
			<point x="364" y="-194" type="curve" smooth="yes"/>
			<point x="404" y="-194" type="line" smooth="yes"/>
			<point x="411" y="-194"/>
			<point x="418" y="-188"/>
			<point x="418" y="-179" type="curve" smooth="yes"/>
			<point x="418" y="-55" type="line"/>
			<point x="476" y="-55" type="line" smooth="yes"/>
			<point x="485" y="-55"/>
			<point x="491" y="-49"/>
			<point x="491" y="-41" type="curve" smooth="yes"/>
			<point x="491" y="-33"/>
			<point x="485" y="-27"/>
			<point x="476" y="-27" type="curve" smooth="yes"/>
			<point x="418" y="-27" type="line"/>
			<point x="418" y="222" type="line" smooth="yes"/>
			<point x="418" y="238"/>
			<point x="417" y="253"/>
			<point x="396" y="253" type="curve" smooth="yes"/>
			<point x="388" y="253"/>
			<point x="381" y="247"/>
			<point x="375" y="238" type="curve"/>
			<point x="191" y="-14" type="line" smooth="yes"/>
			<point x="182" y="-27"/>
			<point x="176" y="-37"/>
		</contour>
		<contour>
			<point x="223" y="-27" type="line"/>
			<point x="350" y="152" type="line"/>
			<point x="350" y="-27" type="line"/>
		</contour>
		<contour>
			<point x="562" y="335" type="curve" smooth="yes"/>
			<point x="138" y="335" type="line" smooth="yes"/>
			<point x="120" y="335"/>
			<point x="109" y="325"/>
			<point x="109" y="310" type="curve" smooth="yes"/>
			<point x="109" y="295"/>
			<point x="120" y="285"/>
			<point x="138" y="285" type="curve" smooth="yes"/>
			<point x="562" y="285" type="line" smooth="yes"/>
			<point x="580" y="285"/>
			<point x="591" y="295"/>
			<point x="591" y="310" type="curve" smooth="yes"/>
			<point x="591" y="325"/>
			<point x="580" y="335"/>
		</contour>
	</outline>
</glyph>
<glyph name="questiondown" format="2">
	<advance width="700"/>
	<unicode hex="00BF"/>
	<outline>
		<contour>
			<point x="345" y="446" type="curve" smooth="yes"/>
			<point x="378" y="446"/>
			<point x="405" y="470"/>
			<point x="405" y="503" type="curve" smooth="yes"/>
			<point x="405" y="535"/>
			<point x="378" y="559"/>
			<point x="345" y="559" type="curve" smooth="yes"/>
			<point x="313" y="559"/>
			<point x="286" y="535"/>
			<point x="286" y="503" type="curve" smooth="yes"/>
			<point x="286" y="470"/>
			<point x="313" y="446"/>
		</contour>
		<contour>
			<point x="344" y="361" type="curve" smooth="yes"/>
			<point x="358" y="361"/>
			<point x="369" y="351"/>
			<point x="369" y="334" type="curve" smooth="yes"/>
			<point x="369" y="254" type="line" smooth="yes"/>
			<point x="369" y="200"/>
			<point x="348" y="180"/>
			<point x="306" y="135" type="curve" smooth="yes"/>
			<point x="254" y="79"/>
			<point x="243" y="39"/>
			<point x="243" y="-20" type="curve" smooth="yes"/>
			<point x="243" y="-83"/>
			<point x="283" y="-121"/>
			<point x="352" y="-121" type="curve" smooth="yes"/>
			<point x="426" y="-121"/>
			<point x="451" y="-83"/>
			<point x="451" y="-83" type="curve"/>
			<point x="453" y="-90"/>
			<point x="436" y="-32"/>
			<point x="432" y="-14" type="curve" smooth="yes"/>
			<point x="427" y="8"/>
			<point x="435" y="50"/>
			<point x="474" y="59" type="curve" smooth="yes"/>
			<point x="510" y="67"/>
			<point x="548" y="57"/>
			<point x="561" y="7" type="curve" smooth="yes"/>
			<point x="579" y="-64"/>
			<point x="497" y="-171"/>
			<point x="342" y="-171" type="curve" smooth="yes"/>
			<point x="239" y="-171"/>
			<point x="143" y="-118"/>
			<point x="143" y="-20" type="curve" smooth="yes"/>
			<point x="143" y="83"/>
			<point x="211" y="109"/>
			<point x="281" y="174" type="curve" smooth="yes"/>
			<point x="317" y="207"/>
			<point x="319" y="233"/>
			<point x="319" y="314" type="curve" smooth="yes"/>
			<point x="319" y="333" type="line" smooth="yes"/>
			<point x="319" y="351"/>
			<point x="330" y="361"/>
		</contour>
	</outline>
</glyph>
<glyph name="Agrave" format="2">
	<advance width="700"/>
	<unicode hex="00C0"/>
	<outline>
		<contour>
			<point x="166" y="1000" type="line" smooth="yes"/>
			<point x="135" y="1000"/>
			<point x="130" y="982"/>
			<point x="160" y="953" type="curve" smooth="yes"/>
			<point x="337" y="783" type="line" smooth="yes"/>
			<point x="348" y="773"/>
			<point x="361" y="769"/>
			<point x="372" y="776" type="curve" smooth="yes"/>
			<point x="383" y="783"/>
			<point x="382" y="797"/>
			<point x="376" y="806" type="curve" smooth="yes"/>
			<point x="252" y="980" type="line" smooth="yes"/>
			<point x="238" y="1000"/>
			<point x="224" y="1000"/>
			<point x="193" y="1000" type="curve" smooth="yes"/>
		</contour>
		<contour>
			<point x="351" y="730" type="curve" smooth="yes"/>
			<point x="328" y="730"/>
			<point x="316" y="718"/>
			<point x="310" y="699" type="curve" smooth="yes"/>
			<point x="112" y="50" type="line"/>
			<point x="52" y="50" type="line" smooth="yes"/>
			<point x="34" y="50"/>
			<point x="23" y="40"/>
			<point x="23" y="25" type="curve" smooth="yes"/>
			<point x="23" y="10"/>
			<point x="34" y="0"/>
			<point x="52" y="0" type="curve" smooth="yes"/>
			<point x="235" y="0" type="line" smooth="yes"/>
			<point x="253" y="0"/>
			<point x="264" y="10"/>
			<point x="264" y="25" type="curve" smooth="yes"/>
			<point x="264" y="40"/>
			<point x="253" y="50"/>
			<point x="235" y="50" type="curve" smooth="yes"/>
			<point x="178" y="50" type="line"/>
			<point x="221" y="205" type="line"/>
			<point x="446" y="205" type="line"/>
			<point x="491" y="50" type="line"/>
			<point x="424" y="50" type="line" smooth="yes"/>
			<point x="406" y="50"/>
			<point x="395" y="40"/>
			<point x="395" y="25" type="curve" smooth="yes"/>
			<point x="395" y="10"/>
			<point x="406" y="0"/>
			<point x="424" y="0" type="curve" smooth="yes"/>
			<point x="648" y="0" type="line" smooth="yes"/>
			<point x="666" y="0"/>
			<point x="677" y="10"/>
			<point x="677" y="25" type="curve" smooth="yes"/>
			<point x="677" y="40"/>
			<point x="666" y="50"/>
			<point x="648" y="50" type="curve" smooth="yes"/>
			<point x="598" y="50" type="line"/>
			<point x="392" y="699" type="line" smooth="yes"/>
			<point x="386" y="719"/>
			<point x="375" y="730"/>
		</contour>
		<contour>
			<point x="236" y="255" type="line"/>
			<point x="335" y="579" type="line"/>
			<point x="431" y="255" type="line"/>
		</contour>
	</outline>
</glyph>
<glyph name="Aacute" format="2">
	<advance width="700"/>
	<unicode hex="00C1"/>
	<outline>
		<contour>
			<point x="545" y="1000" type="curve" smooth="yes"/>
			<point x="518" y="1000" type="line" smooth="yes"/>
			<point x="487" y="1000"/>
			<point x="473" y="1000"/>
			<point x="459" y="980" type="curve" smooth="yes"/>
			<point x="335" y="806" type="line" smooth="yes"/>
			<point x="329" y="797"/>
			<point x="328" y="783"/>
			<point x="339" y="776" type="curve" smooth="yes"/>
			<point x="350" y="769"/>
			<point x="363" y="773"/>
			<point x="374" y="783" type="curve" smooth="yes"/>
			<point x="551" y="953" type="line" smooth="yes"/>
			<point x="581" y="982"/>
			<point x="576" y="1000"/>
		</contour>
		<contour>
			<point x="351" y="730" type="curve" smooth="yes"/>
			<point x="328" y="730"/>
			<point x="316" y="718"/>
			<point x="310" y="699" type="curve" smooth="yes"/>
			<point x="112" y="50" type="line"/>
			<point x="52" y="50" type="line" smooth="yes"/>
			<point x="34" y="50"/>
			<point x="23" y="40"/>
			<point x="23" y="25" type="curve" smooth="yes"/>
			<point x="23" y="10"/>
			<point x="34" y="0"/>
			<point x="52" y="0" type="curve" smooth="yes"/>
			<point x="235" y="0" type="line" smooth="yes"/>
			<point x="253" y="0"/>
			<point x="264" y="10"/>
			<point x="264" y="25" type="curve" smooth="yes"/>
			<point x="264" y="40"/>
			<point x="253" y="50"/>
			<point x="235" y="50" type="curve" smooth="yes"/>
			<point x="178" y="50" type="line"/>
			<point x="221" y="205" type="line"/>
			<point x="446" y="205" type="line"/>
			<point x="491" y="50" type="line"/>
			<point x="424" y="50" type="line" smooth="yes"/>
			<point x="406" y="50"/>
			<point x="395" y="40"/>
			<point x="395" y="25" type="curve" smooth="yes"/>
			<point x="395" y="10"/>
			<point x="406" y="0"/>
			<point x="424" y="0" type="curve" smooth="yes"/>
			<point x="648" y="0" type="line" smooth="yes"/>
			<point x="666" y="0"/>
			<point x="677" y="10"/>
			<point x="677" y="25" type="curve" smooth="yes"/>
			<point x="677" y="40"/>
			<point x="666" y="50"/>
			<point x="648" y="50" type="curve" smooth="yes"/>
			<point x="598" y="50" type="line"/>
			<point x="392" y="699" type="line" smooth="yes"/>
			<point x="386" y="719"/>
			<point x="375" y="730"/>
		</contour>
		<contour>
			<point x="236" y="255" type="line"/>
			<point x="335" y="579" type="line"/>
			<point x="431" y="255" type="line"/>
		</contour>
	</outline>
</glyph>
